  0
SECTION
  2
HEADER
  9
$ACADVER
  1
AC1027
  9
$ACADMAINTVER
 70
105
  9
$DWGCODEPAGE
  3
ANSI_1252
  9
$LASTSAVEDBY
  1
ezdxf
  9
$REQUIREDVERSIONS
160
0
  9
$INSBASE
 10
0.0
 20
0.0
 30
0.0
  9
$EXTMIN
 10
1e+20
 20
1e+20
 30
1e+20
  9
$EXTMAX
 10
-1e+20
 20
-1e+20
 30
-1e+20
  9
$LIMMIN
 10
0.0
 20
0.0
  9
$LIMMAX
 10
420.0
 20
297.0
  9
$ORTHOMODE
 70
0
  9
$REGENMODE
 70
1
  9
$FILLMODE
 70
1
  9
$QTEXTMODE
 70
0
  9
$MIRRTEXT
 70
1
  9
$LTSCALE
 40
1.0
  9
$ATTMODE
 70
1
  9
$TEXTSIZE
 40
2.5
  9
$TRACEWID
 40
1.0
  9
$TEXTSTYLE
  7
Standard
  9
$CLAYER
  8
0
  9
$CELTYPE
  6
ByLayer
  9
$CECOLOR
 62
256
  9
$CELTSCALE
 40
1.0
  9
$DISPSILH
 70
0
  9
$DIMSCALE
 40
1.0
  9
$DIMASZ
 40
2.5
  9
$DIMEXO
 40
0.625
  9
$DIMDLI
 40
3.75
  9
$DIMRND
 40
0.0
  9
$DIMDLE
 40
0.0
  9
$DIMEXE
 40
1.25
  9
$DIMTP
 40
0.0
  9
$DIMTM
 40
0.0
  9
$DIMTXT
 40
2.5
  9
$DIMCEN
 40
2.5
  9
$DIMTSZ
 40
0.0
  9
$DIMTOL
 70
0
  9
$DIMLIM
 70
0
  9
$DIMTIH
 70
0
  9
$DIMTOH
 70
0
  9
$DIMSE1
 70
0
  9
$DIMSE2
 70
0
  9
$DIMTAD
 70
1
  9
$DIMZIN
 70
8
  9
$DIMBLK
  1

  9
$DIMASO
 70
1
  9
$DIMSHO
 70
1
  9
$DIMPOST
  1

  9
$DIMAPOST
  1

  9
$DIMALT
 70
0
  9
$DIMALTD
 70
3
  9
$DIMALTF
 40
0.03937007874
  9
$DIMLFAC
 40
1.0
  9
$DIMTOFL
 70
1
  9
$DIMTVP
 40
0.0
  9
$DIMTIX
 70
0
  9
$DIMSOXD
 70
0
  9
$DIMSAH
 70
0
  9
$DIMBLK1
  1

  9
$DIMBLK2
  1

  9
$DIMSTYLE
  2
ISO-25
  9
$DIMCLRD
 70
0
  9
$DIMCLRE
 70
0
  9
$DIMCLRT
 70
0
  9
$DIMTFAC
 40
1.0
  9
$DIMGAP
 40
0.625
  9
$DIMJUST
 70
0
  9
$DIMSD1
 70
0
  9
$DIMSD2
 70
0
  9
$DIMTOLJ
 70
0
  9
$DIMTZIN
 70
8
  9
$DIMALTZ
 70
0
  9
$DIMALTTZ
 70
0
  9
$DIMUPT
 70
0
  9
$DIMDEC
 70
2
  9
$DIMTDEC
 70
2
  9
$DIMALTU
 70
2
  9
$DIMALTTD
 70
3
  9
$DIMTXSTY
  7
Standard
  9
$DIMAUNIT
 70
0
  9
$DIMADEC
 70
0
  9
$DIMALTRND
 40
0.0
  9
$DIMAZIN
 70
0
  9
$DIMDSEP
 70
44
  9
$DIMATFIT
 70
3
  9
$DIMFRAC
 70
0
  9
$DIMLDRBLK
  1

  9
$DIMLUNIT
 70
2
  9
$DIMLWD
 70
-2
  9
$DIMLWE
 70
-2
  9
$DIMTMOVE
 70
0
  9
$DIMFXL
 40
1.0
  9
$DIMFXLON
 70
0
  9
$DIMJOGANG
 40
0.785398163397
  9
$DIMTFILL
 70
0
  9
$DIMTFILLCLR
 70
0
  9
$DIMARCSYM
 70
0
  9
$DIMLTYPE
  6

  9
$DIMLTEX1
  6

  9
$DIMLTEX2
  6

  9
$DIMTXTDIRECTION
 70
0
  9
$LUNITS
 70
2
  9
$LUPREC
 70
4
  9
$SKETCHINC
 40
1.0
  9
$FILLETRAD
 40
10.0
  9
$AUNITS
 70
0
  9
$AUPREC
 70
2
  9
$MENU
  1
.
  9
$ELEVATION
 40
0.0
  9
$PELEVATION
 40
0.0
  9
$THICKNESS
 40
0.0
  9
$LIMCHECK
 70
0
  9
$CHAMFERA
 40
0.0
  9
$CHAMFERB
 40
0.0
  9
$CHAMFERC
 40
0.0
  9
$CHAMFERD
 40
0.0
  9
$SKPOLY
 70
0
  9
$TDCREATE
 40
2460827.8678819444
  9
$TDUCREATE
 40
2458532.153996898
  9
$TDUPDATE
 40
2460827.8678819444
  9
$TDUUPDATE
 40
2458532.1544311
  9
$TDINDWG
 40
0.0
  9
$TDUSRTIMER
 40
0.0
  9
$USRTIMER
 70
1
  9
$ANGBASE
 50
0.0
  9
$ANGDIR
 70
0
  9
$PDMODE
 70
0
  9
$PDSIZE
 40
0.0
  9
$PLINEWID
 40
0.0
  9
$SPLFRAME
 70
0
  9
$SPLINETYPE
 70
6
  9
$SPLINESEGS
 70
8
  9
$HANDSEED
  5
18A
  9
$SURFTAB1
 70
6
  9
$SURFTAB2
 70
6
  9
$SURFTYPE
 70
6
  9
$SURFU
 70
6
  9
$SURFV
 70
6
  9
$UCSBASE
  2

  9
$UCSNAME
  2

  9
$UCSORG
 10
0.0
 20
0.0
 30
0.0
  9
$UCSXDIR
 10
1.0
 20
0.0
 30
0.0
  9
$UCSYDIR
 10
0.0
 20
1.0
 30
0.0
  9
$UCSORTHOREF
  2

  9
$UCSORTHOVIEW
 70
0
  9
$UCSORGTOP
 10
0.0
 20
0.0
 30
0.0
  9
$UCSORGBOTTOM
 10
0.0
 20
0.0
 30
0.0
  9
$UCSORGLEFT
 10
0.0
 20
0.0
 30
0.0
  9
$UCSORGRIGHT
 10
0.0
 20
0.0
 30
0.0
  9
$UCSORGFRONT
 10
0.0
 20
0.0
 30
0.0
  9
$UCSORGBACK
 10
0.0
 20
0.0
 30
0.0
  9
$PUCSBASE
  2

  9
$PUCSNAME
  2

  9
$PUCSORG
 10
0.0
 20
0.0
 30
0.0
  9
$PUCSXDIR
 10
1.0
 20
0.0
 30
0.0
  9
$PUCSYDIR
 10
0.0
 20
1.0
 30
0.0
  9
$PUCSORTHOREF
  2

  9
$PUCSORTHOVIEW
 70
0
  9
$PUCSORGTOP
 10
0.0
 20
0.0
 30
0.0
  9
$PUCSORGBOTTOM
 10
0.0
 20
0.0
 30
0.0
  9
$PUCSORGLEFT
 10
0.0
 20
0.0
 30
0.0
  9
$PUCSORGRIGHT
 10
0.0
 20
0.0
 30
0.0
  9
$PUCSORGFRONT
 10
0.0
 20
0.0
 30
0.0
  9
$PUCSORGBACK
 10
0.0
 20
0.0
 30
0.0
  9
$USERI1
 70
0
  9
$USERI2
 70
0
  9
$USERI3
 70
0
  9
$USERI4
 70
0
  9
$USERI5
 70
0
  9
$USERR1
 40
0.0
  9
$USERR2
 40
0.0
  9
$USERR3
 40
0.0
  9
$USERR4
 40
0.0
  9
$USERR5
 40
0.0
  9
$WORLDVIEW
 70
1
  9
$SHADEDGE
 70
3
  9
$SHADEDIF
 70
70
  9
$TILEMODE
 70
1
  9
$MAXACTVP
 70
64
  9
$PINSBASE
 10
0.0
 20
0.0
 30
0.0
  9
$PLIMCHECK
 70
0
  9
$PEXTMIN
 10
1e+20
 20
1e+20
 30
1e+20
  9
$PEXTMAX
 10
-1e+20
 20
-1e+20
 30
-1e+20
  9
$PLIMMIN
 10
0.0
 20
0.0
  9
$PLIMMAX
 10
420.0
 20
297.0
  9
$UNITMODE
 70
0
  9
$VISRETAIN
 70
1
  9
$PLINEGEN
 70
0
  9
$PSLTSCALE
 70
1
  9
$TREEDEPTH
 70
3020
  9
$CMLSTYLE
  2
Standard
  9
$CMLJUST
 70
0
  9
$CMLSCALE
 40
20.0
  9
$PROXYGRAPHICS
 70
1
  9
$MEASUREMENT
 70
1
  9
$CELWEIGHT
370
-1
  9
$ENDCAPS
280
0
  9
$JOINSTYLE
280
0
  9
$LWDISPLAY
290
0
  9
$INSUNITS
 70
6
  9
$HYPERLINKBASE
  1

  9
$STYLESHEET
  1

  9
$XEDIT
290
1
  9
$CEPSNTYPE
380
0
  9
$PSTYLEMODE
290
1
  9
$FINGERPRINTGUID
  2
{07A0097F-FAEE-4AD0-AFFA-0F80D18327BF}
  9
$VERSIONGUID
  2
{5CB6B5EC-A031-4521-AF6D-DEBD451D8138}
  9
$EXTNAMES
290
1
  9
$PSVPSCALE
 40
0.0
  9
$OLESTARTUP
290
0
  9
$SORTENTS
280
127
  9
$INDEXCTL
280
0
  9
$HIDETEXT
280
1
  9
$XCLIPFRAME
280
1
  9
$HALOGAP
280
0
  9
$OBSCOLOR
 70
257
  9
$OBSLTYPE
280
0
  9
$INTERSECTIONDISPLAY
280
0
  9
$INTERSECTIONCOLOR
 70
257
  9
$DIMASSOC
280
2
  9
$PROJECTNAME
  1

  9
$CAMERADISPLAY
290
0
  9
$LENSLENGTH
 40
50.0
  9
$CAMERAHEIGHT
 40
0.0
  9
$STEPSPERSEC
 40
24.0
  9
$STEPSIZE
 40
100.0
  9
$3DDWFPREC
 40
2.0
  9
$PSOLWIDTH
 40
0.005
  9
$PSOLHEIGHT
 40
0.08
  9
$LOFTANG1
 40
1.570796326795
  9
$LOFTANG2
 40
1.570796326795
  9
$LOFTMAG1
 40
0.0
  9
$LOFTMAG2
 40
0.0
  9
$LOFTPARAM
 70
7
  9
$LOFTNORMALS
280
1
  9
$LATITUDE
 40
37.795
  9
$LONGITUDE
 40
-122.394
  9
$NORTHDIRECTION
 40
0.0
  9
$TIMEZONE
 70
-8000
  9
$LIGHTGLYPHDISPLAY
280
1
  9
$TILEMODELIGHTSYNCH
280
1
  9
$CMATERIAL
347
20
  9
$SOLIDHIST
280
0
  9
$SHOWHIST
280
1
  9
$DWFFRAME
280
2
  9
$DGNFRAME
280
2
  9
$REALWORLDSCALE
290
1
  9
$INTERFERECOLOR
 62
256
  9
$CSHADOW
280
0
  9
$SHADOWPLANELOCATION
 40
0.0
  0
ENDSEC
  0
SECTION
  2
CLASSES
  0
CLASS
  1
ACDBDICTIONARYWDFLT
  2
AcDbDictionaryWithDefault
  3
ObjectDBX Classes
 90
0
 91
0
280
0
281
0
  0
CLASS
  1
SUN
  2
AcDbSun
  3
SCENEOE
 90
1153
 91
0
280
0
281
0
  0
CLASS
  1
VISUALSTYLE
  2
AcDbVisualStyle
  3
ObjectDBX Classes
 90
4095
 91
0
280
0
281
0
  0
CLASS
  1
MATERIAL
  2
AcDbMaterial
  3
ObjectDBX Classes
 90
1153
 91
0
280
0
281
0
  0
CLASS
  1
SCALE
  2
AcDbScale
  3
ObjectDBX Classes
 90
1153
 91
0
280
0
281
0
  0
CLASS
  1
TABLESTYLE
  2
AcDbTableStyle
  3
ObjectDBX Classes
 90
4095
 91
0
280
0
281
0
  0
CLASS
  1
MLEADERSTYLE
  2
AcDbMLeaderStyle
  3
ACDB_MLEADERSTYLE_CLASS
 90
4095
 91
0
280
0
281
0
  0
CLASS
  1
DICTIONARYVAR
  2
AcDbDictionaryVar
  3
ObjectDBX Classes
 90
0
 91
0
280
0
281
0
  0
CLASS
  1
CELLSTYLEMAP
  2
AcDbCellStyleMap
  3
ObjectDBX Classes
 90
1152
 91
0
280
0
281
0
  0
CLASS
  1
MENTALRAYRENDERSETTINGS
  2
AcDbMentalRayRenderSettings
  3
SCENEOE
 90
1024
 91
0
280
0
281
0
  0
CLASS
  1
ACDBDETAILVIEWSTYLE
  2
AcDbDetailViewStyle
  3
ObjectDBX Classes
 90
1025
 91
0
280
0
281
0
  0
CLASS
  1
ACDBSECTIONVIEWSTYLE
  2
AcDbSectionViewStyle
  3
ObjectDBX Classes
 90
1025
 91
0
280
0
281
0
  0
CLASS
  1
RASTERVARIABLES
  2
AcDbRasterVariables
  3
ISM
 90
0
 91
0
280
0
281
0
  0
CLASS
  1
LAYOUT
  2
AcDbLayout
  3
ObjectDBX Classes
 90
0
 91
0
280
0
281
0
  0
CLASS
  1
ACDBPLACEHOLDER
  2
AcDbPlaceHolder
  3
ObjectDBX Classes
 90
0
 91
0
280
0
281
0
  0
ENDSEC
  0
SECTION
  2
TABLES
  0
TABLE
  2
VPORT
  5
8
330
0
100
AcDbSymbolTable
 70
1
  0
VPORT
  5
23
330
8
100
AcDbSymbolTableRecord
100
AcDbViewportTableRecord
  2
*Active
 70
0
 10
0.0
 20
0.0
 11
1.0
 21
1.0
 12
0.0
 22
0.0
 13
0.0
 23
0.0
 14
0.5
 24
0.5
 15
0.5
 25
0.5
 16
0.0
 26
0.0
 36
1.0
 17
0.0
 27
0.0
 37
0.0
 40
1000.0
 41
1.34
 42
50.0
 43
0.0
 44
0.0
 50
0.0
 51
0.0
 71
0
 72
1000
 73
1
 74
3
 75
0
 76
0
 77
0
 78
0
281
0
 65
0
146
0.0
  0
ENDTAB
  0
TABLE
  2
LTYPE
  5
2
330
0
100
AcDbSymbolTable
 70
3
  0
LTYPE
  5
24
330
2
100
AcDbSymbolTableRecord
100
AcDbLinetypeTableRecord
  2
ByBlock
 70
0
  3

 72
65
 73
0
 40
0.0
  0
LTYPE
  5
25
330
2
100
AcDbSymbolTableRecord
100
AcDbLinetypeTableRecord
  2
ByLayer
 70
0
  3

 72
65
 73
0
 40
0.0
  0
LTYPE
  5
26
330
2
100
AcDbSymbolTableRecord
100
AcDbLinetypeTableRecord
  2
Continuous
 70
0
  3

 72
65
 73
0
 40
0.0
  0
ENDTAB
  0
TABLE
  2
LAYER
  5
1
330
0
100
AcDbSymbolTable
 70
2
  0
LAYER
  5
27
330
1
100
AcDbSymbolTableRecord
100
AcDbLayerTableRecord
  2
0
 70
0
 62
7
  6
Continuous
370
-3
390
13
347
21
  0
LAYER
  5
28
330
1
100
AcDbSymbolTableRecord
100
AcDbLayerTableRecord
  2
Defpoints
 70
0
 62
7
  6
Continuous
290
0
370
-3
390
13
347
21
  0
ENDTAB
  0
TABLE
  2
STYLE
  5
5
330
0
100
AcDbSymbolTable
 70
1
  0
STYLE
  5
29
330
5
100
AcDbSymbolTableRecord
100
AcDbTextStyleTableRecord
  2
Standard
 70
0
 40
0.0
 41
1.0
 50
0.0
 71
0
 42
2.5
  3
txt
  4

  0
ENDTAB
  0
TABLE
  2
VIEW
  5
7
330
0
100
AcDbSymbolTable
 70
0
  0
ENDTAB
  0
TABLE
  2
UCS
  5
6
330
0
100
AcDbSymbolTable
 70
0
  0
ENDTAB
  0
TABLE
  2
APPID
  5
3
330
0
100
AcDbSymbolTable
 70
3
  0
APPID
  5
2A
330
3
100
AcDbSymbolTableRecord
100
AcDbRegAppTableRecord
  2
ACAD
 70
0
  0
APPID
  5
187
330
3
100
AcDbSymbolTableRecord
100
AcDbRegAppTableRecord
  2
HATCHBACKGROUNDCOLOR
 70
0
  0
APPID
  5
188
330
3
100
AcDbSymbolTableRecord
100
AcDbRegAppTableRecord
  2
EZDXF
 70
0
  0
ENDTAB
  0
TABLE
  2
DIMSTYLE
  5
4
330
0
100
AcDbSymbolTable
 70
1
100
AcDbDimStyleTable
  0
DIMSTYLE
105
2B
330
4
100
AcDbSymbolTableRecord
100
AcDbDimStyleTableRecord
  2
Standard
 70
0
 40
1.0
 41
2.5
 42
0.625
 43
3.75
 44
1.25
 45
0.0
 46
0.0
 47
0.0
 48
0.0
 49
2.5
140
2.5
141
2.5
142
0.0
143
0.03937007874
144
1.0
145
0.0
146
1.0
147
0.625
148
0.0
 69
0
 70
0
 71
0
 72
0
 73
0
 74
0
 75
0
 76
0
 77
1
 78
8
 79
3
170
0
171
3
172
1
173
0
174
0
175
0
176
0
177
0
178
0
179
2
271
2
272
2
273
2
274
3
275
0
276
0
277
2
278
44
279
0
280
0
281
0
282
0
283
0
284
8
285
0
286
0
288
0
289
3
290
0
371
-2
372
-2
  0
ENDTAB
  0
TABLE
  2
BLOCK_RECORD
  5
9
330
0
100
AcDbSymbolTable
 70
2
  0
BLOCK_RECORD
  5
17
330
9
100
AcDbSymbolTableRecord
100
AcDbBlockTableRecord
  2
*Model_Space
340
1A
 70
0
280
1
281
0
  0
BLOCK_RECORD
  5
1B
330
9
100
AcDbSymbolTableRecord
100
AcDbBlockTableRecord
  2
*Paper_Space
340
1E
 70
0
280
1
281
0
  0
ENDTAB
  0
ENDSEC
  0
SECTION
  2
BLOCKS
  0
BLOCK
  5
18
330
17
100
AcDbEntity
  8
0
100
AcDbBlockBegin
  2
*Model_Space
 70
0
 10
0.0
 20
0.0
 30
0.0
  3
*Model_Space
  1

  0
ENDBLK
  5
19
330
17
100
AcDbEntity
  8
0
100
AcDbBlockEnd
  0
BLOCK
  5
1C
330
1B
100
AcDbEntity
  8
0
100
AcDbBlockBegin
  2
*Paper_Space
 70
0
 10
0.0
 20
0.0
 30
0.0
  3
*Paper_Space
  1

  0
ENDBLK
  5
1D
330
1B
100
AcDbEntity
  8
0
100
AcDbBlockEnd
  0
ENDSEC
  0
SECTION
  2
ENTITIES
  0
LINE
  5
2F
330
17
100
AcDbEntity
  8
0
100
AcDbLine
 10
404.0
 20
-619.0299682617188
 30
0.0
 11
404.0
 21
-629.0299682617188
 31
0.0
  0
LINE
  5
30
330
17
100
AcDbEntity
  8
0
100
AcDbLine
 10
317.0
 20
-582.0299682617188
 30
0.0
 11
297.0
 21
-582.0299682617188
 31
0.0
  0
LINE
  5
31
330
17
100
AcDbEntity
  8
0
100
AcDbLine
 10
404.0
 20
-629.0299682617188
 30
0.0
 11
297.0
 21
-629.0299682617188
 31
0.0
  0
LINE
  5
32
330
17
100
AcDbEntity
  8
0
100
AcDbLine
 10
384.0
 20
-579.0299682617188
 30
0.0
 11
384.0
 21
-582.0299682617188
 31
0.0
  0
LINE
  5
33
330
17
100
AcDbEntity
  8
0
100
AcDbLine
 10
297.0
 20
-629.0299682617188
 30
0.0
 11
297.0
 21
-619.0299682617188
 31
0.0
  0
LINE
  5
34
330
17
100
AcDbEntity
  8
0
100
AcDbLine
 10
404.0
 20
-582.0299682617188
 30
0.0
 11
404.0
 21
-589.0299682617188
 31
0.0
  0
LINE
  5
35
330
17
100
AcDbEntity
  8
0
100
AcDbLine
 10
294.0
 20
-619.0299682617188
 30
0.0
 11
294.0
 21
-589.0299682617188
 31
0.0
  0
LINE
  5
36
330
17
100
AcDbEntity
  8
0
100
AcDbLine
 10
294.0
 20
-619.0299682617188
 30
0.0
 11
297.0
 21
-619.0299682617188
 31
0.0
  0
LINE
  5
37
330
17
100
AcDbEntity
  8
0
100
AcDbLine
 10
297.0
 20
-589.0299682617188
 30
0.0
 11
294.0
 21
-589.0299682617188
 31
0.0
  0
LINE
  5
38
330
17
100
AcDbEntity
  8
0
100
AcDbLine
 10
407.0
 20
-589.0299682617188
 30
0.0
 11
407.0
 21
-619.0299682617188
 31
0.0
  0
LINE
  5
39
330
17
100
AcDbEntity
  8
0
100
AcDbLine
 10
404.0
 20
-619.0299682617188
 30
0.0
 11
407.0
 21
-619.0299682617188
 31
0.0
  0
LINE
  5
3A
330
17
100
AcDbEntity
  8
0
100
AcDbLine
 10
407.0
 20
-589.0299682617188
 30
0.0
 11
404.0
 21
-589.0299682617188
 31
0.0
  0
LINE
  5
3B
330
17
100
AcDbEntity
  8
0
100
AcDbLine
 10
404.0
 20
-582.0299682617188
 30
0.0
 11
384.0
 21
-582.0299682617188
 31
0.0
  0
LINE
  5
3C
330
17
100
AcDbEntity
  8
0
100
AcDbLine
 10
384.0
 20
-579.0299682617188
 30
0.0
 11
317.0
 21
-579.0299682617188
 31
0.0
  0
LINE
  5
3D
330
17
100
AcDbEntity
  8
0
100
AcDbLine
 10
317.0
 20
-579.0299682617188
 30
0.0
 11
317.0
 21
-582.0299682617188
 31
0.0
  0
LINE
  5
3E
330
17
100
AcDbEntity
  8
0
100
AcDbLine
 10
297.0
 20
-582.0299682617188
 30
0.0
 11
297.0
 21
-589.0299682617188
 31
0.0
  0
LINE
  5
3F
330
17
100
AcDbEntity
  8
0
100
AcDbLine
 10
410.0
 20
-589.0
 30
0.0
 11
410.0
 21
-528.0
 31
0.0
  0
LINE
  5
40
330
17
100
AcDbEntity
  8
0
100
AcDbLine
 10
480.5
 20
-589.0
 30
0.0
 11
480.5
 21
-612.0
 31
0.0
  0
LINE
  5
41
330
17
100
AcDbEntity
  8
0
100
AcDbLine
 10
515.0
 20
-528.0
 30
0.0
 11
515.0
 21
-589.0
 31
0.0
  0
LINE
  5
42
330
17
100
AcDbEntity
  8
0
100
AcDbLine
 10
444.5
 20
-528.0
 30
0.0
 11
452.5
 21
-538.0
 31
0.0
  0
LINE
  5
43
330
17
100
AcDbEntity
  8
0
100
AcDbLine
 10
452.5
 20
-538.0
 30
0.0
 11
472.5
 21
-538.0
 31
0.0
  0
LINE
  5
44
330
17
100
AcDbEntity
  8
0
100
AcDbLine
 10
480.5
 20
-528.0
 30
0.0
 11
472.5
 21
-538.0
 31
0.0
  0
LINE
  5
45
330
17
100
AcDbEntity
  8
0
100
AcDbLine
 10
441.5
 20
-528.0
 30
0.0
 11
444.5
 21
-528.0
 31
0.0
  0
LINE
  5
46
330
17
100
AcDbEntity
  8
0
100
AcDbLine
 10
515.0
 20
-528.0
 30
0.0
 11
503.0
 21
-528.0
 31
0.0
  0
LINE
  5
47
330
17
100
AcDbEntity
  8
0
100
AcDbLine
 10
447.5
 20
-615.0
 30
0.0
 11
477.5
 21
-615.0
 31
0.0
  0
LINE
  5
48
330
17
100
AcDbEntity
  8
0
100
AcDbLine
 10
444.5
 20
-612.0
 30
0.0
 11
444.5
 21
-589.0
 31
0.0
  0
LINE
  5
49
330
17
100
AcDbEntity
  8
0
100
AcDbLine
 10
480.4248046875
 20
-612.6675415039062
 30
0.0
 11
480.202880859375
 21
-613.3016357421875
 31
0.0
  0
LINE
  5
4A
330
17
100
AcDbEntity
  8
0
100
AcDbLine
 10
480.202880859375
 20
-613.3016357421875
 30
0.0
 11
479.84552001953125
 21
-613.8704833984375
 31
0.0
  0
LINE
  5
4B
330
17
100
AcDbEntity
  8
0
100
AcDbLine
 10
479.84552001953125
 20
-613.8704833984375
 30
0.0
 11
479.3704833984375
 21
-614.345458984375
 31
0.0
  0
LINE
  5
4C
330
17
100
AcDbEntity
  8
0
100
AcDbLine
 10
479.3704833984375
 20
-614.345458984375
 30
0.0
 11
478.8016357421875
 21
-614.702880859375
 31
0.0
  0
LINE
  5
4D
330
17
100
AcDbEntity
  8
0
100
AcDbLine
 10
478.8016357421875
 20
-614.702880859375
 30
0.0
 11
478.16754150390625
 21
-614.9248046875
 31
0.0
  0
LINE
  5
4E
330
17
100
AcDbEntity
  8
0
100
AcDbLine
 10
444.5
 20
-612.0
 30
0.0
 11
444.5751953125
 21
-612.6675415039062
 31
0.0
  0
LINE
  5
4F
330
17
100
AcDbEntity
  8
0
100
AcDbLine
 10
444.5751953125
 20
-612.6675415039062
 30
0.0
 11
444.797119140625
 21
-613.3016357421875
 31
0.0
  0
LINE
  5
50
330
17
100
AcDbEntity
  8
0
100
AcDbLine
 10
444.797119140625
 20
-613.3016357421875
 30
0.0
 11
445.15447998046875
 21
-613.8704833984375
 31
0.0
  0
LINE
  5
51
330
17
100
AcDbEntity
  8
0
100
AcDbLine
 10
445.15447998046875
 20
-613.8704833984375
 30
0.0
 11
445.6295166015625
 21
-614.345458984375
 31
0.0
  0
LINE
  5
52
330
17
100
AcDbEntity
  8
0
100
AcDbLine
 10
445.6295166015625
 20
-614.345458984375
 30
0.0
 11
446.1983642578125
 21
-614.702880859375
 31
0.0
  0
LINE
  5
53
330
17
100
AcDbEntity
  8
0
100
AcDbLine
 10
446.1983642578125
 20
-614.702880859375
 30
0.0
 11
446.83245849609375
 21
-614.9248046875
 31
0.0
  0
LINE
  5
54
330
17
100
AcDbEntity
  8
0
100
AcDbLine
 10
480.5
 20
-612.0
 30
0.0
 11
480.4248046875
 21
-612.6675415039062
 31
0.0
  0
LINE
  5
55
330
17
100
AcDbEntity
  8
0
100
AcDbLine
 10
478.16754150390625
 20
-614.9248046875
 30
0.0
 11
477.5
 21
-615.0
 31
0.0
  0
LINE
  5
56
330
17
100
AcDbEntity
  8
0
100
AcDbLine
 10
446.83245849609375
 20
-614.9248046875
 30
0.0
 11
447.5
 21
-615.0
 31
0.0
  0
LINE
  5
57
330
17
100
AcDbEntity
  8
0
100
AcDbLine
 10
472.5
 20
-612.0
 30
0.0
 11
472.5
 21
-609.0
 31
0.0
  0
LINE
  5
58
330
17
100
AcDbEntity
  8
0
100
AcDbLine
 10
452.5
 20
-612.0
 30
0.0
 11
452.5
 21
-609.0
 31
0.0
  0
LINE
  5
59
330
17
100
AcDbEntity
  8
0
100
AcDbLine
 10
472.5
 20
-609.0
 30
0.0
 11
452.5
 21
-609.0
 31
0.0
  0
LINE
  5
5A
330
17
100
AcDbEntity
  8
0
100
AcDbLine
 10
452.5
 20
-612.0
 30
0.0
 11
472.5
 21
-612.0
 31
0.0
  0
LINE
  5
5B
330
17
100
AcDbEntity
  8
0
100
AcDbLine
 10
480.5
 20
-528.0
 30
0.0
 11
483.5
 21
-528.0
 31
0.0
  0
LINE
  5
5C
330
17
100
AcDbEntity
  8
0
100
AcDbLine
 10
422.0
 20
-508.0
 30
0.0
 11
441.5
 21
-508.0
 31
0.0
  0
LINE
  5
5D
330
17
100
AcDbEntity
  8
0
100
AcDbLine
 10
422.9754638671875
 20
-508.0960693359375
 30
0.0
 11
423.91339111328125
 21
-508.380615234375
 31
0.0
  0
LINE
  5
5E
330
17
100
AcDbEntity
  8
0
100
AcDbLine
 10
423.91339111328125
 20
-508.380615234375
 30
0.0
 11
424.77783203125
 21
-508.8426513671875
 31
0.0
  0
LINE
  5
5F
330
17
100
AcDbEntity
  8
0
100
AcDbLine
 10
424.77783203125
 20
-508.8426513671875
 30
0.0
 11
425.5355224609375
 21
-509.4644775390625
 31
0.0
  0
LINE
  5
60
330
17
100
AcDbEntity
  8
0
100
AcDbLine
 10
425.5355224609375
 20
-509.4644775390625
 30
0.0
 11
426.1573486328125
 21
-510.22216796875
 31
0.0
  0
LINE
  5
61
330
17
100
AcDbEntity
  8
0
100
AcDbLine
 10
426.1573486328125
 20
-510.22216796875
 30
0.0
 11
426.619384765625
 21
-511.0865783691406
 31
0.0
  0
LINE
  5
62
330
17
100
AcDbEntity
  8
0
100
AcDbLine
 10
426.619384765625
 20
-511.0865783691406
 30
0.0
 11
426.9039306640625
 21
-512.0245361328125
 31
0.0
  0
LINE
  5
63
330
17
100
AcDbEntity
  8
0
100
AcDbLine
 10
426.9039306640625
 20
-512.0245361328125
 30
0.0
 11
427.0
 21
-513.0
 31
0.0
  0
LINE
  5
64
330
17
100
AcDbEntity
  8
0
100
AcDbLine
 10
422.9754638671875
 20
-527.9039306640625
 30
0.0
 11
423.91339111328125
 21
-527.619384765625
 31
0.0
  0
LINE
  5
65
330
17
100
AcDbEntity
  8
0
100
AcDbLine
 10
423.91339111328125
 20
-527.619384765625
 30
0.0
 11
424.77783203125
 21
-527.1573486328125
 31
0.0
  0
LINE
  5
66
330
17
100
AcDbEntity
  8
0
100
AcDbLine
 10
424.77783203125
 20
-527.1573486328125
 30
0.0
 11
425.5355224609375
 21
-526.5355224609375
 31
0.0
  0
LINE
  5
67
330
17
100
AcDbEntity
  8
0
100
AcDbLine
 10
425.5355224609375
 20
-526.5355224609375
 30
0.0
 11
426.1573486328125
 21
-525.77783203125
 31
0.0
  0
LINE
  5
68
330
17
100
AcDbEntity
  8
0
100
AcDbLine
 10
426.1573486328125
 20
-525.77783203125
 30
0.0
 11
426.619384765625
 21
-524.9134521484375
 31
0.0
  0
LINE
  5
69
330
17
100
AcDbEntity
  8
0
100
AcDbLine
 10
426.619384765625
 20
-524.9134521484375
 30
0.0
 11
426.9039306640625
 21
-523.9754638671875
 31
0.0
  0
LINE
  5
6A
330
17
100
AcDbEntity
  8
0
100
AcDbLine
 10
422.0
 20
-508.0
 30
0.0
 11
422.9754638671875
 21
-508.0960693359375
 31
0.0
  0
LINE
  5
6B
330
17
100
AcDbEntity
  8
0
100
AcDbLine
 10
427.0
 20
-523.0
 30
0.0
 11
427.0
 21
-513.0
 31
0.0
  0
LINE
  5
6C
330
17
100
AcDbEntity
  8
0
100
AcDbLine
 10
422.0
 20
-528.0
 30
0.0
 11
422.9754638671875
 21
-527.9039306640625
 31
0.0
  0
LINE
  5
6D
330
17
100
AcDbEntity
  8
0
100
AcDbLine
 10
426.9039306640625
 20
-523.9754638671875
 30
0.0
 11
427.0
 21
-523.0
 31
0.0
  0
LINE
  5
6E
330
17
100
AcDbEntity
  8
0
100
AcDbLine
 10
483.5
 20
-508.0
 30
0.0
 11
483.5
 21
-528.0
 31
0.0
  0
LINE
  5
6F
330
17
100
AcDbEntity
  8
0
100
AcDbLine
 10
503.0
 20
-508.0
 30
0.0
 11
483.5
 21
-508.0
 31
0.0
  0
LINE
  5
70
330
17
100
AcDbEntity
  8
0
100
AcDbLine
 10
502.0245361328125
 20
-508.0960693359375
 30
0.0
 11
501.08660888671875
 21
-508.380615234375
 31
0.0
  0
LINE
  5
71
330
17
100
AcDbEntity
  8
0
100
AcDbLine
 10
501.08660888671875
 20
-508.380615234375
 30
0.0
 11
500.22216796875
 21
-508.8426513671875
 31
0.0
  0
LINE
  5
72
330
17
100
AcDbEntity
  8
0
100
AcDbLine
 10
500.22216796875
 20
-508.8426513671875
 30
0.0
 11
499.4644775390625
 21
-509.4644775390625
 31
0.0
  0
LINE
  5
73
330
17
100
AcDbEntity
  8
0
100
AcDbLine
 10
499.4644775390625
 20
-509.4644775390625
 30
0.0
 11
498.8426513671875
 21
-510.22216796875
 31
0.0
  0
LINE
  5
74
330
17
100
AcDbEntity
  8
0
100
AcDbLine
 10
498.8426513671875
 20
-510.22216796875
 30
0.0
 11
498.380615234375
 21
-511.0865783691406
 31
0.0
  0
LINE
  5
75
330
17
100
AcDbEntity
  8
0
100
AcDbLine
 10
498.380615234375
 20
-511.0865783691406
 30
0.0
 11
498.0960693359375
 21
-512.0245361328125
 31
0.0
  0
LINE
  5
76
330
17
100
AcDbEntity
  8
0
100
AcDbLine
 10
498.0960693359375
 20
-512.0245361328125
 30
0.0
 11
498.0
 21
-513.0
 31
0.0
  0
LINE
  5
77
330
17
100
AcDbEntity
  8
0
100
AcDbLine
 10
502.0245361328125
 20
-527.9039306640625
 30
0.0
 11
501.08660888671875
 21
-527.619384765625
 31
0.0
  0
LINE
  5
78
330
17
100
AcDbEntity
  8
0
100
AcDbLine
 10
501.08660888671875
 20
-527.619384765625
 30
0.0
 11
500.22216796875
 21
-527.1573486328125
 31
0.0
  0
LINE
  5
79
330
17
100
AcDbEntity
  8
0
100
AcDbLine
 10
500.22216796875
 20
-527.1573486328125
 30
0.0
 11
499.4644775390625
 21
-526.5355224609375
 31
0.0
  0
LINE
  5
7A
330
17
100
AcDbEntity
  8
0
100
AcDbLine
 10
499.4644775390625
 20
-526.5355224609375
 30
0.0
 11
498.8426513671875
 21
-525.77783203125
 31
0.0
  0
LINE
  5
7B
330
17
100
AcDbEntity
  8
0
100
AcDbLine
 10
498.8426513671875
 20
-525.77783203125
 30
0.0
 11
498.380615234375
 21
-524.9134521484375
 31
0.0
  0
LINE
  5
7C
330
17
100
AcDbEntity
  8
0
100
AcDbLine
 10
498.380615234375
 20
-524.9134521484375
 30
0.0
 11
498.0960693359375
 21
-523.9754638671875
 31
0.0
  0
LINE
  5
7D
330
17
100
AcDbEntity
  8
0
100
AcDbLine
 10
503.0
 20
-508.0
 30
0.0
 11
502.0245361328125
 21
-508.0960693359375
 31
0.0
  0
LINE
  5
7E
330
17
100
AcDbEntity
  8
0
100
AcDbLine
 10
498.0
 20
-523.0
 30
0.0
 11
498.0
 21
-513.0
 31
0.0
  0
LINE
  5
7F
330
17
100
AcDbEntity
  8
0
100
AcDbLine
 10
503.0
 20
-528.0
 30
0.0
 11
502.0245361328125
 21
-527.9039306640625
 31
0.0
  0
LINE
  5
80
330
17
100
AcDbEntity
  8
0
100
AcDbLine
 10
498.0960693359375
 20
-523.9754638671875
 30
0.0
 11
498.0
 21
-523.0
 31
0.0
  0
LINE
  5
81
330
17
100
AcDbEntity
  8
0
100
AcDbLine
 10
410.0
 20
-528.0
 30
0.0
 11
422.0
 21
-528.0
 31
0.0
  0
LINE
  5
82
330
17
100
AcDbEntity
  8
0
100
AcDbLine
 10
441.5
 20
-508.0
 30
0.0
 11
441.5
 21
-528.0
 31
0.0
  0
LINE
  5
83
330
17
100
AcDbEntity
  8
0
100
AcDbLine
 10
413.0
 20
-589.0
 30
0.0
 11
410.0
 21
-589.0
 31
0.0
  0
LINE
  5
84
330
17
100
AcDbEntity
  8
0
100
AcDbLine
 10
413.0
 20
-599.0
 30
0.0
 11
413.0
 21
-589.0
 31
0.0
  0
LINE
  5
85
330
17
100
AcDbEntity
  8
0
100
AcDbLine
 10
515.0
 20
-589.0
 30
0.0
 11
512.0
 21
-589.0
 31
0.0
  0
LINE
  5
86
330
17
100
AcDbEntity
  8
0
100
AcDbLine
 10
512.0
 20
-589.0
 30
0.0
 11
512.0
 21
-599.0
 31
0.0
  0
LINE
  5
87
330
17
100
AcDbEntity
  8
0
100
AcDbLine
 10
444.5
 20
-589.0
 30
0.0
 11
441.5
 21
-589.0
 31
0.0
  0
LINE
  5
88
330
17
100
AcDbEntity
  8
0
100
AcDbLine
 10
441.5
 20
-589.0
 30
0.0
 11
441.5
 21
-599.0
 31
0.0
  0
LINE
  5
89
330
17
100
AcDbEntity
  8
0
100
AcDbLine
 10
413.0
 20
-599.0
 30
0.0
 11
441.5
 21
-599.0
 31
0.0
  0
LINE
  5
8A
330
17
100
AcDbEntity
  8
0
100
AcDbLine
 10
480.5
 20
-589.0
 30
0.0
 11
483.5
 21
-589.0
 31
0.0
  0
LINE
  5
8B
330
17
100
AcDbEntity
  8
0
100
AcDbLine
 10
483.5
 20
-589.0
 30
0.0
 11
483.5
 21
-599.0
 31
0.0
  0
LINE
  5
8C
330
17
100
AcDbEntity
  8
0
100
AcDbLine
 10
512.0
 20
-599.0
 30
0.0
 11
483.5
 21
-599.0
 31
0.0
  0
LINE
  5
8D
330
17
100
AcDbEntity
  8
0
100
AcDbLine
 10
307.0
 20
-550.0
 30
0.0
 11
307.0
 21
-560.0
 31
0.0
  0
LINE
  5
8E
330
17
100
AcDbEntity
  8
0
100
AcDbLine
 10
310.0
 20
-550.0
 30
0.0
 11
307.0
 21
-550.0
 31
0.0
  0
LINE
  5
8F
330
17
100
AcDbEntity
  8
0
100
AcDbLine
 10
307.0
 20
-560.0
 30
0.0
 11
310.0
 21
-560.0
 31
0.0
  0
LINE
  5
90
330
17
100
AcDbEntity
  8
0
100
AcDbLine
 10
310.0
 20
-547.0
 30
0.0
 11
310.0
 21
-550.0
 31
0.0
  0
LINE
  5
91
330
17
100
AcDbEntity
  8
0
100
AcDbLine
 10
318.0
 20
-547.0
 30
0.0
 11
310.0
 21
-547.0
 31
0.0
  0
LINE
  5
92
330
17
100
AcDbEntity
  8
0
100
AcDbLine
 10
318.0
 20
-544.0
 30
0.0
 11
318.0
 21
-547.0
 31
0.0
  0
LINE
  5
93
330
17
100
AcDbEntity
  8
0
100
AcDbLine
 10
338.0
 20
-544.0
 30
0.0
 11
318.0
 21
-544.0
 31
0.0
  0
LINE
  5
94
330
17
100
AcDbEntity
  8
0
100
AcDbLine
 10
338.0
 20
-547.0
 30
0.0
 11
338.0
 21
-544.0
 31
0.0
  0
LINE
  5
95
330
17
100
AcDbEntity
  8
0
100
AcDbLine
 10
349.0
 20
-550.0
 30
0.0
 11
349.0
 21
-560.0
 31
0.0
  0
LINE
  5
96
330
17
100
AcDbEntity
  8
0
100
AcDbLine
 10
346.0
 20
-550.0
 30
0.0
 11
349.0
 21
-550.0
 31
0.0
  0
LINE
  5
97
330
17
100
AcDbEntity
  8
0
100
AcDbLine
 10
349.0
 20
-560.0
 30
0.0
 11
346.0
 21
-560.0
 31
0.0
  0
LINE
  5
98
330
17
100
AcDbEntity
  8
0
100
AcDbLine
 10
346.0
 20
-547.0
 30
0.0
 11
346.0
 21
-550.0
 31
0.0
  0
LINE
  5
99
330
17
100
AcDbEntity
  8
0
100
AcDbLine
 10
338.0
 20
-547.0
 30
0.0
 11
346.0
 21
-547.0
 31
0.0
  0
LINE
  5
9A
330
17
100
AcDbEntity
  8
0
100
AcDbLine
 10
346.0
 20
-560.0
 30
0.0
 11
346.0
 21
-563.0
 31
0.0
  0
LINE
  5
9B
330
17
100
AcDbEntity
  8
0
100
AcDbLine
 10
310.0
 20
-560.0
 30
0.0
 11
310.0
 21
-563.0
 31
0.0
  0
LINE
  5
9C
330
17
100
AcDbEntity
  8
0
100
AcDbLine
 10
310.0
 20
-563.0
 30
0.0
 11
318.0
 21
-563.0
 31
0.0
  0
LINE
  5
9D
330
17
100
AcDbEntity
  8
0
100
AcDbLine
 10
346.0
 20
-563.0
 30
0.0
 11
338.0
 21
-563.0
 31
0.0
  0
LINE
  5
9E
330
17
100
AcDbEntity
  8
0
100
AcDbLine
 10
318.0
 20
-563.0
 30
0.0
 11
318.0
 21
-566.0
 31
0.0
  0
LINE
  5
9F
330
17
100
AcDbEntity
  8
0
100
AcDbLine
 10
338.0
 20
-563.0
 30
0.0
 11
338.0
 21
-566.0
 31
0.0
  0
LINE
  5
A0
330
17
100
AcDbEntity
  8
0
100
AcDbLine
 10
318.0
 20
-566.0
 30
0.0
 11
338.0
 21
-566.0
 31
0.0
  0
LINE
  5
A1
330
17
100
AcDbEntity
  8
0
100
AcDbLine
 10
361.0
 20
-566.0
 30
0.0
 11
369.0
 21
-576.0
 31
0.0
  0
LINE
  5
A2
330
17
100
AcDbEntity
  8
0
100
AcDbLine
 10
369.0
 20
-576.0
 30
0.0
 11
389.0
 21
-576.0
 31
0.0
  0
LINE
  5
A3
330
17
100
AcDbEntity
  8
0
100
AcDbLine
 10
397.0
 20
-566.0
 30
0.0
 11
389.0
 21
-576.0
 31
0.0
  0
LINE
  5
A4
330
17
100
AcDbEntity
  8
0
100
AcDbLine
 10
361.0
 20
-543.0
 30
0.0
 11
361.0
 21
-566.0
 31
0.0
  0
LINE
  5
A5
330
17
100
AcDbEntity
  8
0
100
AcDbLine
 10
397.0
 20
-543.0
 30
0.0
 11
397.0
 21
-566.0
 31
0.0
  0
LINE
  5
A6
330
17
100
AcDbEntity
  8
0
100
AcDbLine
 10
361.0
 20
-543.0
 30
0.0
 11
397.0
 21
-543.0
 31
0.0
  0
LINE
  5
A7
330
17
100
AcDbEntity
  8
0
100
AcDbLine
 10
363.85955810546875
 20
-548.0
 30
0.0
 11
393.939208984375
 21
-548.0
 31
0.0
  0
LINE
  5
A8
330
17
100
AcDbEntity
  8
0
100
AcDbLine
 10
363.85955810546875
 20
-561.0465698242188
 30
0.0
 11
364.0572509765625
 21
-562.2274169921875
 31
0.0
  0
LINE
  5
A9
330
17
100
AcDbEntity
  8
0
100
AcDbLine
 10
364.0572509765625
 20
-562.2274169921875
 30
0.0
 11
364.59747314453125
 21
-563.4534912109375
 31
0.0
  0
LINE
  5
AA
330
17
100
AcDbEntity
  8
0
100
AcDbLine
 10
364.59747314453125
 20
-563.4534912109375
 30
0.0
 11
365.33538818359375
 21
-564.3963012695312
 31
0.0
  0
LINE
  5
AB
330
17
100
AcDbEntity
  8
0
100
AcDbLine
 10
363.85955810546875
 20
-561.0465698242188
 30
0.0
 11
363.85955810546875
 21
-548.0
 31
0.0
  0
LINE
  5
AC
330
17
100
AcDbEntity
  8
0
100
AcDbLine
 10
380.24932861328125
 20
-564.7162475585938
 30
0.0
 11
378.90362548828125
 21
-565.2955932617188
 31
0.0
  0
LINE
  5
AD
330
17
100
AcDbEntity
  8
0
100
AcDbLine
 10
378.90362548828125
 20
-565.2955932617188
 30
0.0
 11
377.2486572265625
 21
-565.833984375
 31
0.0
  0
LINE
  5
AE
330
17
100
AcDbEntity
  8
0
100
AcDbLine
 10
377.2486572265625
 20
-565.833984375
 30
0.0
 11
375.72784423828125
 21
-566.0310668945312
 31
0.0
  0
LINE
  5
AF
330
17
100
AcDbEntity
  8
0
100
AcDbLine
 10
370.37310791015625
 20
-566.0310668945312
 30
0.0
 11
368.841552734375
 21
-565.8496704101562
 31
0.0
  0
LINE
  5
B0
330
17
100
AcDbEntity
  8
0
100
AcDbLine
 10
368.841552734375
 20
-565.8496704101562
 30
0.0
 11
367.1572265625
 21
-565.3541259765625
 31
0.0
  0
LINE
  5
B1
330
17
100
AcDbEntity
  8
0
100
AcDbLine
 10
367.1572265625
 20
-565.3541259765625
 30
0.0
 11
365.771484375
 21
-564.6771850585938
 31
0.0
  0
LINE
  5
B2
330
17
100
AcDbEntity
  8
0
100
AcDbLine
 10
380.24932861328125
 20
-564.7162475585938
 30
0.0
 11
386.66668701171875
 21
-561.890625
 31
0.0
  0
LINE
  5
B3
330
17
100
AcDbEntity
  8
0
100
AcDbLine
 10
375.72784423828125
 20
-566.0310668945312
 30
0.0
 11
370.37310791015625
 21
-566.0310668945312
 31
0.0
  0
LINE
  5
B4
330
17
100
AcDbEntity
  8
0
100
AcDbLine
 10
365.771484375
 20
-564.6771850585938
 30
0.0
 11
365.33538818359375
 21
-564.3963012695312
 31
0.0
  0
LINE
  5
B5
330
17
100
AcDbEntity
  8
0
100
AcDbLine
 10
391.8875732421875
 20
-561.4517822265625
 30
0.0
 11
391.3043212890625
 21
-561.6712036132812
 31
0.0
  0
LINE
  5
B6
330
17
100
AcDbEntity
  8
0
100
AcDbLine
 10
391.3043212890625
 20
-561.6712036132812
 30
0.0
 11
390.609375
 21
-561.831787109375
 31
0.0
  0
LINE
  5
B7
330
17
100
AcDbEntity
  8
0
100
AcDbLine
 10
390.609375
 20
-561.831787109375
 30
0.0
 11
389.989013671875
 21
-561.890625
 31
0.0
  0
LINE
  5
B8
330
17
100
AcDbEntity
  8
0
100
AcDbLine
 10
389.989013671875
 20
-561.890625
 30
0.0
 11
386.66668701171875
 21
-561.890625
 31
0.0
  0
LINE
  5
B9
330
17
100
AcDbEntity
  8
0
100
AcDbLine
 10
393.939208984375
 20
-559.4498291015625
 30
0.0
 11
393.81878662109375
 21
-560.0086669921875
 31
0.0
  0
LINE
  5
BA
330
17
100
AcDbEntity
  8
0
100
AcDbLine
 10
393.81878662109375
 20
-560.0086669921875
 30
0.0
 11
393.4898681640625
 21
-560.5352783203125
 31
0.0
  0
LINE
  5
BB
330
17
100
AcDbEntity
  8
0
100
AcDbLine
 10
393.4898681640625
 20
-560.5352783203125
 30
0.0
 11
393.04058837890625
 21
-560.888671875
 31
0.0
  0
LINE
  5
BC
330
17
100
AcDbEntity
  8
0
100
AcDbLine
 10
393.939208984375
 20
-559.4498291015625
 30
0.0
 11
393.939208984375
 21
-548.0
 31
0.0
  0
LINE
  5
BD
330
17
100
AcDbEntity
  8
0
100
AcDbLine
 10
393.04058837890625
 20
-560.888671875
 30
0.0
 11
391.8875732421875
 21
-561.4517822265625
 31
0.0
  0
LINE
  5
BE
330
17
100
AcDbEntity
  8
0
100
AcDbLine
 10
333.0
 20
-511.0
 30
0.0
 11
333.0
 21
-508.0
 31
0.0
  0
LINE
  5
BF
330
17
100
AcDbEntity
  8
0
100
AcDbLine
 10
310.5
 20
-511.0
 30
0.0
 11
333.0
 21
-511.0
 31
0.0
  0
LINE
  5
C0
330
17
100
AcDbEntity
  8
0
100
AcDbLine
 10
305.5960693359375
 20
-515.0245361328125
 30
0.0
 11
305.5
 21
-516.0
 31
0.0
  0
LINE
  5
C1
330
17
100
AcDbEntity
  8
0
100
AcDbLine
 10
310.5
 20
-511.0
 30
0.0
 11
309.5245361328125
 21
-511.0960693359375
 31
0.0
  0
LINE
  5
C2
330
17
100
AcDbEntity
  8
0
100
AcDbLine
 10
305.5
 20
-526.0
 30
0.0
 11
305.5
 21
-516.0
 31
0.0
  0
LINE
  5
C3
330
17
100
AcDbEntity
  8
0
100
AcDbLine
 10
309.5245361328125
 20
-511.0960693359375
 30
0.0
 11
308.58660888671875
 21
-511.380615234375
 31
0.0
  0
LINE
  5
C4
330
17
100
AcDbEntity
  8
0
100
AcDbLine
 10
308.58660888671875
 20
-511.380615234375
 30
0.0
 11
307.72216796875
 21
-511.8426513671875
 31
0.0
  0
LINE
  5
C5
330
17
100
AcDbEntity
  8
0
100
AcDbLine
 10
307.72216796875
 20
-511.8426513671875
 30
0.0
 11
306.9644775390625
 21
-512.4644775390625
 31
0.0
  0
LINE
  5
C6
330
17
100
AcDbEntity
  8
0
100
AcDbLine
 10
306.9644775390625
 20
-512.4644775390625
 30
0.0
 11
306.3426513671875
 21
-513.22216796875
 31
0.0
  0
LINE
  5
C7
330
17
100
AcDbEntity
  8
0
100
AcDbLine
 10
306.3426513671875
 20
-513.22216796875
 30
0.0
 11
305.880615234375
 21
-514.0865478515625
 31
0.0
  0
LINE
  5
C8
330
17
100
AcDbEntity
  8
0
100
AcDbLine
 10
305.880615234375
 20
-514.0865478515625
 30
0.0
 11
305.5960693359375
 21
-515.0245361328125
 31
0.0
  0
LINE
  5
C9
330
17
100
AcDbEntity
  8
0
100
AcDbLine
 10
305.5
 20
-526.0
 30
0.0
 11
305.5960693359375
 21
-526.9754638671875
 31
0.0
  0
LINE
  5
CA
330
17
100
AcDbEntity
  8
0
100
AcDbLine
 10
305.5960693359375
 20
-526.9754638671875
 30
0.0
 11
305.880615234375
 21
-527.9134521484375
 31
0.0
  0
LINE
  5
CB
330
17
100
AcDbEntity
  8
0
100
AcDbLine
 10
305.880615234375
 20
-527.9134521484375
 30
0.0
 11
306.3426513671875
 21
-528.77783203125
 31
0.0
  0
LINE
  5
CC
330
17
100
AcDbEntity
  8
0
100
AcDbLine
 10
306.3426513671875
 20
-528.77783203125
 30
0.0
 11
306.9644775390625
 21
-529.5355224609375
 31
0.0
  0
LINE
  5
CD
330
17
100
AcDbEntity
  8
0
100
AcDbLine
 10
306.9644775390625
 20
-529.5355224609375
 30
0.0
 11
307.72216796875
 21
-530.1573486328125
 31
0.0
  0
LINE
  5
CE
330
17
100
AcDbEntity
  8
0
100
AcDbLine
 10
307.72216796875
 20
-530.1573486328125
 30
0.0
 11
308.58660888671875
 21
-530.619384765625
 31
0.0
  0
LINE
  5
CF
330
17
100
AcDbEntity
  8
0
100
AcDbLine
 10
308.58660888671875
 20
-530.619384765625
 30
0.0
 11
309.5245361328125
 21
-530.9039306640625
 31
0.0
  0
LINE
  5
D0
330
17
100
AcDbEntity
  8
0
100
AcDbLine
 10
309.5245361328125
 20
-530.9039306640625
 30
0.0
 11
310.5
 21
-531.0
 31
0.0
  0
LINE
  5
D1
330
17
100
AcDbEntity
  8
0
100
AcDbLine
 10
309.91473388671875
 20
-518.0576171875
 30
0.0
 11
310.5
 21
-518.0
 31
0.0
  0
LINE
  5
D2
330
17
100
AcDbEntity
  8
0
100
AcDbLine
 10
309.3519287109375
 20
-518.2283935546875
 30
0.0
 11
309.91473388671875
 21
-518.0576171875
 31
0.0
  0
LINE
  5
D3
330
17
100
AcDbEntity
  8
0
100
AcDbLine
 10
308.83331298828125
 20
-518.505615234375
 30
0.0
 11
309.3519287109375
 21
-518.2283935546875
 31
0.0
  0
LINE
  5
D4
330
17
100
AcDbEntity
  8
0
100
AcDbLine
 10
308.378662109375
 20
-518.878662109375
 30
0.0
 11
308.83331298828125
 21
-518.505615234375
 31
0.0
  0
LINE
  5
D5
330
17
100
AcDbEntity
  8
0
100
AcDbLine
 10
308.005615234375
 20
-519.333251953125
 30
0.0
 11
308.378662109375
 21
-518.878662109375
 31
0.0
  0
LINE
  5
D6
330
17
100
AcDbEntity
  8
0
100
AcDbLine
 10
307.7283935546875
 20
-519.8519287109375
 30
0.0
 11
308.005615234375
 21
-519.333251953125
 31
0.0
  0
LINE
  5
D7
330
17
100
AcDbEntity
  8
0
100
AcDbLine
 10
308.005615234375
 20
-522.666748046875
 30
0.0
 11
307.7283935546875
 21
-522.1480712890625
 31
0.0
  0
LINE
  5
D8
330
17
100
AcDbEntity
  8
0
100
AcDbLine
 10
308.378662109375
 20
-523.121337890625
 30
0.0
 11
308.005615234375
 21
-522.666748046875
 31
0.0
  0
LINE
  5
D9
330
17
100
AcDbEntity
  8
0
100
AcDbLine
 10
308.83331298828125
 20
-523.494384765625
 30
0.0
 11
308.378662109375
 21
-523.121337890625
 31
0.0
  0
LINE
  5
DA
330
17
100
AcDbEntity
  8
0
100
AcDbLine
 10
309.3519287109375
 20
-523.7716064453125
 30
0.0
 11
308.83331298828125
 21
-523.494384765625
 31
0.0
  0
LINE
  5
DB
330
17
100
AcDbEntity
  8
0
100
AcDbLine
 10
309.91473388671875
 20
-523.9423828125
 30
0.0
 11
309.3519287109375
 21
-523.7716064453125
 31
0.0
  0
LINE
  5
DC
330
17
100
AcDbEntity
  8
0
100
AcDbLine
 10
310.5
 20
-524.0
 30
0.0
 11
309.91473388671875
 21
-523.9423828125
 31
0.0
  0
LINE
  5
DD
330
17
100
AcDbEntity
  8
0
100
AcDbLine
 10
311.08526611328125
 20
-523.9423828125
 30
0.0
 11
310.5
 21
-524.0
 31
0.0
  0
LINE
  5
DE
330
17
100
AcDbEntity
  8
0
100
AcDbLine
 10
311.6480712890625
 20
-523.7716064453125
 30
0.0
 11
311.08526611328125
 21
-523.9423828125
 31
0.0
  0
LINE
  5
DF
330
17
100
AcDbEntity
  8
0
100
AcDbLine
 10
312.16668701171875
 20
-523.494384765625
 30
0.0
 11
311.6480712890625
 21
-523.7716064453125
 31
0.0
  0
LINE
  5
E0
330
17
100
AcDbEntity
  8
0
100
AcDbLine
 10
312.621337890625
 20
-523.121337890625
 30
0.0
 11
312.16668701171875
 21
-523.494384765625
 31
0.0
  0
LINE
  5
E1
330
17
100
AcDbEntity
  8
0
100
AcDbLine
 10
312.994384765625
 20
-522.666748046875
 30
0.0
 11
312.621337890625
 21
-523.121337890625
 31
0.0
  0
LINE
  5
E2
330
17
100
AcDbEntity
  8
0
100
AcDbLine
 10
313.2716064453125
 20
-522.1480712890625
 30
0.0
 11
312.994384765625
 21
-522.666748046875
 31
0.0
  0
LINE
  5
E3
330
17
100
AcDbEntity
  8
0
100
AcDbLine
 10
312.994384765625
 20
-519.333251953125
 30
0.0
 11
313.2716064453125
 21
-519.8519287109375
 31
0.0
  0
LINE
  5
E4
330
17
100
AcDbEntity
  8
0
100
AcDbLine
 10
312.621337890625
 20
-518.878662109375
 30
0.0
 11
312.994384765625
 21
-519.333251953125
 31
0.0
  0
LINE
  5
E5
330
17
100
AcDbEntity
  8
0
100
AcDbLine
 10
312.16668701171875
 20
-518.505615234375
 30
0.0
 11
312.621337890625
 21
-518.878662109375
 31
0.0
  0
LINE
  5
E6
330
17
100
AcDbEntity
  8
0
100
AcDbLine
 10
311.6480712890625
 20
-518.2283935546875
 30
0.0
 11
312.16668701171875
 21
-518.505615234375
 31
0.0
  0
LINE
  5
E7
330
17
100
AcDbEntity
  8
0
100
AcDbLine
 10
311.08526611328125
 20
-518.0576171875
 30
0.0
 11
311.6480712890625
 21
-518.2283935546875
 31
0.0
  0
LINE
  5
E8
330
17
100
AcDbEntity
  8
0
100
AcDbLine
 10
310.5
 20
-518.0
 30
0.0
 11
311.08526611328125
 21
-518.0576171875
 31
0.0
  0
LINE
  5
E9
330
17
100
AcDbEntity
  8
0
100
AcDbLine
 10
307.7283935546875
 20
-519.8519287109375
 30
0.0
 11
313.2716064453125
 21
-519.8519287109375
 31
0.0
  0
LINE
  5
EA
330
17
100
AcDbEntity
  8
0
100
AcDbLine
 10
307.7283935546875
 20
-522.1480712890625
 30
0.0
 11
313.2716064453125
 21
-522.1480712890625
 31
0.0
  0
LINE
  5
EB
330
17
100
AcDbEntity
  8
0
100
AcDbLine
 10
369.0
 20
-511.0
 30
0.0
 11
369.0
 21
-508.0
 31
0.0
  0
LINE
  5
EC
330
17
100
AcDbEntity
  8
0
100
AcDbLine
 10
391.5
 20
-511.0
 30
0.0
 11
369.0
 21
-511.0
 31
0.0
  0
LINE
  5
ED
330
17
100
AcDbEntity
  8
0
100
AcDbLine
 10
396.4039306640625
 20
-515.0245361328125
 30
0.0
 11
396.5
 21
-516.0
 31
0.0
  0
LINE
  5
EE
330
17
100
AcDbEntity
  8
0
100
AcDbLine
 10
391.5
 20
-511.0
 30
0.0
 11
392.4754638671875
 21
-511.0960693359375
 31
0.0
  0
LINE
  5
EF
330
17
100
AcDbEntity
  8
0
100
AcDbLine
 10
396.5
 20
-526.0
 30
0.0
 11
396.5
 21
-516.0
 31
0.0
  0
LINE
  5
F0
330
17
100
AcDbEntity
  8
0
100
AcDbLine
 10
392.4754638671875
 20
-511.0960693359375
 30
0.0
 11
393.41339111328125
 21
-511.380615234375
 31
0.0
  0
LINE
  5
F1
330
17
100
AcDbEntity
  8
0
100
AcDbLine
 10
393.41339111328125
 20
-511.380615234375
 30
0.0
 11
394.27783203125
 21
-511.8426513671875
 31
0.0
  0
LINE
  5
F2
330
17
100
AcDbEntity
  8
0
100
AcDbLine
 10
394.27783203125
 20
-511.8426513671875
 30
0.0
 11
395.0355224609375
 21
-512.4644775390625
 31
0.0
  0
LINE
  5
F3
330
17
100
AcDbEntity
  8
0
100
AcDbLine
 10
395.0355224609375
 20
-512.4644775390625
 30
0.0
 11
395.6573486328125
 21
-513.22216796875
 31
0.0
  0
LINE
  5
F4
330
17
100
AcDbEntity
  8
0
100
AcDbLine
 10
395.6573486328125
 20
-513.22216796875
 30
0.0
 11
396.119384765625
 21
-514.0865478515625
 31
0.0
  0
LINE
  5
F5
330
17
100
AcDbEntity
  8
0
100
AcDbLine
 10
396.119384765625
 20
-514.0865478515625
 30
0.0
 11
396.4039306640625
 21
-515.0245361328125
 31
0.0
  0
LINE
  5
F6
330
17
100
AcDbEntity
  8
0
100
AcDbLine
 10
396.5
 20
-526.0
 30
0.0
 11
396.4039306640625
 21
-526.9754638671875
 31
0.0
  0
LINE
  5
F7
330
17
100
AcDbEntity
  8
0
100
AcDbLine
 10
396.4039306640625
 20
-526.9754638671875
 30
0.0
 11
396.119384765625
 21
-527.9134521484375
 31
0.0
  0
LINE
  5
F8
330
17
100
AcDbEntity
  8
0
100
AcDbLine
 10
396.119384765625
 20
-527.9134521484375
 30
0.0
 11
395.6573486328125
 21
-528.77783203125
 31
0.0
  0
LINE
  5
F9
330
17
100
AcDbEntity
  8
0
100
AcDbLine
 10
395.6573486328125
 20
-528.77783203125
 30
0.0
 11
395.0355224609375
 21
-529.5355224609375
 31
0.0
  0
LINE
  5
FA
330
17
100
AcDbEntity
  8
0
100
AcDbLine
 10
395.0355224609375
 20
-529.5355224609375
 30
0.0
 11
394.27783203125
 21
-530.1573486328125
 31
0.0
  0
LINE
  5
FB
330
17
100
AcDbEntity
  8
0
100
AcDbLine
 10
394.27783203125
 20
-530.1573486328125
 30
0.0
 11
393.41339111328125
 21
-530.619384765625
 31
0.0
  0
LINE
  5
FC
330
17
100
AcDbEntity
  8
0
100
AcDbLine
 10
393.41339111328125
 20
-530.619384765625
 30
0.0
 11
392.4754638671875
 21
-530.9039306640625
 31
0.0
  0
LINE
  5
FD
330
17
100
AcDbEntity
  8
0
100
AcDbLine
 10
392.4754638671875
 20
-530.9039306640625
 30
0.0
 11
391.5
 21
-531.0
 31
0.0
  0
LINE
  5
FE
330
17
100
AcDbEntity
  8
0
100
AcDbLine
 10
392.08526611328125
 20
-518.0576171875
 30
0.0
 11
391.5
 21
-518.0
 31
0.0
  0
LINE
  5
FF
330
17
100
AcDbEntity
  8
0
100
AcDbLine
 10
392.6480712890625
 20
-518.2283935546875
 30
0.0
 11
392.08526611328125
 21
-518.0576171875
 31
0.0
  0
LINE
  5
100
330
17
100
AcDbEntity
  8
0
100
AcDbLine
 10
393.16668701171875
 20
-518.505615234375
 30
0.0
 11
392.6480712890625
 21
-518.2283935546875
 31
0.0
  0
LINE
  5
101
330
17
100
AcDbEntity
  8
0
100
AcDbLine
 10
393.621337890625
 20
-518.878662109375
 30
0.0
 11
393.16668701171875
 21
-518.505615234375
 31
0.0
  0
LINE
  5
102
330
17
100
AcDbEntity
  8
0
100
AcDbLine
 10
393.994384765625
 20
-519.333251953125
 30
0.0
 11
393.621337890625
 21
-518.878662109375
 31
0.0
  0
LINE
  5
103
330
17
100
AcDbEntity
  8
0
100
AcDbLine
 10
394.2716064453125
 20
-519.8519287109375
 30
0.0
 11
393.994384765625
 21
-519.333251953125
 31
0.0
  0
LINE
  5
104
330
17
100
AcDbEntity
  8
0
100
AcDbLine
 10
393.994384765625
 20
-522.666748046875
 30
0.0
 11
394.2716064453125
 21
-522.1480712890625
 31
0.0
  0
LINE
  5
105
330
17
100
AcDbEntity
  8
0
100
AcDbLine
 10
393.621337890625
 20
-523.121337890625
 30
0.0
 11
393.994384765625
 21
-522.666748046875
 31
0.0
  0
LINE
  5
106
330
17
100
AcDbEntity
  8
0
100
AcDbLine
 10
393.16668701171875
 20
-523.494384765625
 30
0.0
 11
393.621337890625
 21
-523.121337890625
 31
0.0
  0
LINE
  5
107
330
17
100
AcDbEntity
  8
0
100
AcDbLine
 10
392.6480712890625
 20
-523.7716064453125
 30
0.0
 11
393.16668701171875
 21
-523.494384765625
 31
0.0
  0
LINE
  5
108
330
17
100
AcDbEntity
  8
0
100
AcDbLine
 10
392.08526611328125
 20
-523.9423828125
 30
0.0
 11
392.6480712890625
 21
-523.7716064453125
 31
0.0
  0
LINE
  5
109
330
17
100
AcDbEntity
  8
0
100
AcDbLine
 10
391.5
 20
-524.0
 30
0.0
 11
392.08526611328125
 21
-523.9423828125
 31
0.0
  0
LINE
  5
10A
330
17
100
AcDbEntity
  8
0
100
AcDbLine
 10
390.91473388671875
 20
-523.9423828125
 30
0.0
 11
391.5
 21
-524.0
 31
0.0
  0
LINE
  5
10B
330
17
100
AcDbEntity
  8
0
100
AcDbLine
 10
390.3519287109375
 20
-523.7716064453125
 30
0.0
 11
390.91473388671875
 21
-523.9423828125
 31
0.0
  0
LINE
  5
10C
330
17
100
AcDbEntity
  8
0
100
AcDbLine
 10
389.83331298828125
 20
-523.494384765625
 30
0.0
 11
390.3519287109375
 21
-523.7716064453125
 31
0.0
  0
LINE
  5
10D
330
17
100
AcDbEntity
  8
0
100
AcDbLine
 10
389.378662109375
 20
-523.121337890625
 30
0.0
 11
389.83331298828125
 21
-523.494384765625
 31
0.0
  0
LINE
  5
10E
330
17
100
AcDbEntity
  8
0
100
AcDbLine
 10
389.005615234375
 20
-522.666748046875
 30
0.0
 11
389.378662109375
 21
-523.121337890625
 31
0.0
  0
LINE
  5
10F
330
17
100
AcDbEntity
  8
0
100
AcDbLine
 10
388.7283935546875
 20
-522.1480712890625
 30
0.0
 11
389.005615234375
 21
-522.666748046875
 31
0.0
  0
LINE
  5
110
330
17
100
AcDbEntity
  8
0
100
AcDbLine
 10
389.005615234375
 20
-519.333251953125
 30
0.0
 11
388.7283935546875
 21
-519.8519287109375
 31
0.0
  0
LINE
  5
111
330
17
100
AcDbEntity
  8
0
100
AcDbLine
 10
389.378662109375
 20
-518.878662109375
 30
0.0
 11
389.005615234375
 21
-519.333251953125
 31
0.0
  0
LINE
  5
112
330
17
100
AcDbEntity
  8
0
100
AcDbLine
 10
389.83331298828125
 20
-518.505615234375
 30
0.0
 11
389.378662109375
 21
-518.878662109375
 31
0.0
  0
LINE
  5
113
330
17
100
AcDbEntity
  8
0
100
AcDbLine
 10
390.3519287109375
 20
-518.2283935546875
 30
0.0
 11
389.83331298828125
 21
-518.505615234375
 31
0.0
  0
LINE
  5
114
330
17
100
AcDbEntity
  8
0
100
AcDbLine
 10
390.91473388671875
 20
-518.0576171875
 30
0.0
 11
390.3519287109375
 21
-518.2283935546875
 31
0.0
  0
LINE
  5
115
330
17
100
AcDbEntity
  8
0
100
AcDbLine
 10
391.5
 20
-518.0
 30
0.0
 11
390.91473388671875
 21
-518.0576171875
 31
0.0
  0
LINE
  5
116
330
17
100
AcDbEntity
  8
0
100
AcDbLine
 10
394.2716064453125
 20
-519.8519287109375
 30
0.0
 11
388.7283935546875
 21
-519.8519287109375
 31
0.0
  0
LINE
  5
117
330
17
100
AcDbEntity
  8
0
100
AcDbLine
 10
394.2716064453125
 20
-522.1480712890625
 30
0.0
 11
388.7283935546875
 21
-522.1480712890625
 31
0.0
  0
LINE
  5
118
330
17
100
AcDbEntity
  8
0
100
AcDbLine
 10
310.5
 20
-531.0
 30
0.0
 11
333.0
 21
-531.0
 31
0.0
  0
LINE
  5
119
330
17
100
AcDbEntity
  8
0
100
AcDbLine
 10
333.0
 20
-508.0
 30
0.0
 11
369.0
 21
-508.0
 31
0.0
  0
LINE
  5
11A
330
17
100
AcDbEntity
  8
0
100
AcDbLine
 10
333.10223388671875
 20
-534.7764892578125
 30
0.0
 11
333.40191650390625
 21
-535.5
 31
0.0
  0
LINE
  5
11B
330
17
100
AcDbEntity
  8
0
100
AcDbLine
 10
333.0
 20
-534.0
 30
0.0
 11
333.10223388671875
 21
-534.7764892578125
 31
0.0
  0
LINE
  5
11C
330
17
100
AcDbEntity
  8
0
100
AcDbLine
 10
368.89776611328125
 20
-534.7764892578125
 30
0.0
 11
369.0
 21
-534.0
 31
0.0
  0
LINE
  5
11D
330
17
100
AcDbEntity
  8
0
100
AcDbLine
 10
336.0
 20
-537.0
 30
0.0
 11
366.0
 21
-537.0
 31
0.0
  0
LINE
  5
11E
330
17
100
AcDbEntity
  8
0
100
AcDbLine
 10
333.40191650390625
 20
-535.5
 30
0.0
 11
333.878662109375
 21
-536.121337890625
 31
0.0
  0
LINE
  5
11F
330
17
100
AcDbEntity
  8
0
100
AcDbLine
 10
391.5
 20
-531.0
 30
0.0
 11
369.0
 21
-531.0
 31
0.0
  0
LINE
  5
120
330
17
100
AcDbEntity
  8
0
100
AcDbLine
 10
333.878662109375
 20
-536.121337890625
 30
0.0
 11
334.5
 21
-536.5980834960938
 31
0.0
  0
LINE
  5
121
330
17
100
AcDbEntity
  8
0
100
AcDbLine
 10
334.5
 20
-536.5980834960938
 30
0.0
 11
335.22357177734375
 21
-536.8977661132812
 31
0.0
  0
LINE
  5
122
330
17
100
AcDbEntity
  8
0
100
AcDbLine
 10
335.22357177734375
 20
-536.8977661132812
 30
0.0
 11
336.0
 21
-537.0
 31
0.0
  0
LINE
  5
123
330
17
100
AcDbEntity
  8
0
100
AcDbLine
 10
366.0
 20
-537.0
 30
0.0
 11
366.77642822265625
 21
-536.8977661132812
 31
0.0
  0
LINE
  5
124
330
17
100
AcDbEntity
  8
0
100
AcDbLine
 10
366.77642822265625
 20
-536.8977661132812
 30
0.0
 11
367.5
 21
-536.5980834960938
 31
0.0
  0
LINE
  5
125
330
17
100
AcDbEntity
  8
0
100
AcDbLine
 10
367.5
 20
-536.5980834960938
 30
0.0
 11
368.121337890625
 21
-536.121337890625
 31
0.0
  0
LINE
  5
126
330
17
100
AcDbEntity
  8
0
100
AcDbLine
 10
368.121337890625
 20
-536.121337890625
 30
0.0
 11
368.59808349609375
 21
-535.5
 31
0.0
  0
LINE
  5
127
330
17
100
AcDbEntity
  8
0
100
AcDbLine
 10
368.59808349609375
 20
-535.5
 30
0.0
 11
368.89776611328125
 21
-534.7764892578125
 31
0.0
  0
LINE
  5
128
330
17
100
AcDbEntity
  8
0
100
AcDbLine
 10
333.0
 20
-534.0
 30
0.0
 11
333.0
 21
-531.0
 31
0.0
  0
LINE
  5
129
330
17
100
AcDbEntity
  8
0
100
AcDbLine
 10
369.0
 20
-534.0
 30
0.0
 11
369.0
 21
-531.0
 31
0.0
  0
LINE
  5
12A
330
17
100
AcDbEntity
  8
0
100
AcDbLine
 10
335.85955810546875
 20
-513.0
 30
0.0
 11
365.939208984375
 21
-513.0
 31
0.0
  0
LINE
  5
12B
330
17
100
AcDbEntity
  8
0
100
AcDbLine
 10
335.85955810546875
 20
-526.0465698242188
 30
0.0
 11
336.0572509765625
 21
-527.2274169921875
 31
0.0
  0
LINE
  5
12C
330
17
100
AcDbEntity
  8
0
100
AcDbLine
 10
336.0572509765625
 20
-527.2274169921875
 30
0.0
 11
336.59747314453125
 21
-528.4534912109375
 31
0.0
  0
LINE
  5
12D
330
17
100
AcDbEntity
  8
0
100
AcDbLine
 10
336.59747314453125
 20
-528.4534912109375
 30
0.0
 11
337.33538818359375
 21
-529.3963012695312
 31
0.0
  0
LINE
  5
12E
330
17
100
AcDbEntity
  8
0
100
AcDbLine
 10
335.85955810546875
 20
-526.0465698242188
 30
0.0
 11
335.85955810546875
 21
-513.0
 31
0.0
  0
LINE
  5
12F
330
17
100
AcDbEntity
  8
0
100
AcDbLine
 10
352.24932861328125
 20
-529.7162475585938
 30
0.0
 11
350.90362548828125
 21
-530.2955932617188
 31
0.0
  0
LINE
  5
130
330
17
100
AcDbEntity
  8
0
100
AcDbLine
 10
350.90362548828125
 20
-530.2955932617188
 30
0.0
 11
349.2486572265625
 21
-530.833984375
 31
0.0
  0
LINE
  5
131
330
17
100
AcDbEntity
  8
0
100
AcDbLine
 10
349.2486572265625
 20
-530.833984375
 30
0.0
 11
347.72784423828125
 21
-531.0310668945312
 31
0.0
  0
LINE
  5
132
330
17
100
AcDbEntity
  8
0
100
AcDbLine
 10
342.37310791015625
 20
-531.0310668945312
 30
0.0
 11
340.841552734375
 21
-530.8496704101562
 31
0.0
  0
LINE
  5
133
330
17
100
AcDbEntity
  8
0
100
AcDbLine
 10
340.841552734375
 20
-530.8496704101562
 30
0.0
 11
339.1572265625
 21
-530.3541259765625
 31
0.0
  0
LINE
  5
134
330
17
100
AcDbEntity
  8
0
100
AcDbLine
 10
339.1572265625
 20
-530.3541259765625
 30
0.0
 11
337.771484375
 21
-529.6771850585938
 31
0.0
  0
LINE
  5
135
330
17
100
AcDbEntity
  8
0
100
AcDbLine
 10
352.24932861328125
 20
-529.7162475585938
 30
0.0
 11
358.66668701171875
 21
-526.890625
 31
0.0
  0
LINE
  5
136
330
17
100
AcDbEntity
  8
0
100
AcDbLine
 10
347.72784423828125
 20
-531.0310668945312
 30
0.0
 11
342.37310791015625
 21
-531.0310668945312
 31
0.0
  0
LINE
  5
137
330
17
100
AcDbEntity
  8
0
100
AcDbLine
 10
337.771484375
 20
-529.6771850585938
 30
0.0
 11
337.33538818359375
 21
-529.3963012695312
 31
0.0
  0
LINE
  5
138
330
17
100
AcDbEntity
  8
0
100
AcDbLine
 10
363.8875732421875
 20
-526.4517822265625
 30
0.0
 11
363.3043212890625
 21
-526.6712036132812
 31
0.0
  0
LINE
  5
139
330
17
100
AcDbEntity
  8
0
100
AcDbLine
 10
363.3043212890625
 20
-526.6712036132812
 30
0.0
 11
362.609375
 21
-526.831787109375
 31
0.0
  0
LINE
  5
13A
330
17
100
AcDbEntity
  8
0
100
AcDbLine
 10
362.609375
 20
-526.831787109375
 30
0.0
 11
361.989013671875
 21
-526.890625
 31
0.0
  0
LINE
  5
13B
330
17
100
AcDbEntity
  8
0
100
AcDbLine
 10
361.989013671875
 20
-526.890625
 30
0.0
 11
358.66668701171875
 21
-526.890625
 31
0.0
  0
LINE
  5
13C
330
17
100
AcDbEntity
  8
0
100
AcDbLine
 10
365.939208984375
 20
-524.4498291015625
 30
0.0
 11
365.81878662109375
 21
-525.0086669921875
 31
0.0
  0
LINE
  5
13D
330
17
100
AcDbEntity
  8
0
100
AcDbLine
 10
365.81878662109375
 20
-525.0086669921875
 30
0.0
 11
365.4898681640625
 21
-525.5352783203125
 31
0.0
  0
LINE
  5
13E
330
17
100
AcDbEntity
  8
0
100
AcDbLine
 10
365.4898681640625
 20
-525.5352783203125
 30
0.0
 11
365.04058837890625
 21
-525.888671875
 31
0.0
  0
LINE
  5
13F
330
17
100
AcDbEntity
  8
0
100
AcDbLine
 10
365.939208984375
 20
-524.4498291015625
 30
0.0
 11
365.939208984375
 21
-513.0
 31
0.0
  0
LINE
  5
140
330
17
100
AcDbEntity
  8
0
100
AcDbLine
 10
365.04058837890625
 20
-525.888671875
 30
0.0
 11
363.8875732421875
 21
-526.4517822265625
 31
0.0
  0
LINE
  5
141
330
17
100
AcDbEntity
  8
0
100
AcDbLine
 10
282.2300720214844
 20
-498.4039306640625
 30
0.0
 11
283.20550537109375
 21
-498.5
 31
0.0
  0
LINE
  5
142
330
17
100
AcDbEntity
  8
0
100
AcDbLine
 10
278.20550537109375
 20
-493.5
 30
0.0
 11
278.30157470703125
 21
-494.4754638671875
 31
0.0
  0
LINE
  5
143
330
17
100
AcDbEntity
  8
0
100
AcDbLine
 10
293.20550537109375
 20
-498.5
 30
0.0
 11
283.20550537109375
 21
-498.5
 31
0.0
  0
LINE
  5
144
330
17
100
AcDbEntity
  8
0
100
AcDbLine
 10
278.30157470703125
 20
-494.4754638671875
 30
0.0
 11
278.58612060546875
 21
-495.41339111328125
 31
0.0
  0
LINE
  5
145
330
17
100
AcDbEntity
  8
0
100
AcDbLine
 10
278.58612060546875
 20
-495.41339111328125
 30
0.0
 11
279.04815673828125
 21
-496.27783203125
 31
0.0
  0
LINE
  5
146
330
17
100
AcDbEntity
  8
0
100
AcDbLine
 10
279.04815673828125
 20
-496.27783203125
 30
0.0
 11
279.66998291015625
 21
-497.0355224609375
 31
0.0
  0
LINE
  5
147
330
17
100
AcDbEntity
  8
0
100
AcDbLine
 10
279.66998291015625
 20
-497.0355224609375
 30
0.0
 11
280.42767333984375
 21
-497.6573486328125
 31
0.0
  0
LINE
  5
148
330
17
100
AcDbEntity
  8
0
100
AcDbLine
 10
280.42767333984375
 20
-497.6573486328125
 30
0.0
 11
281.2920837402344
 21
-498.119384765625
 31
0.0
  0
LINE
  5
149
330
17
100
AcDbEntity
  8
0
100
AcDbLine
 10
281.2920837402344
 20
-498.119384765625
 30
0.0
 11
282.2300720214844
 21
-498.4039306640625
 31
0.0
  0
LINE
  5
14A
330
17
100
AcDbEntity
  8
0
100
AcDbLine
 10
293.20550537109375
 20
-498.5
 30
0.0
 11
294.18096923828125
 21
-498.4039306640625
 31
0.0
  0
LINE
  5
14B
330
17
100
AcDbEntity
  8
0
100
AcDbLine
 10
294.18096923828125
 20
-498.4039306640625
 30
0.0
 11
295.1189270019531
 21
-498.119384765625
 31
0.0
  0
LINE
  5
14C
330
17
100
AcDbEntity
  8
0
100
AcDbLine
 10
295.1189270019531
 20
-498.119384765625
 30
0.0
 11
295.9833679199219
 21
-497.6573486328125
 31
0.0
  0
LINE
  5
14D
330
17
100
AcDbEntity
  8
0
100
AcDbLine
 10
295.9833679199219
 20
-497.6573486328125
 30
0.0
 11
296.7410583496094
 21
-497.0355224609375
 31
0.0
  0
LINE
  5
14E
330
17
100
AcDbEntity
  8
0
100
AcDbLine
 10
296.7410583496094
 20
-497.0355224609375
 30
0.0
 11
297.36285400390625
 21
-496.27783203125
 31
0.0
  0
LINE
  5
14F
330
17
100
AcDbEntity
  8
0
100
AcDbLine
 10
297.36285400390625
 20
-496.27783203125
 30
0.0
 11
297.8249206542969
 21
-495.41339111328125
 31
0.0
  0
LINE
  5
150
330
17
100
AcDbEntity
  8
0
100
AcDbLine
 10
297.8249206542969
 20
-495.41339111328125
 30
0.0
 11
298.10943603515625
 21
-494.4754638671875
 31
0.0
  0
LINE
  5
151
330
17
100
AcDbEntity
  8
0
100
AcDbLine
 10
298.10943603515625
 20
-494.4754638671875
 30
0.0
 11
298.20550537109375
 21
-493.5
 31
0.0
  0
LINE
  5
152
330
17
100
AcDbEntity
  8
0
100
AcDbLine
 10
275.20550537109375
 20
-493.5
 30
0.0
 11
278.20550537109375
 21
-493.5
 31
0.0
  0
LINE
  5
153
330
17
100
AcDbEntity
  8
0
100
AcDbLine
 10
275.20550537109375
 20
-505.5
 30
0.0
 11
275.20550537109375
 21
-493.5
 31
0.0
  0
LINE
  5
154
330
17
100
AcDbEntity
  8
0
100
AcDbLine
 10
295.20550537109375
 20
-505.5
 30
0.0
 11
275.20550537109375
 21
-505.5
 31
0.0
  0
LINE
  5
155
330
17
100
AcDbEntity
  8
0
100
AcDbLine
 10
295.20550537109375
 20
-502.5
 30
0.0
 11
295.20550537109375
 21
-505.5
 31
0.0
  0
LINE
  5
156
330
17
100
AcDbEntity
  8
0
100
AcDbLine
 10
495.20550537109375
 20
-502.5
 30
0.0
 11
295.20550537109375
 21
-502.5
 31
0.0
  0
LINE
  5
157
330
17
100
AcDbEntity
  8
0
100
AcDbLine
 10
495.20550537109375
 20
-505.5
 30
0.0
 11
495.20550537109375
 21
-502.5
 31
0.0
  0
LINE
  5
158
330
17
100
AcDbEntity
  8
0
100
AcDbLine
 10
515.2055053710938
 20
-505.5
 30
0.0
 11
495.20550537109375
 21
-505.5
 31
0.0
  0
LINE
  5
159
330
17
100
AcDbEntity
  8
0
100
AcDbLine
 10
515.2055053710938
 20
-485.5
 30
0.0
 11
515.2055053710938
 21
-505.5
 31
0.0
  0
LINE
  5
15A
330
17
100
AcDbEntity
  8
0
100
AcDbLine
 10
512.2055053710938
 20
-485.5
 30
0.0
 11
515.2055053710938
 21
-485.5
 31
0.0
  0
LINE
  5
15B
330
17
100
AcDbEntity
  8
0
100
AcDbLine
 10
282.23004150390625
 20
-407.5960693359375
 30
0.0
 11
283.20550537109375
 21
-407.5
 31
0.0
  0
LINE
  5
15C
330
17
100
AcDbEntity
  8
0
100
AcDbLine
 10
278.20550537109375
 20
-412.5
 30
0.0
 11
278.30157470703125
 21
-411.5245361328125
 31
0.0
  0
LINE
  5
15D
330
17
100
AcDbEntity
  8
0
100
AcDbLine
 10
293.20550537109375
 20
-407.5
 30
0.0
 11
283.20550537109375
 21
-407.5
 31
0.0
  0
LINE
  5
15E
330
17
100
AcDbEntity
  8
0
100
AcDbLine
 10
278.30157470703125
 20
-411.5245361328125
 30
0.0
 11
278.5860900878906
 21
-410.58660888671875
 31
0.0
  0
LINE
  5
15F
330
17
100
AcDbEntity
  8
0
100
AcDbLine
 10
278.5860900878906
 20
-410.58660888671875
 30
0.0
 11
279.04815673828125
 21
-409.72216796875
 31
0.0
  0
LINE
  5
160
330
17
100
AcDbEntity
  8
0
100
AcDbLine
 10
279.04815673828125
 20
-409.72216796875
 30
0.0
 11
279.6699523925781
 21
-408.9644775390625
 31
0.0
  0
LINE
  5
161
330
17
100
AcDbEntity
  8
0
100
AcDbLine
 10
279.6699523925781
 20
-408.9644775390625
 30
0.0
 11
280.4276428222656
 21
-408.3426513671875
 31
0.0
  0
LINE
  5
162
330
17
100
AcDbEntity
  8
0
100
AcDbLine
 10
280.4276428222656
 20
-408.3426513671875
 30
0.0
 11
281.2920837402344
 21
-407.880615234375
 31
0.0
  0
LINE
  5
163
330
17
100
AcDbEntity
  8
0
100
AcDbLine
 10
281.2920837402344
 20
-407.880615234375
 30
0.0
 11
282.23004150390625
 21
-407.5960693359375
 31
0.0
  0
LINE
  5
164
330
17
100
AcDbEntity
  8
0
100
AcDbLine
 10
293.20550537109375
 20
-407.5
 30
0.0
 11
294.1809387207031
 21
-407.5960693359375
 31
0.0
  0
LINE
  5
165
330
17
100
AcDbEntity
  8
0
100
AcDbLine
 10
294.1809387207031
 20
-407.5960693359375
 30
0.0
 11
295.1189270019531
 21
-407.880615234375
 31
0.0
  0
LINE
  5
166
330
17
100
AcDbEntity
  8
0
100
AcDbLine
 10
295.1189270019531
 20
-407.880615234375
 30
0.0
 11
295.98333740234375
 21
-408.3426513671875
 31
0.0
  0
LINE
  5
167
330
17
100
AcDbEntity
  8
0
100
AcDbLine
 10
295.98333740234375
 20
-408.3426513671875
 30
0.0
 11
296.74102783203125
 21
-408.9644775390625
 31
0.0
  0
LINE
  5
168
330
17
100
AcDbEntity
  8
0
100
AcDbLine
 10
296.74102783203125
 20
-408.9644775390625
 30
0.0
 11
297.36285400390625
 21
-409.72216796875
 31
0.0
  0
LINE
  5
169
330
17
100
AcDbEntity
  8
0
100
AcDbLine
 10
297.36285400390625
 20
-409.72216796875
 30
0.0
 11
297.82489013671875
 21
-410.58660888671875
 31
0.0
  0
LINE
  5
16A
330
17
100
AcDbEntity
  8
0
100
AcDbLine
 10
297.82489013671875
 20
-410.58660888671875
 30
0.0
 11
298.10943603515625
 21
-411.5245361328125
 31
0.0
  0
LINE
  5
16B
330
17
100
AcDbEntity
  8
0
100
AcDbLine
 10
298.10943603515625
 20
-411.5245361328125
 30
0.0
 11
298.20550537109375
 21
-412.5
 31
0.0
  0
LINE
  5
16C
330
17
100
AcDbEntity
  8
0
100
AcDbLine
 10
275.20550537109375
 20
-412.5
 30
0.0
 11
278.20550537109375
 21
-412.5
 31
0.0
  0
LINE
  5
16D
330
17
100
AcDbEntity
  8
0
100
AcDbLine
 10
275.20550537109375
 20
-400.5
 30
0.0
 11
275.20550537109375
 21
-412.5
 31
0.0
  0
LINE
  5
16E
330
17
100
AcDbEntity
  8
0
100
AcDbLine
 10
295.20550537109375
 20
-400.5
 30
0.0
 11
275.20550537109375
 21
-400.5
 31
0.0
  0
LINE
  5
16F
330
17
100
AcDbEntity
  8
0
100
AcDbLine
 10
295.20550537109375
 20
-403.5
 30
0.0
 11
295.20550537109375
 21
-400.5
 31
0.0
  0
LINE
  5
170
330
17
100
AcDbEntity
  8
0
100
AcDbLine
 10
495.20550537109375
 20
-403.5
 30
0.0
 11
295.20550537109375
 21
-403.5
 31
0.0
  0
LINE
  5
171
330
17
100
AcDbEntity
  8
0
100
AcDbLine
 10
495.20550537109375
 20
-400.5
 30
0.0
 11
495.20550537109375
 21
-403.5
 31
0.0
  0
LINE
  5
172
330
17
100
AcDbEntity
  8
0
100
AcDbLine
 10
515.2055053710938
 20
-400.5
 30
0.0
 11
495.20550537109375
 21
-400.5
 31
0.0
  0
LINE
  5
173
330
17
100
AcDbEntity
  8
0
100
AcDbLine
 10
515.2055053710938
 20
-420.5
 30
0.0
 11
515.2055053710938
 21
-400.5
 31
0.0
  0
LINE
  5
174
330
17
100
AcDbEntity
  8
0
100
AcDbLine
 10
512.2055053710938
 20
-420.5
 30
0.0
 11
515.2055053710938
 21
-420.5
 31
0.0
  0
LINE
  5
175
330
17
100
AcDbEntity
  8
0
100
AcDbLine
 10
512.2055053710938
 20
-485.5
 30
0.0
 11
512.2055053710938
 21
-420.5
 31
0.0
  0
LINE
  5
176
330
17
100
AcDbEntity
  8
0
100
AcDbLine
 10
298.20550537109375
 20
-493.5
 30
0.0
 11
298.20550537109375
 21
-471.0
 31
0.0
  0
LINE
  5
177
330
17
100
AcDbEntity
  8
0
100
AcDbLine
 10
301.20550537109375
 20
-435.0
 30
0.0
 11
298.20550537109375
 21
-435.0
 31
0.0
  0
LINE
  5
178
330
17
100
AcDbEntity
  8
0
100
AcDbLine
 10
301.20550537109375
 20
-471.0
 30
0.0
 11
298.20550537109375
 21
-471.0
 31
0.0
  0
LINE
  5
179
330
17
100
AcDbEntity
  8
0
100
AcDbLine
 10
302.70550537109375
 20
-435.40191650390625
 30
0.0
 11
301.9819641113281
 21
-435.10223388671875
 31
0.0
  0
LINE
  5
17A
330
17
100
AcDbEntity
  8
0
100
AcDbLine
 10
303.32684326171875
 20
-435.878662109375
 30
0.0
 11
302.70550537109375
 21
-435.40191650390625
 31
0.0
  0
LINE
  5
17B
330
17
100
AcDbEntity
  8
0
100
AcDbLine
 10
303.8035888671875
 20
-436.5
 30
0.0
 11
303.32684326171875
 21
-435.878662109375
 31
0.0
  0
LINE
  5
17C
330
17
100
AcDbEntity
  8
0
100
AcDbLine
 10
304.103271484375
 20
-437.22357177734375
 30
0.0
 11
303.8035888671875
 21
-436.5
 31
0.0
  0
LINE
  5
17D
330
17
100
AcDbEntity
  8
0
100
AcDbLine
 10
304.20550537109375
 20
-438.0
 30
0.0
 11
304.103271484375
 21
-437.22357177734375
 31
0.0
  0
LINE
  5
17E
330
17
100
AcDbEntity
  8
0
100
AcDbLine
 10
304.103271484375
 20
-468.77642822265625
 30
0.0
 11
304.20550537109375
 21
-468.0
 31
0.0
  0
LINE
  5
17F
330
17
100
AcDbEntity
  8
0
100
AcDbLine
 10
303.8035888671875
 20
-469.5
 30
0.0
 11
304.103271484375
 21
-468.77642822265625
 31
0.0
  0
LINE
  5
180
330
17
100
AcDbEntity
  8
0
100
AcDbLine
 10
303.32684326171875
 20
-470.121337890625
 30
0.0
 11
303.8035888671875
 21
-469.5
 31
0.0
  0
LINE
  5
181
330
17
100
AcDbEntity
  8
0
100
AcDbLine
 10
302.70550537109375
 20
-470.59808349609375
 30
0.0
 11
303.32684326171875
 21
-470.121337890625
 31
0.0
  0
LINE
  5
182
330
17
100
AcDbEntity
  8
0
100
AcDbLine
 10
304.20550537109375
 20
-468.0
 30
0.0
 11
304.20550537109375
 21
-438.0
 31
0.0
  0
LINE
  5
183
330
17
100
AcDbEntity
  8
0
100
AcDbLine
 10
301.9819641113281
 20
-435.10223388671875
 30
0.0
 11
301.20550537109375
 21
-435.0
 31
0.0
  0
LINE
  5
184
330
17
100
AcDbEntity
  8
0
100
AcDbLine
 10
301.20550537109375
 20
-471.0
 30
0.0
 11
301.9819641113281
 21
-470.89776611328125
 31
0.0
  0
LINE
  5
185
330
17
100
AcDbEntity
  8
0
100
AcDbLine
 10
301.9819641113281
 20
-470.89776611328125
 30
0.0
 11
302.70550537109375
 21
-470.59808349609375
 31
0.0
  0
LINE
  5
186
330
17
100
AcDbEntity
  8
0
100
AcDbLine
 10
298.20550537109375
 20
-412.5
 30
0.0
 11
298.20550537109375
 21
-435.0
 31
0.0
  0
ENDSEC
  0
SECTION
  2
OBJECTS
  0
DICTIONARY
  5
A
330
0
100
AcDbDictionary
280
0
281
1
  3
ACAD_COLOR
350
B
  3
ACAD_GROUP
350
C
  3
ACAD_LAYOUT
350
D
  3
ACAD_MATERIAL
350
E
  3
ACAD_MLEADERSTYLE
350
F
  3
ACAD_MLINESTYLE
350
10
  3
ACAD_PLOTSETTINGS
350
11
  3
ACAD_PLOTSTYLENAME
350
12
  3
ACAD_SCALELIST
350
14
  3
ACAD_TABLESTYLE
350
15
  3
ACAD_VISUALSTYLE
350
16
  3
EZDXF_META
350
2D
  0
DICTIONARY
  5
B
330
A
100
AcDbDictionary
280
0
281
1
  0
DICTIONARY
  5
C
330
A
100
AcDbDictionary
280
0
281
1
  0
DICTIONARY
  5
D
330
A
100
AcDbDictionary
280
0
281
1
  3
Model
350
1A
  3
Layout1
350
1E
  0
DICTIONARY
  5
E
330
A
100
AcDbDictionary
280
0
281
1
  3
ByBlock
350
1F
  3
ByLayer
350
20
  3
Global
350
21
  0
DICTIONARY
  5
F
330
A
100
AcDbDictionary
280
0
281
1
  3
Standard
350
2C
  0
DICTIONARY
  5
10
330
A
100
AcDbDictionary
280
0
281
1
  3
Standard
350
22
  0
DICTIONARY
  5
11
330
A
100
AcDbDictionary
280
0
281
1
  0
ACDBDICTIONARYWDFLT
  5
12
330
A
100
AcDbDictionary
280
0
281
1
  3
Normal
350
13
100
AcDbDictionaryWithDefault
340
13
  0
ACDBPLACEHOLDER
  5
13
330
12
  0
DICTIONARY
  5
14
330
A
100
AcDbDictionary
280
0
281
1
  0
DICTIONARY
  5
15
330
A
100
AcDbDictionary
280
0
281
1
  0
DICTIONARY
  5
16
330
A
100
AcDbDictionary
280
0
281
1
  0
LAYOUT
  5
1A
330
D
100
AcDbPlotSettings
  1

  4
A3
  6

 40
7.5
 41
20.0
 42
7.5
 43
20.0
 44
420.0
 45
297.0
 46
0.0
 47
0.0
 48
0.0
 49
0.0
140
0.0
141
0.0
142
1.0
143
1.0
 70
1024
 72
1
 73
0
 74
5
  7

 75
16
 76
0
 77
2
 78
300
147
1.0
148
0.0
149
0.0
100
AcDbLayout
  1
Model
 70
1
 71
0
 10
0.0
 20
0.0
 11
420.0
 21
297.0
 12
0.0
 22
0.0
 32
0.0
 14
1e+20
 24
1e+20
 34
1e+20
 15
-1e+20
 25
-1e+20
 35
-1e+20
146
0.0
 13
0.0
 23
0.0
 33
0.0
 16
1.0
 26
0.0
 36
0.0
 17
0.0
 27
1.0
 37
0.0
 76
1
330
17
  0
LAYOUT
  5
1E
330
D
100
AcDbPlotSettings
  1

  4
A3
  6

 40
7.5
 41
20.0
 42
7.5
 43
20.0
 44
420.0
 45
297.0
 46
0.0
 47
0.0
 48
0.0
 49
0.0
140
0.0
141
0.0
142
1.0
143
1.0
 70
0
 72
1
 73
0
 74
5
  7

 75
16
 76
0
 77
2
 78
300
147
1.0
148
0.0
149
0.0
100
AcDbLayout
  1
Layout1
 70
1
 71
1
 10
0.0
 20
0.0
 11
420.0
 21
297.0
 12
0.0
 22
0.0
 32
0.0
 14
1e+20
 24
1e+20
 34
1e+20
 15
-1e+20
 25
-1e+20
 35
-1e+20
146
0.0
 13
0.0
 23
0.0
 33
0.0
 16
1.0
 26
0.0
 36
0.0
 17
0.0
 27
1.0
 37
0.0
 76
1
330
1B
  0
MATERIAL
  5
1F
102
{ACAD_REACTORS
330
E
102
}
330
E
100
AcDbMaterial
  1
ByBlock
  2

 70
0
 40
1.0
 71
1
 41
1.0
 91
-1023410177
 42
1.0
 72
1
  3

 73
1
 74
1
 75
1
 44
0.5
 73
0
 45
1.0
 46
1.0
 77
1
  4

 78
1
 79
1
170
1
 48
1.0
171
1
  6

172
1
173
1
174
1
140
1.0
141
1.0
175
1
  7

176
1
177
1
178
1
143
1.0
179
1
  8

270
1
271
1
272
1
145
1.0
146
1.0
273
1
  9

274
1
275
1
276
1
 42
1.0
 72
1
  3

 73
1
 74
1
 75
1
 94
63
  0
MATERIAL
  5
20
102
{ACAD_REACTORS
330
E
102
}
330
E
100
AcDbMaterial
  1
ByLayer
  2

 70
0
 40
1.0
 71
1
 41
1.0
 91
-1023410177
 42
1.0
 72
1
  3

 73
1
 74
1
 75
1
 44
0.5
 73
0
 45
1.0
 46
1.0
 77
1
  4

 78
1
 79
1
170
1
 48
1.0
171
1
  6

172
1
173
1
174
1
140
1.0
141
1.0
175
1
  7

176
1
177
1
178
1
143
1.0
179
1
  8

270
1
271
1
272
1
145
1.0
146
1.0
273
1
  9

274
1
275
1
276
1
 42
1.0
 72
1
  3

 73
1
 74
1
 75
1
 94
63
  0
MATERIAL
  5
21
102
{ACAD_REACTORS
330
E
102
}
330
E
100
AcDbMaterial
  1
Global
  2

 70
0
 40
1.0
 71
1
 41
1.0
 91
-1023410177
 42
1.0
 72
1
  3

 73
1
 74
1
 75
1
 44
0.5
 73
0
 45
1.0
 46
1.0
 77
1
  4

 78
1
 79
1
170
1
 48
1.0
171
1
  6

172
1
173
1
174
1
140
1.0
141
1.0
175
1
  7

176
1
177
1
178
1
143
1.0
179
1
  8

270
1
271
1
272
1
145
1.0
146
1.0
273
1
  9

274
1
275
1
276
1
 42
1.0
 72
1
  3

 73
1
 74
1
 75
1
 94
63
  0
MLINESTYLE
  5
22
102
{ACAD_REACTORS
330
10
102
}
330
10
100
AcDbMlineStyle
  2
Standard
 70
0
  3

 62
256
 51
90.0
 52
90.0
 71
2
 49
0.5
 62
256
  6
BYLAYER
 49
-0.5
 62
256
  6
BYLAYER
  0
MLEADERSTYLE
  5
2C
102
{ACAD_REACTORS
330
F
102
}
330
F
100
AcDbMLeaderStyle
179
2
170
2
171
1
172
0
 90
2
 40
0.0
 41
0.0
173
1
 91
-1056964608
 92
-2
290
1
 42
2.0
291
1
 43
8.0
  3
Standard
 44
4.0
300

342
29
174
1
175
1
176
0
178
1
 93
-1056964608
 45
4.0
292
0
297
0
 46
4.0
 94
-1056964608
 47
1.0
 49
1.0
140
1.0
294
1
141
0.0
177
0
142
1.0
295
0
296
0
143
3.75
271
0
272
9
273
9
  0
DICTIONARY
  5
2D
330
A
100
AcDbDictionary
281
1
  3
CREATED_BY_EZDXF
350
2E
  3
WRITTEN_BY_EZDXF
350
189
  0
DICTIONARYVAR
  5
2E
330
2D
100
DictionaryVariables
280
0
  1
1.4.1 @ 2025-05-31T18:49:45.048284+00:00
  0
DICTIONARYVAR
  5
189
330
2D
100
DictionaryVariables
280
0
  1
1.4.1 @ 2025-05-31T18:49:45.060869+00:00
  0
ENDSEC
  0
EOF
