  0
SECTION
  2
HEADER
  9
$ACADVER
  1
AC1027
  9
$ACADMAINTVER
 70
105
  9
$DWGCODEPAGE
  3
ANSI_1252
  9
$LASTSAVEDBY
  1
ezdxf
  9
$REQUIREDVERSIONS
160
0
  9
$INSBASE
 10
0.0
 20
0.0
 30
0.0
  9
$EXTMIN
 10
1e+20
 20
1e+20
 30
1e+20
  9
$EXTMAX
 10
-1e+20
 20
-1e+20
 30
-1e+20
  9
$LIMMIN
 10
0.0
 20
0.0
  9
$LIMMAX
 10
420.0
 20
297.0
  9
$ORTHOMODE
 70
0
  9
$REGENMODE
 70
1
  9
$FILLMODE
 70
1
  9
$QTEXTMODE
 70
0
  9
$MIRRTEXT
 70
1
  9
$LTSCALE
 40
1.0
  9
$ATTMODE
 70
1
  9
$TEXTSIZE
 40
2.5
  9
$TRACEWID
 40
1.0
  9
$TEXTSTYLE
  7
Standard
  9
$CLAYER
  8
0
  9
$CELTYPE
  6
ByLayer
  9
$CECOLOR
 62
256
  9
$CELTSCALE
 40
1.0
  9
$DISPSILH
 70
0
  9
$DIMSCALE
 40
1.0
  9
$DIMASZ
 40
2.5
  9
$DIMEXO
 40
0.625
  9
$DIMDLI
 40
3.75
  9
$DIMRND
 40
0.0
  9
$DIMDLE
 40
0.0
  9
$DIMEXE
 40
1.25
  9
$DIMTP
 40
0.0
  9
$DIMTM
 40
0.0
  9
$DIMTXT
 40
2.5
  9
$DIMCEN
 40
2.5
  9
$DIMTSZ
 40
0.0
  9
$DIMTOL
 70
0
  9
$DIMLIM
 70
0
  9
$DIMTIH
 70
0
  9
$DIMTOH
 70
0
  9
$DIMSE1
 70
0
  9
$DIMSE2
 70
0
  9
$DIMTAD
 70
1
  9
$DIMZIN
 70
8
  9
$DIMBLK
  1

  9
$DIMASO
 70
1
  9
$DIMSHO
 70
1
  9
$DIMPOST
  1

  9
$DIMAPOST
  1

  9
$DIMALT
 70
0
  9
$DIMALTD
 70
3
  9
$DIMALTF
 40
0.03937007874
  9
$DIMLFAC
 40
1.0
  9
$DIMTOFL
 70
1
  9
$DIMTVP
 40
0.0
  9
$DIMTIX
 70
0
  9
$DIMSOXD
 70
0
  9
$DIMSAH
 70
0
  9
$DIMBLK1
  1

  9
$DIMBLK2
  1

  9
$DIMSTYLE
  2
ISO-25
  9
$DIMCLRD
 70
0
  9
$DIMCLRE
 70
0
  9
$DIMCLRT
 70
0
  9
$DIMTFAC
 40
1.0
  9
$DIMGAP
 40
0.625
  9
$DIMJUST
 70
0
  9
$DIMSD1
 70
0
  9
$DIMSD2
 70
0
  9
$DIMTOLJ
 70
0
  9
$DIMTZIN
 70
8
  9
$DIMALTZ
 70
0
  9
$DIMALTTZ
 70
0
  9
$DIMUPT
 70
0
  9
$DIMDEC
 70
2
  9
$DIMTDEC
 70
2
  9
$DIMALTU
 70
2
  9
$DIMALTTD
 70
3
  9
$DIMTXSTY
  7
Standard
  9
$DIMAUNIT
 70
0
  9
$DIMADEC
 70
0
  9
$DIMALTRND
 40
0.0
  9
$DIMAZIN
 70
0
  9
$DIMDSEP
 70
44
  9
$DIMATFIT
 70
3
  9
$DIMFRAC
 70
0
  9
$DIMLDRBLK
  1

  9
$DIMLUNIT
 70
2
  9
$DIMLWD
 70
-2
  9
$DIMLWE
 70
-2
  9
$DIMTMOVE
 70
0
  9
$DIMFXL
 40
1.0
  9
$DIMFXLON
 70
0
  9
$DIMJOGANG
 40
0.785398163397
  9
$DIMTFILL
 70
0
  9
$DIMTFILLCLR
 70
0
  9
$DIMARCSYM
 70
0
  9
$DIMLTYPE
  6

  9
$DIMLTEX1
  6

  9
$DIMLTEX2
  6

  9
$DIMTXTDIRECTION
 70
0
  9
$LUNITS
 70
2
  9
$LUPREC
 70
4
  9
$SKETCHINC
 40
1.0
  9
$FILLETRAD
 40
10.0
  9
$AUNITS
 70
0
  9
$AUPREC
 70
2
  9
$MENU
  1
.
  9
$ELEVATION
 40
0.0
  9
$PELEVATION
 40
0.0
  9
$THICKNESS
 40
0.0
  9
$LIMCHECK
 70
0
  9
$CHAMFERA
 40
0.0
  9
$CHAMFERB
 40
0.0
  9
$CHAMFERC
 40
0.0
  9
$CHAMFERD
 40
0.0
  9
$SKPOLY
 70
0
  9
$TDCREATE
 40
2460831.6687268517
  9
$TDUCREATE
 40
2458532.153996898
  9
$TDUPDATE
 40
2460831.6687268517
  9
$TDUUPDATE
 40
2458532.1544311
  9
$TDINDWG
 40
0.0
  9
$TDUSRTIMER
 40
0.0
  9
$USRTIMER
 70
1
  9
$ANGBASE
 50
0.0
  9
$ANGDIR
 70
0
  9
$PDMODE
 70
0
  9
$PDSIZE
 40
0.0
  9
$PLINEWID
 40
0.0
  9
$SPLFRAME
 70
0
  9
$SPLINETYPE
 70
6
  9
$SPLINESEGS
 70
8
  9
$HANDSEED
  5
2CA
  9
$SURFTAB1
 70
6
  9
$SURFTAB2
 70
6
  9
$SURFTYPE
 70
6
  9
$SURFU
 70
6
  9
$SURFV
 70
6
  9
$UCSBASE
  2

  9
$UCSNAME
  2

  9
$UCSORG
 10
0.0
 20
0.0
 30
0.0
  9
$UCSXDIR
 10
1.0
 20
0.0
 30
0.0
  9
$UCSYDIR
 10
0.0
 20
1.0
 30
0.0
  9
$UCSORTHOREF
  2

  9
$UCSORTHOVIEW
 70
0
  9
$UCSORGTOP
 10
0.0
 20
0.0
 30
0.0
  9
$UCSORGBOTTOM
 10
0.0
 20
0.0
 30
0.0
  9
$UCSORGLEFT
 10
0.0
 20
0.0
 30
0.0
  9
$UCSORGRIGHT
 10
0.0
 20
0.0
 30
0.0
  9
$UCSORGFRONT
 10
0.0
 20
0.0
 30
0.0
  9
$UCSORGBACK
 10
0.0
 20
0.0
 30
0.0
  9
$PUCSBASE
  2

  9
$PUCSNAME
  2

  9
$PUCSORG
 10
0.0
 20
0.0
 30
0.0
  9
$PUCSXDIR
 10
1.0
 20
0.0
 30
0.0
  9
$PUCSYDIR
 10
0.0
 20
1.0
 30
0.0
  9
$PUCSORTHOREF
  2

  9
$PUCSORTHOVIEW
 70
0
  9
$PUCSORGTOP
 10
0.0
 20
0.0
 30
0.0
  9
$PUCSORGBOTTOM
 10
0.0
 20
0.0
 30
0.0
  9
$PUCSORGLEFT
 10
0.0
 20
0.0
 30
0.0
  9
$PUCSORGRIGHT
 10
0.0
 20
0.0
 30
0.0
  9
$PUCSORGFRONT
 10
0.0
 20
0.0
 30
0.0
  9
$PUCSORGBACK
 10
0.0
 20
0.0
 30
0.0
  9
$USERI1
 70
0
  9
$USERI2
 70
0
  9
$USERI3
 70
0
  9
$USERI4
 70
0
  9
$USERI5
 70
0
  9
$USERR1
 40
0.0
  9
$USERR2
 40
0.0
  9
$USERR3
 40
0.0
  9
$USERR4
 40
0.0
  9
$USERR5
 40
0.0
  9
$WORLDVIEW
 70
1
  9
$SHADEDGE
 70
3
  9
$SHADEDIF
 70
70
  9
$TILEMODE
 70
1
  9
$MAXACTVP
 70
64
  9
$PINSBASE
 10
0.0
 20
0.0
 30
0.0
  9
$PLIMCHECK
 70
0
  9
$PEXTMIN
 10
1e+20
 20
1e+20
 30
1e+20
  9
$PEXTMAX
 10
-1e+20
 20
-1e+20
 30
-1e+20
  9
$PLIMMIN
 10
0.0
 20
0.0
  9
$PLIMMAX
 10
420.0
 20
297.0
  9
$UNITMODE
 70
0
  9
$VISRETAIN
 70
1
  9
$PLINEGEN
 70
0
  9
$PSLTSCALE
 70
1
  9
$TREEDEPTH
 70
3020
  9
$CMLSTYLE
  2
Standard
  9
$CMLJUST
 70
0
  9
$CMLSCALE
 40
20.0
  9
$PROXYGRAPHICS
 70
1
  9
$MEASUREMENT
 70
1
  9
$CELWEIGHT
370
-1
  9
$ENDCAPS
280
0
  9
$JOINSTYLE
280
0
  9
$LWDISPLAY
290
0
  9
$INSUNITS
 70
6
  9
$HYPERLINKBASE
  1

  9
$STYLESHEET
  1

  9
$XEDIT
290
1
  9
$CEPSNTYPE
380
0
  9
$PSTYLEMODE
290
1
  9
$FINGERPRINTGUID
  2
{48B15999-8AFF-47A0-AED6-14A3F0BAC8C1}
  9
$VERSIONGUID
  2
{63DC7212-14FA-4045-ABE6-91128A22D371}
  9
$EXTNAMES
290
1
  9
$PSVPSCALE
 40
0.0
  9
$OLESTARTUP
290
0
  9
$SORTENTS
280
127
  9
$INDEXCTL
280
0
  9
$HIDETEXT
280
1
  9
$XCLIPFRAME
280
1
  9
$HALOGAP
280
0
  9
$OBSCOLOR
 70
257
  9
$OBSLTYPE
280
0
  9
$INTERSECTIONDISPLAY
280
0
  9
$INTERSECTIONCOLOR
 70
257
  9
$DIMASSOC
280
2
  9
$PROJECTNAME
  1

  9
$CAMERADISPLAY
290
0
  9
$LENSLENGTH
 40
50.0
  9
$CAMERAHEIGHT
 40
0.0
  9
$STEPSPERSEC
 40
24.0
  9
$STEPSIZE
 40
100.0
  9
$3DDWFPREC
 40
2.0
  9
$PSOLWIDTH
 40
0.005
  9
$PSOLHEIGHT
 40
0.08
  9
$LOFTANG1
 40
1.570796326795
  9
$LOFTANG2
 40
1.570796326795
  9
$LOFTMAG1
 40
0.0
  9
$LOFTMAG2
 40
0.0
  9
$LOFTPARAM
 70
7
  9
$LOFTNORMALS
280
1
  9
$LATITUDE
 40
37.795
  9
$LONGITUDE
 40
-122.394
  9
$NORTHDIRECTION
 40
0.0
  9
$TIMEZONE
 70
-8000
  9
$LIGHTGLYPHDISPLAY
280
1
  9
$TILEMODELIGHTSYNCH
280
1
  9
$CMATERIAL
347
20
  9
$SOLIDHIST
280
0
  9
$SHOWHIST
280
1
  9
$DWFFRAME
280
2
  9
$DGNFRAME
280
2
  9
$REALWORLDSCALE
290
1
  9
$INTERFERECOLOR
 62
256
  9
$CSHADOW
280
0
  9
$SHADOWPLANELOCATION
 40
0.0
  0
ENDSEC
  0
SECTION
  2
CLASSES
  0
CLASS
  1
ACDBDICTIONARYWDFLT
  2
AcDbDictionaryWithDefault
  3
ObjectDBX Classes
 90
0
 91
0
280
0
281
0
  0
CLASS
  1
SUN
  2
AcDbSun
  3
SCENEOE
 90
1153
 91
0
280
0
281
0
  0
CLASS
  1
VISUALSTYLE
  2
AcDbVisualStyle
  3
ObjectDBX Classes
 90
4095
 91
0
280
0
281
0
  0
CLASS
  1
MATERIAL
  2
AcDbMaterial
  3
ObjectDBX Classes
 90
1153
 91
0
280
0
281
0
  0
CLASS
  1
SCALE
  2
AcDbScale
  3
ObjectDBX Classes
 90
1153
 91
0
280
0
281
0
  0
CLASS
  1
TABLESTYLE
  2
AcDbTableStyle
  3
ObjectDBX Classes
 90
4095
 91
0
280
0
281
0
  0
CLASS
  1
MLEADERSTYLE
  2
AcDbMLeaderStyle
  3
ACDB_MLEADERSTYLE_CLASS
 90
4095
 91
0
280
0
281
0
  0
CLASS
  1
DICTIONARYVAR
  2
AcDbDictionaryVar
  3
ObjectDBX Classes
 90
0
 91
0
280
0
281
0
  0
CLASS
  1
CELLSTYLEMAP
  2
AcDbCellStyleMap
  3
ObjectDBX Classes
 90
1152
 91
0
280
0
281
0
  0
CLASS
  1
MENTALRAYRENDERSETTINGS
  2
AcDbMentalRayRenderSettings
  3
SCENEOE
 90
1024
 91
0
280
0
281
0
  0
CLASS
  1
ACDBDETAILVIEWSTYLE
  2
AcDbDetailViewStyle
  3
ObjectDBX Classes
 90
1025
 91
0
280
0
281
0
  0
CLASS
  1
ACDBSECTIONVIEWSTYLE
  2
AcDbSectionViewStyle
  3
ObjectDBX Classes
 90
1025
 91
0
280
0
281
0
  0
CLASS
  1
RASTERVARIABLES
  2
AcDbRasterVariables
  3
ISM
 90
0
 91
0
280
0
281
0
  0
CLASS
  1
LAYOUT
  2
AcDbLayout
  3
ObjectDBX Classes
 90
0
 91
0
280
0
281
0
  0
CLASS
  1
ACDBPLACEHOLDER
  2
AcDbPlaceHolder
  3
ObjectDBX Classes
 90
0
 91
0
280
0
281
0
  0
ENDSEC
  0
SECTION
  2
TABLES
  0
TABLE
  2
VPORT
  5
8
330
0
100
AcDbSymbolTable
 70
1
  0
VPORT
  5
23
330
8
100
AcDbSymbolTableRecord
100
AcDbViewportTableRecord
  2
*Active
 70
0
 10
0.0
 20
0.0
 11
1.0
 21
1.0
 12
0.0
 22
0.0
 13
0.0
 23
0.0
 14
0.5
 24
0.5
 15
0.5
 25
0.5
 16
0.0
 26
0.0
 36
1.0
 17
0.0
 27
0.0
 37
0.0
 40
1000.0
 41
1.34
 42
50.0
 43
0.0
 44
0.0
 50
0.0
 51
0.0
 71
0
 72
1000
 73
1
 74
3
 75
0
 76
0
 77
0
 78
0
281
0
 65
0
146
0.0
  0
ENDTAB
  0
TABLE
  2
LTYPE
  5
2
330
0
100
AcDbSymbolTable
 70
3
  0
LTYPE
  5
24
330
2
100
AcDbSymbolTableRecord
100
AcDbLinetypeTableRecord
  2
ByBlock
 70
0
  3

 72
65
 73
0
 40
0.0
  0
LTYPE
  5
25
330
2
100
AcDbSymbolTableRecord
100
AcDbLinetypeTableRecord
  2
ByLayer
 70
0
  3

 72
65
 73
0
 40
0.0
  0
LTYPE
  5
26
330
2
100
AcDbSymbolTableRecord
100
AcDbLinetypeTableRecord
  2
Continuous
 70
0
  3

 72
65
 73
0
 40
0.0
  0
ENDTAB
  0
TABLE
  2
LAYER
  5
1
330
0
100
AcDbSymbolTable
 70
2
  0
LAYER
  5
27
330
1
100
AcDbSymbolTableRecord
100
AcDbLayerTableRecord
  2
0
 70
0
 62
7
  6
Continuous
370
-3
390
13
347
21
  0
LAYER
  5
28
330
1
100
AcDbSymbolTableRecord
100
AcDbLayerTableRecord
  2
Defpoints
 70
0
 62
7
  6
Continuous
290
0
370
-3
390
13
347
21
  0
ENDTAB
  0
TABLE
  2
STYLE
  5
5
330
0
100
AcDbSymbolTable
 70
1
  0
STYLE
  5
29
330
5
100
AcDbSymbolTableRecord
100
AcDbTextStyleTableRecord
  2
Standard
 70
0
 40
0.0
 41
1.0
 50
0.0
 71
0
 42
2.5
  3
txt
  4

  0
ENDTAB
  0
TABLE
  2
VIEW
  5
7
330
0
100
AcDbSymbolTable
 70
0
  0
ENDTAB
  0
TABLE
  2
UCS
  5
6
330
0
100
AcDbSymbolTable
 70
0
  0
ENDTAB
  0
TABLE
  2
APPID
  5
3
330
0
100
AcDbSymbolTable
 70
3
  0
APPID
  5
2A
330
3
100
AcDbSymbolTableRecord
100
AcDbRegAppTableRecord
  2
ACAD
 70
0
  0
APPID
  5
2C7
330
3
100
AcDbSymbolTableRecord
100
AcDbRegAppTableRecord
  2
HATCHBACKGROUNDCOLOR
 70
0
  0
APPID
  5
2C8
330
3
100
AcDbSymbolTableRecord
100
AcDbRegAppTableRecord
  2
EZDXF
 70
0
  0
ENDTAB
  0
TABLE
  2
DIMSTYLE
  5
4
330
0
100
AcDbSymbolTable
 70
1
100
AcDbDimStyleTable
  0
DIMSTYLE
105
2B
330
4
100
AcDbSymbolTableRecord
100
AcDbDimStyleTableRecord
  2
Standard
 70
0
 40
1.0
 41
2.5
 42
0.625
 43
3.75
 44
1.25
 45
0.0
 46
0.0
 47
0.0
 48
0.0
 49
2.5
140
2.5
141
2.5
142
0.0
143
0.03937007874
144
1.0
145
0.0
146
1.0
147
0.625
148
0.0
 69
0
 70
0
 71
0
 72
0
 73
0
 74
0
 75
0
 76
0
 77
1
 78
8
 79
3
170
0
171
3
172
1
173
0
174
0
175
0
176
0
177
0
178
0
179
2
271
2
272
2
273
2
274
3
275
0
276
0
277
2
278
44
279
0
280
0
281
0
282
0
283
0
284
8
285
0
286
0
288
0
289
3
290
0
371
-2
372
-2
  0
ENDTAB
  0
TABLE
  2
BLOCK_RECORD
  5
9
330
0
100
AcDbSymbolTable
 70
2
  0
BLOCK_RECORD
  5
17
330
9
100
AcDbSymbolTableRecord
100
AcDbBlockTableRecord
  2
*Model_Space
340
1A
 70
0
280
1
281
0
  0
BLOCK_RECORD
  5
1B
330
9
100
AcDbSymbolTableRecord
100
AcDbBlockTableRecord
  2
*Paper_Space
340
1E
 70
0
280
1
281
0
  0
ENDTAB
  0
ENDSEC
  0
SECTION
  2
BLOCKS
  0
BLOCK
  5
18
330
17
100
AcDbEntity
  8
0
100
AcDbBlockBegin
  2
*Model_Space
 70
0
 10
0.0
 20
0.0
 30
0.0
  3
*Model_Space
  1

  0
ENDBLK
  5
19
330
17
100
AcDbEntity
  8
0
100
AcDbBlockEnd
  0
BLOCK
  5
1C
330
1B
100
AcDbEntity
  8
0
100
AcDbBlockBegin
  2
*Paper_Space
 70
0
 10
0.0
 20
0.0
 30
0.0
  3
*Paper_Space
  1

  0
ENDBLK
  5
1D
330
1B
100
AcDbEntity
  8
0
100
AcDbBlockEnd
  0
ENDSEC
  0
SECTION
  2
ENTITIES
  0
LINE
  5
2F
330
17
100
AcDbEntity
  8
0
100
AcDbLine
 10
157.0999755859375
 20
-560.4000244140625
 30
0.0
 11
159.98681640625
 21
-560.4000244140625
 31
0.0
  0
LINE
  5
30
330
17
100
AcDbEntity
  8
0
100
AcDbLine
 10
159.98681640625
 20
-560.4000244140625
 30
0.0
 11
160.0999755859375
 21
-550.4000244140625
 31
0.0
  0
LINE
  5
31
330
17
100
AcDbEntity
  8
0
100
AcDbLine
 10
153.8299560546875
 20
-570.4000244140625
 30
0.0
 11
153.8299560546875
 21
-550.4000244140625
 31
0.0
  0
LINE
  5
32
330
17
100
AcDbEntity
  8
0
100
AcDbLine
 10
163.3699951171875
 20
-570.4000244140625
 30
0.0
 11
153.8299560546875
 21
-570.4000244140625
 31
0.0
  0
LINE
  5
33
330
17
100
AcDbEntity
  8
0
100
AcDbLine
 10
163.3699951171875
 20
-550.4000244140625
 30
0.0
 11
163.3699951171875
 21
-570.4000244140625
 31
0.0
  0
LINE
  5
34
330
17
100
AcDbEntity
  8
0
100
AcDbLine
 10
160.0999755859375
 20
-550.4000244140625
 30
0.0
 11
163.3699951171875
 21
-550.4000244140625
 31
0.0
  0
LINE
  5
35
330
17
100
AcDbEntity
  8
0
100
AcDbLine
 10
157.0999755859375
 20
-560.4000244140625
 30
0.0
 11
157.0999755859375
 21
-550.4000244140625
 31
0.0
  0
LINE
  5
36
330
17
100
AcDbEntity
  8
0
100
AcDbLine
 10
153.8299560546875
 20
-550.4000244140625
 30
0.0
 11
157.0999755859375
 21
-550.4000244140625
 31
0.0
  0
LINE
  5
37
330
17
100
AcDbEntity
  8
0
100
AcDbLine
 10
157.0999755859375
 20
-511.9000244140625
 30
0.0
 11
159.98681640625
 21
-511.9000244140625
 31
0.0
  0
LINE
  5
38
330
17
100
AcDbEntity
  8
0
100
AcDbLine
 10
159.98681640625
 20
-511.9000244140625
 30
0.0
 11
160.0999755859375
 21
-521.9000244140625
 31
0.0
  0
LINE
  5
39
330
17
100
AcDbEntity
  8
0
100
AcDbLine
 10
153.8299560546875
 20
-501.9000244140625
 30
0.0
 11
153.8299560546875
 21
-521.9000244140625
 31
0.0
  0
LINE
  5
3A
330
17
100
AcDbEntity
  8
0
100
AcDbLine
 10
163.3699951171875
 20
-501.9000244140625
 30
0.0
 11
153.8299560546875
 21
-501.9000244140625
 31
0.0
  0
LINE
  5
3B
330
17
100
AcDbEntity
  8
0
100
AcDbLine
 10
163.3699951171875
 20
-521.9000244140625
 30
0.0
 11
163.3699951171875
 21
-501.9000244140625
 31
0.0
  0
LINE
  5
3C
330
17
100
AcDbEntity
  8
0
100
AcDbLine
 10
160.0999755859375
 20
-521.9000244140625
 30
0.0
 11
163.3699951171875
 21
-521.9000244140625
 31
0.0
  0
LINE
  5
3D
330
17
100
AcDbEntity
  8
0
100
AcDbLine
 10
157.0999755859375
 20
-511.9000244140625
 30
0.0
 11
157.0999755859375
 21
-521.9000244140625
 31
0.0
  0
LINE
  5
3E
330
17
100
AcDbEntity
  8
0
100
AcDbLine
 10
153.8299560546875
 20
-521.9000244140625
 30
0.0
 11
157.0999755859375
 21
-521.9000244140625
 31
0.0
  0
LINE
  5
3F
330
17
100
AcDbEntity
  8
0
100
AcDbLine
 10
247.0999755859375
 20
-546.9000244140625
 30
0.0
 11
257.0999755859375
 21
-546.9000244140625
 31
0.0
  0
LINE
  5
40
330
17
100
AcDbEntity
  8
0
100
AcDbLine
 10
257.0999755859375
 20
-546.9000244140625
 30
0.0
 11
257.0999755859375
 21
-543.9000244140625
 31
0.0
  0
LINE
  5
41
330
17
100
AcDbEntity
  8
0
100
AcDbLine
 10
247.0999755859375
 20
-543.9000244140625
 30
0.0
 11
247.0999755859375
 21
-546.9000244140625
 31
0.0
  0
LINE
  5
42
330
17
100
AcDbEntity
  8
0
100
AcDbLine
 10
257.0999755859375
 20
-543.9000244140625
 30
0.0
 11
260.0999755859375
 21
-543.9000244140625
 31
0.0
  0
LINE
  5
43
330
17
100
AcDbEntity
  8
0
100
AcDbLine
 10
247.0999755859375
 20
-543.9000244140625
 30
0.0
 11
238.0999755859375
 21
-543.9000244140625
 31
0.0
  0
LINE
  5
44
330
17
100
AcDbEntity
  8
0
100
AcDbLine
 10
260.0999755859375
 20
-543.9000244140625
 30
0.0
 11
260.0999755859375
 21
-578.4000244140625
 31
0.0
  0
LINE
  5
45
330
17
100
AcDbEntity
  8
0
100
AcDbLine
 10
260.0999755859375
 20
-578.4000244140625
 30
0.0
 11
257.0999755859375
 21
-578.4000244140625
 31
0.0
  0
LINE
  5
46
330
17
100
AcDbEntity
  8
0
100
AcDbLine
 10
257.0999755859375
 20
-578.4000244140625
 30
0.0
 11
257.0999755859375
 21
-575.4000244140625
 31
0.0
  0
LINE
  5
47
330
17
100
AcDbEntity
  8
0
100
AcDbLine
 10
257.0999755859375
 20
-575.4000244140625
 30
0.0
 11
247.0999755859375
 21
-575.4000244140625
 31
0.0
  0
LINE
  5
48
330
17
100
AcDbEntity
  8
0
100
AcDbLine
 10
247.0999755859375
 20
-575.4000244140625
 30
0.0
 11
247.0999755859375
 21
-578.4000244140625
 31
0.0
  0
LINE
  5
49
330
17
100
AcDbEntity
  8
0
100
AcDbLine
 10
241.0999755859375
 20
-578.4000244140625
 30
0.0
 11
247.0999755859375
 21
-578.4000244140625
 31
0.0
  0
LINE
  5
4A
330
17
100
AcDbEntity
  8
0
100
AcDbLine
 10
238.0999755859375
 20
-543.9000244140625
 30
0.0
 11
238.0999755859375
 21
-566.4000244140625
 31
0.0
  0
LINE
  5
4B
330
17
100
AcDbEntity
  8
0
100
AcDbLine
 10
238.0999755859375
 20
-566.4000244140625
 30
0.0
 11
241.0999755859375
 21
-566.4000244140625
 31
0.0
  0
LINE
  5
4C
330
17
100
AcDbEntity
  8
0
100
AcDbLine
 10
241.0999755859375
 20
-578.4000244140625
 30
0.0
 11
241.0999755859375
 21
-566.4000244140625
 31
0.0
  0
LINE
  5
4D
330
17
100
AcDbEntity
  8
0
100
AcDbLine
 10
-58.9000244140625
 20
-445.9000244140625
 30
0.0
 11
-48.9000244140625
 21
-445.9000244140625
 31
0.0
  0
LINE
  5
4E
330
17
100
AcDbEntity
  8
0
100
AcDbLine
 10
-48.9000244140625
 20
-445.9000244140625
 30
0.0
 11
-48.9000244140625
 21
-442.9000244140625
 31
0.0
  0
LINE
  5
4F
330
17
100
AcDbEntity
  8
0
100
AcDbLine
 10
-58.9000244140625
 20
-442.9000244140625
 30
0.0
 11
-58.9000244140625
 21
-445.9000244140625
 31
0.0
  0
LINE
  5
50
330
17
100
AcDbEntity
  8
0
100
AcDbLine
 10
-48.9000244140625
 20
-442.9000244140625
 30
0.0
 11
-45.9000244140625
 21
-442.9000244140625
 31
0.0
  0
LINE
  5
51
330
17
100
AcDbEntity
  8
0
100
AcDbLine
 10
-58.9000244140625
 20
-442.9000244140625
 30
0.0
 11
-67.9000244140625
 21
-442.9000244140625
 31
0.0
  0
LINE
  5
52
330
17
100
AcDbEntity
  8
0
100
AcDbLine
 10
-45.9000244140625
 20
-442.9000244140625
 30
0.0
 11
-45.9000244140625
 21
-477.4000244140625
 31
0.0
  0
LINE
  5
53
330
17
100
AcDbEntity
  8
0
100
AcDbLine
 10
-45.9000244140625
 20
-477.4000244140625
 30
0.0
 11
-48.9000244140625
 21
-477.4000244140625
 31
0.0
  0
LINE
  5
54
330
17
100
AcDbEntity
  8
0
100
AcDbLine
 10
-48.9000244140625
 20
-477.4000244140625
 30
0.0
 11
-48.9000244140625
 21
-474.4000244140625
 31
0.0
  0
LINE
  5
55
330
17
100
AcDbEntity
  8
0
100
AcDbLine
 10
-48.9000244140625
 20
-474.4000244140625
 30
0.0
 11
-58.9000244140625
 21
-474.4000244140625
 31
0.0
  0
LINE
  5
56
330
17
100
AcDbEntity
  8
0
100
AcDbLine
 10
-58.9000244140625
 20
-474.4000244140625
 30
0.0
 11
-58.9000244140625
 21
-477.4000244140625
 31
0.0
  0
LINE
  5
57
330
17
100
AcDbEntity
  8
0
100
AcDbLine
 10
-64.9000244140625
 20
-477.4000244140625
 30
0.0
 11
-58.9000244140625
 21
-477.4000244140625
 31
0.0
  0
LINE
  5
58
330
17
100
AcDbEntity
  8
0
100
AcDbLine
 10
-67.9000244140625
 20
-442.9000244140625
 30
0.0
 11
-67.9000244140625
 21
-465.4000244140625
 31
0.0
  0
LINE
  5
59
330
17
100
AcDbEntity
  8
0
100
AcDbLine
 10
-67.9000244140625
 20
-465.4000244140625
 30
0.0
 11
-64.9000244140625
 21
-465.4000244140625
 31
0.0
  0
LINE
  5
5A
330
17
100
AcDbEntity
  8
0
100
AcDbLine
 10
-64.9000244140625
 20
-477.4000244140625
 30
0.0
 11
-64.9000244140625
 21
-465.4000244140625
 31
0.0
  0
LINE
  5
5B
330
17
100
AcDbEntity
  8
0
100
AcDbLine
 10
-20.09002685546875
 20
-436.9000244140625
 30
0.0
 11
-0.09002685546875
 21
-436.9000244140625
 31
0.0
  0
LINE
  5
5C
330
17
100
AcDbEntity
  8
0
100
AcDbLine
 10
-69.0
 20
-436.9000244140625
 30
0.0
 11
-49.0
 21
-436.9000244140625
 31
0.0
  0
LINE
  5
5D
330
17
100
AcDbEntity
  8
0
100
AcDbLine
 10
-20.09002685546875
 20
-439.9000244140625
 30
0.0
 11
-20.09002685546875
 21
-436.9000244140625
 31
0.0
  0
LINE
  5
5E
330
17
100
AcDbEntity
  8
0
100
AcDbLine
 10
-49.0
 20
-436.9000244140625
 30
0.0
 11
-49.0
 21
-439.9000244140625
 31
0.0
  0
LINE
  5
5F
330
17
100
AcDbEntity
  8
0
100
AcDbLine
 10
-20.09002685546875
 20
-439.9000244140625
 30
0.0
 11
-49.0
 21
-439.9000244140625
 31
0.0
  0
LINE
  5
60
330
17
100
AcDbEntity
  8
0
100
AcDbLine
 10
-69.0
 20
-429.9000244140625
 30
0.0
 11
-69.0
 21
-436.9000244140625
 31
0.0
  0
LINE
  5
61
330
17
100
AcDbEntity
  8
0
100
AcDbLine
 10
-66.0
 20
-429.9000244140625
 30
0.0
 11
-69.0
 21
-429.9000244140625
 31
0.0
  0
LINE
  5
62
330
17
100
AcDbEntity
  8
0
100
AcDbLine
 10
-66.0
 20
-409.9000244140625
 30
0.0
 11
-66.0
 21
-429.9000244140625
 31
0.0
  0
LINE
  5
63
330
17
100
AcDbEntity
  8
0
100
AcDbLine
 10
-69.0
 20
-409.9000244140625
 30
0.0
 11
-66.0
 21
-409.9000244140625
 31
0.0
  0
LINE
  5
64
330
17
100
AcDbEntity
  8
0
100
AcDbLine
 10
-69.0
 20
-402.9000244140625
 30
0.0
 11
-69.0
 21
-409.9000244140625
 31
0.0
  0
LINE
  5
65
330
17
100
AcDbEntity
  8
0
100
AcDbLine
 10
-49.0
 20
-402.9000244140625
 30
0.0
 11
-69.0
 21
-402.9000244140625
 31
0.0
  0
LINE
  5
66
330
17
100
AcDbEntity
  8
0
100
AcDbLine
 10
-49.0
 20
-399.9000244140625
 30
0.0
 11
-49.0
 21
-402.9000244140625
 31
0.0
  0
LINE
  5
67
330
17
100
AcDbEntity
  8
0
100
AcDbLine
 10
-20.09002685546875
 20
-399.9000244140625
 30
0.0
 11
-49.0
 21
-399.9000244140625
 31
0.0
  0
LINE
  5
68
330
17
100
AcDbEntity
  8
0
100
AcDbLine
 10
-20.09002685546875
 20
-402.9000244140625
 30
0.0
 11
-20.09002685546875
 21
-399.9000244140625
 31
0.0
  0
LINE
  5
69
330
17
100
AcDbEntity
  8
0
100
AcDbLine
 10
-0.09002685546875
 20
-402.9000244140625
 30
0.0
 11
-20.09002685546875
 21
-402.9000244140625
 31
0.0
  0
LINE
  5
6A
330
17
100
AcDbEntity
  8
0
100
AcDbLine
 10
-0.09002685546875
 20
-429.9000244140625
 30
0.0
 11
-0.09002685546875
 21
-409.9000244140625
 31
0.0
  0
LINE
  5
6B
330
17
100
AcDbEntity
  8
0
100
AcDbLine
 10
-3.09002685546875
 20
-429.9000244140625
 30
0.0
 11
-3.09002685546875
 21
-409.9000244140625
 31
0.0
  0
LINE
  5
6C
330
17
100
AcDbEntity
  8
0
100
AcDbLine
 10
-0.09002685546875
 20
-409.9000244140625
 30
0.0
 11
-3.09002685546875
 21
-409.9000244140625
 31
0.0
  0
LINE
  5
6D
330
17
100
AcDbEntity
  8
0
100
AcDbLine
 10
-3.09002685546875
 20
-429.9000244140625
 30
0.0
 11
-0.09002685546875
 21
-429.9000244140625
 31
0.0
  0
LINE
  5
6E
330
17
100
AcDbEntity
  8
0
100
AcDbLine
 10
-0.09002685546875
 20
-399.9000244140625
 30
0.0
 11
-0.09002685546875
 21
-402.9000244140625
 31
0.0
  0
LINE
  5
6F
330
17
100
AcDbEntity
  8
0
100
AcDbLine
 10
260.0
 20
-399.9000549316406
 30
0.0
 11
256.90997314453125
 21
-399.9000549316406
 31
0.0
  0
LINE
  5
70
330
17
100
AcDbEntity
  8
0
100
AcDbLine
 10
-0.09002685546875
 20
-436.9000244140625
 30
0.0
 11
-0.09002685546875
 21
-439.9000244140625
 31
0.0
  0
LINE
  5
71
330
17
100
AcDbEntity
  8
0
100
AcDbLine
 10
154.0
 20
-439.9000244140625
 30
0.0
 11
156.92633056640625
 21
-440.18829345703125
 31
0.0
  0
LINE
  5
72
330
17
100
AcDbEntity
  8
0
100
AcDbLine
 10
156.92633056640625
 20
-440.18829345703125
 30
0.0
 11
159.740234375
 21
-441.0418701171875
 31
0.0
  0
LINE
  5
73
330
17
100
AcDbEntity
  8
0
100
AcDbLine
 10
159.740234375
 20
-441.0418701171875
 30
0.0
 11
162.33349609375
 21
-442.427978515625
 31
0.0
  0
LINE
  5
74
330
17
100
AcDbEntity
  8
0
100
AcDbLine
 10
162.33349609375
 20
-442.427978515625
 30
0.0
 11
164.6065673828125
 21
-444.29345703125
 31
0.0
  0
LINE
  5
75
330
17
100
AcDbEntity
  8
0
100
AcDbLine
 10
164.6065673828125
 20
-444.29345703125
 30
0.0
 11
166.4720458984375
 21
-446.56646728515625
 31
0.0
  0
LINE
  5
76
330
17
100
AcDbEntity
  8
0
100
AcDbLine
 10
166.4720458984375
 20
-446.56646728515625
 30
0.0
 11
167.858154296875
 21
-449.1597900390625
 31
0.0
  0
LINE
  5
77
330
17
100
AcDbEntity
  8
0
100
AcDbLine
 10
167.858154296875
 20
-449.1597900390625
 30
0.0
 11
168.71173095703125
 21
-451.97369384765625
 31
0.0
  0
LINE
  5
78
330
17
100
AcDbEntity
  8
0
100
AcDbLine
 10
168.71173095703125
 20
-451.97369384765625
 30
0.0
 11
169.0
 21
-454.9000244140625
 31
0.0
  0
LINE
  5
79
330
17
100
AcDbEntity
  8
0
100
AcDbLine
 10
154.0
 20
-439.9000244140625
 30
0.0
 11
-0.09002685546875
 21
-439.9000244140625
 31
0.0
  0
LINE
  5
7A
330
17
100
AcDbEntity
  8
0
100
AcDbLine
 10
171.99993896484375
 20
-579.9000244140625
 30
0.0
 11
171.2235107421875
 21
-579.7978515625
 31
0.0
  0
LINE
  5
7B
330
17
100
AcDbEntity
  8
0
100
AcDbLine
 10
171.2235107421875
 20
-579.7978515625
 30
0.0
 11
170.49993896484375
 21
-579.4981079101562
 31
0.0
  0
LINE
  5
7C
330
17
100
AcDbEntity
  8
0
100
AcDbLine
 10
170.49993896484375
 20
-579.4981079101562
 30
0.0
 11
169.878662109375
 21
-579.0213623046875
 31
0.0
  0
LINE
  5
7D
330
17
100
AcDbEntity
  8
0
100
AcDbLine
 10
169.878662109375
 20
-579.0213623046875
 30
0.0
 11
169.40185546875
 21
-578.4000244140625
 31
0.0
  0
LINE
  5
7E
330
17
100
AcDbEntity
  8
0
100
AcDbLine
 10
169.40185546875
 20
-578.4000244140625
 30
0.0
 11
169.1021728515625
 21
-577.676513671875
 31
0.0
  0
LINE
  5
7F
330
17
100
AcDbEntity
  8
0
100
AcDbLine
 10
169.1021728515625
 20
-577.676513671875
 30
0.0
 11
168.99993896484375
 21
-576.9000244140625
 31
0.0
  0
LINE
  5
80
330
17
100
AcDbEntity
  8
0
100
AcDbLine
 10
168.99993896484375
 20
-576.9000244140625
 30
0.0
 11
169.0
 21
-454.9000244140625
 31
0.0
  0
LINE
  5
81
330
17
100
AcDbEntity
  8
0
100
AcDbLine
 10
229.5091552734375
 20
-576.9435424804688
 30
0.0
 11
229.27508544921875
 21
-577.708740234375
 31
0.0
  0
LINE
  5
82
330
17
100
AcDbEntity
  8
0
100
AcDbLine
 10
229.27508544921875
 20
-577.708740234375
 30
0.0
 11
228.85260009765625
 21
-578.4218139648438
 31
0.0
  0
LINE
  5
83
330
17
100
AcDbEntity
  8
0
100
AcDbLine
 10
228.85260009765625
 20
-578.4218139648438
 30
0.0
 11
228.2703857421875
 21
-579.0341186523438
 31
0.0
  0
LINE
  5
84
330
17
100
AcDbEntity
  8
0
100
AcDbLine
 10
228.2703857421875
 20
-579.0341186523438
 30
0.0
 11
227.56817626953125
 21
-579.5039672851562
 31
0.0
  0
LINE
  5
85
330
17
100
AcDbEntity
  8
0
100
AcDbLine
 10
227.56817626953125
 20
-579.5039672851562
 30
0.0
 11
226.79376220703125
 21
-579.79931640625
 31
0.0
  0
LINE
  5
86
330
17
100
AcDbEntity
  8
0
100
AcDbLine
 10
226.79376220703125
 20
-579.79931640625
 30
0.0
 11
225.99993896484375
 21
-579.9000244140625
 31
0.0
  0
LINE
  5
87
330
17
100
AcDbEntity
  8
0
100
AcDbLine
 10
260.0
 20
-399.9000549316406
 30
0.0
 11
257.169921875
 21
-416.93536376953125
 31
0.0
  0
LINE
  5
88
330
17
100
AcDbEntity
  8
0
100
AcDbLine
 10
225.99993896484375
 20
-579.9000244140625
 30
0.0
 11
171.99993896484375
 21
-579.9000244140625
 31
0.0
  0
LINE
  5
89
330
17
100
AcDbEntity
  8
0
100
AcDbLine
 10
17.47430419921875
 20
-427.9058532714844
 30
0.0
 11
17.5
 21
-427.4000244140625
 31
0.0
  0
LINE
  5
8A
330
17
100
AcDbEntity
  8
0
100
AcDbLine
 10
17.39764404296875
 20
-428.4065246582031
 30
0.0
 11
17.47430419921875
 21
-427.9058532714844
 31
0.0
  0
LINE
  5
8B
330
17
100
AcDbEntity
  8
0
100
AcDbLine
 10
17.27069091796875
 20
-428.8968505859375
 30
0.0
 11
17.39764404296875
 21
-428.4065246582031
 31
0.0
  0
LINE
  5
8C
330
17
100
AcDbEntity
  8
0
100
AcDbLine
 10
17.09478759765625
 20
-429.3717956542969
 30
0.0
 11
17.27069091796875
 21
-428.8968505859375
 31
0.0
  0
LINE
  5
8D
330
17
100
AcDbEntity
  8
0
100
AcDbLine
 10
16.8717041015625
 20
-429.8265380859375
 30
0.0
 11
17.09478759765625
 21
-429.3717956542969
 31
0.0
  0
LINE
  5
8E
330
17
100
AcDbEntity
  8
0
100
AcDbLine
 10
16.603759765625
 20
-430.2563781738281
 30
0.0
 11
16.8717041015625
 21
-429.8265380859375
 31
0.0
  0
LINE
  5
8F
330
17
100
AcDbEntity
  8
0
100
AcDbLine
 10
16.29376220703125
 20
-430.6568908691406
 30
0.0
 11
16.603759765625
 21
-430.2563781738281
 31
0.0
  0
LINE
  5
90
330
17
100
AcDbEntity
  8
0
100
AcDbLine
 10
15.94482421875
 20
-431.02398681640625
 30
0.0
 11
16.29376220703125
 21
-430.6568908691406
 31
0.0
  0
LINE
  5
91
330
17
100
AcDbEntity
  8
0
100
AcDbLine
 10
15.56048583984375
 20
-431.3539123535156
 30
0.0
 11
15.94482421875
 21
-431.02398681640625
 31
0.0
  0
LINE
  5
92
330
17
100
AcDbEntity
  8
0
100
AcDbLine
 10
15.144775390625
 20
-431.64324951171875
 30
0.0
 11
15.56048583984375
 21
-431.3539123535156
 31
0.0
  0
LINE
  5
93
330
17
100
AcDbEntity
  8
0
100
AcDbLine
 10
14.70196533203125
 20
-431.8890380859375
 30
0.0
 11
15.144775390625
 21
-431.64324951171875
 31
0.0
  0
LINE
  5
94
330
17
100
AcDbEntity
  8
0
100
AcDbLine
 10
14.23651123046875
 20
-432.08880615234375
 30
0.0
 11
14.70196533203125
 21
-431.8890380859375
 31
0.0
  0
LINE
  5
95
330
17
100
AcDbEntity
  8
0
100
AcDbLine
 10
13.75323486328125
 20
-432.24041748046875
 30
0.0
 11
14.23651123046875
 21
-432.08880615234375
 31
0.0
  0
LINE
  5
96
330
17
100
AcDbEntity
  8
0
100
AcDbLine
 10
13.257080078125
 20
-432.34234619140625
 30
0.0
 11
13.75323486328125
 21
-432.24041748046875
 31
0.0
  0
LINE
  5
97
330
17
100
AcDbEntity
  8
0
100
AcDbLine
 10
12.75323486328125
 20
-432.39361572265625
 30
0.0
 11
13.257080078125
 21
-432.34234619140625
 31
0.0
  0
LINE
  5
98
330
17
100
AcDbEntity
  8
0
100
AcDbLine
 10
12.2467041015625
 20
-432.39361572265625
 30
0.0
 11
12.75323486328125
 21
-432.39361572265625
 31
0.0
  0
LINE
  5
99
330
17
100
AcDbEntity
  8
0
100
AcDbLine
 10
11.74285888671875
 20
-432.34234619140625
 30
0.0
 11
12.2467041015625
 21
-432.39361572265625
 31
0.0
  0
LINE
  5
9A
330
17
100
AcDbEntity
  8
0
100
AcDbLine
 10
11.2467041015625
 20
-432.24041748046875
 30
0.0
 11
11.74285888671875
 21
-432.34234619140625
 31
0.0
  0
LINE
  5
9B
330
17
100
AcDbEntity
  8
0
100
AcDbLine
 10
10.763427734375
 20
-432.08880615234375
 30
0.0
 11
11.2467041015625
 21
-432.24041748046875
 31
0.0
  0
LINE
  5
9C
330
17
100
AcDbEntity
  8
0
100
AcDbLine
 10
10.2979736328125
 20
-431.8890380859375
 30
0.0
 11
10.763427734375
 21
-432.08880615234375
 31
0.0
  0
LINE
  5
9D
330
17
100
AcDbEntity
  8
0
100
AcDbLine
 10
9.85516357421875
 20
-431.64324951171875
 30
0.0
 11
10.2979736328125
 21
-431.8890380859375
 31
0.0
  0
LINE
  5
9E
330
17
100
AcDbEntity
  8
0
100
AcDbLine
 10
9.439453125
 20
-431.3539123535156
 30
0.0
 11
9.85516357421875
 21
-431.64324951171875
 31
0.0
  0
LINE
  5
9F
330
17
100
AcDbEntity
  8
0
100
AcDbLine
 10
9.05517578125
 20
-431.02398681640625
 30
0.0
 11
9.439453125
 21
-431.3539123535156
 31
0.0
  0
LINE
  5
A0
330
17
100
AcDbEntity
  8
0
100
AcDbLine
 10
8.7061767578125
 20
-430.6568908691406
 30
0.0
 11
9.05517578125
 21
-431.02398681640625
 31
0.0
  0
LINE
  5
A1
330
17
100
AcDbEntity
  8
0
100
AcDbLine
 10
8.39617919921875
 20
-430.2563781738281
 30
0.0
 11
8.7061767578125
 21
-430.6568908691406
 31
0.0
  0
LINE
  5
A2
330
17
100
AcDbEntity
  8
0
100
AcDbLine
 10
8.12823486328125
 20
-429.8265380859375
 30
0.0
 11
8.39617919921875
 21
-430.2563781738281
 31
0.0
  0
LINE
  5
A3
330
17
100
AcDbEntity
  8
0
100
AcDbLine
 10
7.9051513671875
 20
-429.3717956542969
 30
0.0
 11
8.12823486328125
 21
-429.8265380859375
 31
0.0
  0
LINE
  5
A4
330
17
100
AcDbEntity
  8
0
100
AcDbLine
 10
7.729248046875
 20
-428.8968505859375
 30
0.0
 11
7.9051513671875
 21
-429.3717956542969
 31
0.0
  0
LINE
  5
A5
330
17
100
AcDbEntity
  8
0
100
AcDbLine
 10
7.602294921875
 20
-428.4065246582031
 30
0.0
 11
7.729248046875
 21
-428.8968505859375
 31
0.0
  0
LINE
  5
A6
330
17
100
AcDbEntity
  8
0
100
AcDbLine
 10
7.525634765625
 20
-427.9058532714844
 30
0.0
 11
7.602294921875
 21
-428.4065246582031
 31
0.0
  0
LINE
  5
A7
330
17
100
AcDbEntity
  8
0
100
AcDbLine
 10
7.5
 20
-427.4000244140625
 30
0.0
 11
7.525634765625
 21
-427.9058532714844
 31
0.0
  0
LINE
  5
A8
330
17
100
AcDbEntity
  8
0
100
AcDbLine
 10
7.525634765625
 20
-426.8941955566406
 30
0.0
 11
7.5
 21
-427.4000244140625
 31
0.0
  0
LINE
  5
A9
330
17
100
AcDbEntity
  8
0
100
AcDbLine
 10
7.602294921875
 20
-426.3935241699219
 30
0.0
 11
7.525634765625
 21
-426.8941955566406
 31
0.0
  0
LINE
  5
AA
330
17
100
AcDbEntity
  8
0
100
AcDbLine
 10
7.729248046875
 20
-425.9031982421875
 30
0.0
 11
7.602294921875
 21
-426.3935241699219
 31
0.0
  0
LINE
  5
AB
330
17
100
AcDbEntity
  8
0
100
AcDbLine
 10
7.9051513671875
 20
-425.4282531738281
 30
0.0
 11
7.729248046875
 21
-425.9031982421875
 31
0.0
  0
LINE
  5
AC
330
17
100
AcDbEntity
  8
0
100
AcDbLine
 10
8.12823486328125
 20
-424.9735107421875
 30
0.0
 11
7.9051513671875
 21
-425.4282531738281
 31
0.0
  0
LINE
  5
AD
330
17
100
AcDbEntity
  8
0
100
AcDbLine
 10
8.39617919921875
 20
-424.5436706542969
 30
0.0
 11
8.12823486328125
 21
-424.9735107421875
 31
0.0
  0
LINE
  5
AE
330
17
100
AcDbEntity
  8
0
100
AcDbLine
 10
8.7061767578125
 20
-424.1431579589844
 30
0.0
 11
8.39617919921875
 21
-424.5436706542969
 31
0.0
  0
LINE
  5
AF
330
17
100
AcDbEntity
  8
0
100
AcDbLine
 10
9.05517578125
 20
-423.77606201171875
 30
0.0
 11
8.7061767578125
 21
-424.1431579589844
 31
0.0
  0
LINE
  5
B0
330
17
100
AcDbEntity
  8
0
100
AcDbLine
 10
9.439453125
 20
-423.4461364746094
 30
0.0
 11
9.05517578125
 21
-423.77606201171875
 31
0.0
  0
LINE
  5
B1
330
17
100
AcDbEntity
  8
0
100
AcDbLine
 10
9.85516357421875
 20
-423.15679931640625
 30
0.0
 11
9.439453125
 21
-423.4461364746094
 31
0.0
  0
LINE
  5
B2
330
17
100
AcDbEntity
  8
0
100
AcDbLine
 10
10.2979736328125
 20
-422.9110107421875
 30
0.0
 11
9.85516357421875
 21
-423.15679931640625
 31
0.0
  0
LINE
  5
B3
330
17
100
AcDbEntity
  8
0
100
AcDbLine
 10
10.763427734375
 20
-422.7112731933594
 30
0.0
 11
10.2979736328125
 21
-422.9110107421875
 31
0.0
  0
LINE
  5
B4
330
17
100
AcDbEntity
  8
0
100
AcDbLine
 10
11.2467041015625
 20
-422.55963134765625
 30
0.0
 11
10.763427734375
 21
-422.7112731933594
 31
0.0
  0
LINE
  5
B5
330
17
100
AcDbEntity
  8
0
100
AcDbLine
 10
11.74285888671875
 20
-422.4576721191406
 30
0.0
 11
11.2467041015625
 21
-422.55963134765625
 31
0.0
  0
LINE
  5
B6
330
17
100
AcDbEntity
  8
0
100
AcDbLine
 10
12.2467041015625
 20
-422.40643310546875
 30
0.0
 11
11.74285888671875
 21
-422.4576721191406
 31
0.0
  0
LINE
  5
B7
330
17
100
AcDbEntity
  8
0
100
AcDbLine
 10
12.75323486328125
 20
-422.40643310546875
 30
0.0
 11
12.2467041015625
 21
-422.40643310546875
 31
0.0
  0
LINE
  5
B8
330
17
100
AcDbEntity
  8
0
100
AcDbLine
 10
13.257080078125
 20
-422.4576721191406
 30
0.0
 11
12.75323486328125
 21
-422.40643310546875
 31
0.0
  0
LINE
  5
B9
330
17
100
AcDbEntity
  8
0
100
AcDbLine
 10
13.75323486328125
 20
-422.55963134765625
 30
0.0
 11
13.257080078125
 21
-422.4576721191406
 31
0.0
  0
LINE
  5
BA
330
17
100
AcDbEntity
  8
0
100
AcDbLine
 10
14.23651123046875
 20
-422.7112731933594
 30
0.0
 11
13.75323486328125
 21
-422.55963134765625
 31
0.0
  0
LINE
  5
BB
330
17
100
AcDbEntity
  8
0
100
AcDbLine
 10
14.70196533203125
 20
-422.9110107421875
 30
0.0
 11
14.23651123046875
 21
-422.7112731933594
 31
0.0
  0
LINE
  5
BC
330
17
100
AcDbEntity
  8
0
100
AcDbLine
 10
15.144775390625
 20
-423.15679931640625
 30
0.0
 11
14.70196533203125
 21
-422.9110107421875
 31
0.0
  0
LINE
  5
BD
330
17
100
AcDbEntity
  8
0
100
AcDbLine
 10
15.56048583984375
 20
-423.4461364746094
 30
0.0
 11
15.144775390625
 21
-423.15679931640625
 31
0.0
  0
LINE
  5
BE
330
17
100
AcDbEntity
  8
0
100
AcDbLine
 10
15.94482421875
 20
-423.77606201171875
 30
0.0
 11
15.56048583984375
 21
-423.4461364746094
 31
0.0
  0
LINE
  5
BF
330
17
100
AcDbEntity
  8
0
100
AcDbLine
 10
16.29376220703125
 20
-424.1431579589844
 30
0.0
 11
15.94482421875
 21
-423.77606201171875
 31
0.0
  0
LINE
  5
C0
330
17
100
AcDbEntity
  8
0
100
AcDbLine
 10
16.603759765625
 20
-424.5436706542969
 30
0.0
 11
16.29376220703125
 21
-424.1431579589844
 31
0.0
  0
LINE
  5
C1
330
17
100
AcDbEntity
  8
0
100
AcDbLine
 10
16.8717041015625
 20
-424.9735107421875
 30
0.0
 11
16.603759765625
 21
-424.5436706542969
 31
0.0
  0
LINE
  5
C2
330
17
100
AcDbEntity
  8
0
100
AcDbLine
 10
17.09478759765625
 20
-425.4282531738281
 30
0.0
 11
16.8717041015625
 21
-424.9735107421875
 31
0.0
  0
LINE
  5
C3
330
17
100
AcDbEntity
  8
0
100
AcDbLine
 10
17.27069091796875
 20
-425.9031982421875
 30
0.0
 11
17.09478759765625
 21
-425.4282531738281
 31
0.0
  0
LINE
  5
C4
330
17
100
AcDbEntity
  8
0
100
AcDbLine
 10
17.39764404296875
 20
-426.3935241699219
 30
0.0
 11
17.27069091796875
 21
-425.9031982421875
 31
0.0
  0
LINE
  5
C5
330
17
100
AcDbEntity
  8
0
100
AcDbLine
 10
17.47430419921875
 20
-426.8941955566406
 30
0.0
 11
17.39764404296875
 21
-426.3935241699219
 31
0.0
  0
LINE
  5
C6
330
17
100
AcDbEntity
  8
0
100
AcDbLine
 10
17.5
 20
-427.4000244140625
 30
0.0
 11
17.47430419921875
 21
-426.8941955566406
 31
0.0
  0
LINE
  5
C7
330
17
100
AcDbEntity
  8
0
100
AcDbLine
 10
220.99993896484375
 20
-574.9000244140625
 30
0.0
 11
210.99993896484375
 21
-574.9000244140625
 31
0.0
  0
LINE
  5
C8
330
17
100
AcDbEntity
  8
0
100
AcDbLine
 10
180.99993896484375
 20
-574.9000244140625
 30
0.0
 11
190.99993896484375
 21
-574.9000244140625
 31
0.0
  0
LINE
  5
C9
330
17
100
AcDbEntity
  8
0
100
AcDbLine
 10
220.99993896484375
 20
-571.9000244140625
 30
0.0
 11
210.99993896484375
 21
-571.9000244140625
 31
0.0
  0
LINE
  5
CA
330
17
100
AcDbEntity
  8
0
100
AcDbLine
 10
180.99993896484375
 20
-571.9000244140625
 30
0.0
 11
190.99993896484375
 21
-571.9000244140625
 31
0.0
  0
LINE
  5
CB
330
17
100
AcDbEntity
  8
0
100
AcDbLine
 10
190.99993896484375
 20
-574.9000244140625
 30
0.0
 11
190.99993896484375
 21
-571.9000244140625
 31
0.0
  0
LINE
  5
CC
330
17
100
AcDbEntity
  8
0
100
AcDbLine
 10
180.99993896484375
 20
-571.9000244140625
 30
0.0
 11
180.99993896484375
 21
-574.9000244140625
 31
0.0
  0
LINE
  5
CD
330
17
100
AcDbEntity
  8
0
100
AcDbLine
 10
210.99993896484375
 20
-574.9000244140625
 30
0.0
 11
210.99993896484375
 21
-571.9000244140625
 31
0.0
  0
LINE
  5
CE
330
17
100
AcDbEntity
  8
0
100
AcDbLine
 10
220.99993896484375
 20
-571.9000244140625
 30
0.0
 11
220.99993896484375
 21
-574.9000244140625
 31
0.0
  0
LINE
  5
CF
330
17
100
AcDbEntity
  8
0
100
AcDbLine
 10
229.5091552734375
 20
-576.9435424804688
 30
0.0
 11
251.99658203125
 21
-446.4859619140625
 31
0.0
  0
LINE
  5
D0
330
17
100
AcDbEntity
  8
0
100
AcDbLine
 10
251.99658203125
 20
-446.4859619140625
 30
0.0
 11
249.04150390625
 21
-445.9686279296875
 31
0.0
  0
LINE
  5
D1
330
17
100
AcDbEntity
  8
0
100
AcDbLine
 10
249.04150390625
 20
-445.9686279296875
 30
0.0
 11
254.21484375
 21
-416.41802978515625
 31
0.0
  0
LINE
  5
D2
330
17
100
AcDbEntity
  8
0
100
AcDbLine
 10
257.169921875
 20
-416.93536376953125
 30
0.0
 11
254.21484375
 21
-416.41802978515625
 31
0.0
  0
LINE
  5
D3
330
17
100
AcDbEntity
  8
0
100
AcDbLine
 10
-0.09002685546875
 20
-399.9000244140625
 30
0.0
 11
226.90997314453125
 21
-399.9000549316406
 31
0.0
  0
LINE
  5
D4
330
17
100
AcDbEntity
  8
0
100
AcDbLine
 10
256.90997314453125
 20
-402.9000549316406
 30
0.0
 11
226.90997314453125
 21
-402.9000549316406
 31
0.0
  0
LINE
  5
D5
330
17
100
AcDbEntity
  8
0
100
AcDbLine
 10
226.90997314453125
 20
-399.9000549316406
 30
0.0
 11
226.90997314453125
 21
-402.9000549316406
 31
0.0
  0
LINE
  5
D6
330
17
100
AcDbEntity
  8
0
100
AcDbLine
 10
256.90997314453125
 20
-402.9000549316406
 30
0.0
 11
256.90997314453125
 21
-399.9000549316406
 31
0.0
  0
LINE
  5
D7
330
17
100
AcDbEntity
  8
0
100
AcDbLine
 10
247.3170166015625
 20
-455.81878662109375
 30
0.0
 11
247.8343505859375
 21
-452.86376953125
 31
0.0
  0
LINE
  5
D8
330
17
100
AcDbEntity
  8
0
100
AcDbLine
 10
247.3170166015625
 20
-455.81878662109375
 30
0.0
 11
198.06610107421875
 21
-447.196533203125
 31
0.0
  0
LINE
  5
D9
330
17
100
AcDbEntity
  8
0
100
AcDbLine
 10
247.8343505859375
 20
-452.86376953125
 30
0.0
 11
198.58343505859375
 21
-444.24151611328125
 31
0.0
  0
LINE
  5
DA
330
17
100
AcDbEntity
  8
0
100
AcDbLine
 10
198.06610107421875
 20
-447.196533203125
 30
0.0
 11
198.58343505859375
 21
-444.24151611328125
 31
0.0
  0
LINE
  5
DB
330
17
100
AcDbEntity
  8
0
100
AcDbLine
 10
79.66680908203125
 20
-426.4686584472656
 30
0.0
 11
30.41583251953125
 21
-417.8464050292969
 31
0.0
  0
LINE
  5
DC
330
17
100
AcDbEntity
  8
0
100
AcDbLine
 10
80.18414306640625
 20
-423.51361083984375
 30
0.0
 11
30.93316650390625
 21
-414.891357421875
 31
0.0
  0
LINE
  5
DD
330
17
100
AcDbEntity
  8
0
100
AcDbLine
 10
30.41583251953125
 20
-417.8464050292969
 30
0.0
 11
30.93316650390625
 21
-414.891357421875
 31
0.0
  0
LINE
  5
DE
330
17
100
AcDbEntity
  8
0
100
AcDbLine
 10
79.66680908203125
 20
-426.4686584472656
 30
0.0
 11
80.18414306640625
 21
-423.51361083984375
 31
0.0
  0
LINE
  5
DF
330
17
100
AcDbEntity
  8
0
100
AcDbLine
 10
39.0999755859375
 20
-454.9000244140625
 30
0.0
 11
43.0999755859375
 21
-454.9000244140625
 31
0.0
  0
LINE
  5
E0
330
17
100
AcDbEntity
  8
0
100
AcDbLine
 10
43.0999755859375
 20
-454.9000244140625
 30
0.0
 11
43.0999755859375
 21
-451.9000244140625
 31
0.0
  0
LINE
  5
E1
330
17
100
AcDbEntity
  8
0
100
AcDbLine
 10
30.0999755859375
 20
-451.9000244140625
 30
0.0
 11
30.0999755859375
 21
-454.9000244140625
 31
0.0
  0
LINE
  5
E2
330
17
100
AcDbEntity
  8
0
100
AcDbLine
 10
30.0999755859375
 20
-454.9000244140625
 30
0.0
 11
33.0999755859375
 21
-454.9000244140625
 31
0.0
  0
LINE
  5
E3
330
17
100
AcDbEntity
  8
0
100
AcDbLine
 10
30.0999755859375
 20
-451.9000244140625
 30
0.0
 11
43.0999755859375
 21
-451.9000244140625
 31
0.0
  0
LINE
  5
E4
330
17
100
AcDbEntity
  8
0
100
AcDbLine
 10
33.0999755859375
 20
-457.9000244140625
 30
0.0
 11
39.0999755859375
 21
-457.9000244140625
 31
0.0
  0
LINE
  5
E5
330
17
100
AcDbEntity
  8
0
100
AcDbLine
 10
33.0999755859375
 20
-454.9000244140625
 30
0.0
 11
33.0999755859375
 21
-457.9000244140625
 31
0.0
  0
LINE
  5
E6
330
17
100
AcDbEntity
  8
0
100
AcDbLine
 10
39.0999755859375
 20
-457.9000244140625
 30
0.0
 11
39.0999755859375
 21
-454.9000244140625
 31
0.0
  0
LINE
  5
E7
330
17
100
AcDbEntity
  8
0
100
AcDbLine
 10
39.0999755859375
 20
-444.9000244140625
 30
0.0
 11
43.0999755859375
 21
-444.9000244140625
 31
0.0
  0
LINE
  5
E8
330
17
100
AcDbEntity
  8
0
100
AcDbLine
 10
43.0999755859375
 20
-444.9000244140625
 30
0.0
 11
43.0999755859375
 21
-441.9000244140625
 31
0.0
  0
LINE
  5
E9
330
17
100
AcDbEntity
  8
0
100
AcDbLine
 10
30.0999755859375
 20
-441.9000244140625
 30
0.0
 11
30.0999755859375
 21
-444.9000244140625
 31
0.0
  0
LINE
  5
EA
330
17
100
AcDbEntity
  8
0
100
AcDbLine
 10
30.0999755859375
 20
-444.9000244140625
 30
0.0
 11
33.0999755859375
 21
-444.9000244140625
 31
0.0
  0
LINE
  5
EB
330
17
100
AcDbEntity
  8
0
100
AcDbLine
 10
30.0999755859375
 20
-441.9000244140625
 30
0.0
 11
43.0999755859375
 21
-441.9000244140625
 31
0.0
  0
LINE
  5
EC
330
17
100
AcDbEntity
  8
0
100
AcDbLine
 10
33.0999755859375
 20
-447.9000244140625
 30
0.0
 11
39.0999755859375
 21
-447.9000244140625
 31
0.0
  0
LINE
  5
ED
330
17
100
AcDbEntity
  8
0
100
AcDbLine
 10
33.0999755859375
 20
-444.9000244140625
 30
0.0
 11
33.0999755859375
 21
-447.9000244140625
 31
0.0
  0
LINE
  5
EE
330
17
100
AcDbEntity
  8
0
100
AcDbLine
 10
39.0999755859375
 20
-447.9000244140625
 30
0.0
 11
39.0999755859375
 21
-444.9000244140625
 31
0.0
  0
LINE
  5
EF
330
17
100
AcDbEntity
  8
0
100
AcDbLine
 10
54.0999755859375
 20
-454.9000244140625
 30
0.0
 11
58.0999755859375
 21
-454.9000244140625
 31
0.0
  0
LINE
  5
F0
330
17
100
AcDbEntity
  8
0
100
AcDbLine
 10
58.0999755859375
 20
-454.9000244140625
 30
0.0
 11
58.0999755859375
 21
-451.9000244140625
 31
0.0
  0
LINE
  5
F1
330
17
100
AcDbEntity
  8
0
100
AcDbLine
 10
45.0999755859375
 20
-451.9000244140625
 30
0.0
 11
45.0999755859375
 21
-454.9000244140625
 31
0.0
  0
LINE
  5
F2
330
17
100
AcDbEntity
  8
0
100
AcDbLine
 10
45.0999755859375
 20
-454.9000244140625
 30
0.0
 11
48.0999755859375
 21
-454.9000244140625
 31
0.0
  0
LINE
  5
F3
330
17
100
AcDbEntity
  8
0
100
AcDbLine
 10
45.0999755859375
 20
-451.9000244140625
 30
0.0
 11
58.0999755859375
 21
-451.9000244140625
 31
0.0
  0
LINE
  5
F4
330
17
100
AcDbEntity
  8
0
100
AcDbLine
 10
48.0999755859375
 20
-457.9000244140625
 30
0.0
 11
54.0999755859375
 21
-457.9000244140625
 31
0.0
  0
LINE
  5
F5
330
17
100
AcDbEntity
  8
0
100
AcDbLine
 10
48.0999755859375
 20
-454.9000244140625
 30
0.0
 11
48.0999755859375
 21
-457.9000244140625
 31
0.0
  0
LINE
  5
F6
330
17
100
AcDbEntity
  8
0
100
AcDbLine
 10
54.0999755859375
 20
-457.9000244140625
 30
0.0
 11
54.0999755859375
 21
-454.9000244140625
 31
0.0
  0
LINE
  5
F7
330
17
100
AcDbEntity
  8
0
100
AcDbLine
 10
54.0999755859375
 20
-444.9000244140625
 30
0.0
 11
58.0999755859375
 21
-444.9000244140625
 31
0.0
  0
LINE
  5
F8
330
17
100
AcDbEntity
  8
0
100
AcDbLine
 10
58.0999755859375
 20
-444.9000244140625
 30
0.0
 11
58.0999755859375
 21
-441.9000244140625
 31
0.0
  0
LINE
  5
F9
330
17
100
AcDbEntity
  8
0
100
AcDbLine
 10
45.0999755859375
 20
-441.9000244140625
 30
0.0
 11
45.0999755859375
 21
-444.9000244140625
 31
0.0
  0
LINE
  5
FA
330
17
100
AcDbEntity
  8
0
100
AcDbLine
 10
45.0999755859375
 20
-444.9000244140625
 30
0.0
 11
48.0999755859375
 21
-444.9000244140625
 31
0.0
  0
LINE
  5
FB
330
17
100
AcDbEntity
  8
0
100
AcDbLine
 10
45.0999755859375
 20
-441.9000244140625
 30
0.0
 11
58.0999755859375
 21
-441.9000244140625
 31
0.0
  0
LINE
  5
FC
330
17
100
AcDbEntity
  8
0
100
AcDbLine
 10
48.0999755859375
 20
-447.9000244140625
 30
0.0
 11
54.0999755859375
 21
-447.9000244140625
 31
0.0
  0
LINE
  5
FD
330
17
100
AcDbEntity
  8
0
100
AcDbLine
 10
48.0999755859375
 20
-444.9000244140625
 30
0.0
 11
48.0999755859375
 21
-447.9000244140625
 31
0.0
  0
LINE
  5
FE
330
17
100
AcDbEntity
  8
0
100
AcDbLine
 10
54.0999755859375
 20
-447.9000244140625
 30
0.0
 11
54.0999755859375
 21
-444.9000244140625
 31
0.0
  0
LINE
  5
FF
330
17
100
AcDbEntity
  8
0
100
AcDbLine
 10
69.0999755859375
 20
-454.9000244140625
 30
0.0
 11
73.0999755859375
 21
-454.9000244140625
 31
0.0
  0
LINE
  5
100
330
17
100
AcDbEntity
  8
0
100
AcDbLine
 10
73.0999755859375
 20
-454.9000244140625
 30
0.0
 11
73.0999755859375
 21
-451.9000244140625
 31
0.0
  0
LINE
  5
101
330
17
100
AcDbEntity
  8
0
100
AcDbLine
 10
60.0999755859375
 20
-451.9000244140625
 30
0.0
 11
60.0999755859375
 21
-454.9000244140625
 31
0.0
  0
LINE
  5
102
330
17
100
AcDbEntity
  8
0
100
AcDbLine
 10
60.0999755859375
 20
-454.9000244140625
 30
0.0
 11
63.0999755859375
 21
-454.9000244140625
 31
0.0
  0
LINE
  5
103
330
17
100
AcDbEntity
  8
0
100
AcDbLine
 10
60.0999755859375
 20
-451.9000244140625
 30
0.0
 11
73.0999755859375
 21
-451.9000244140625
 31
0.0
  0
LINE
  5
104
330
17
100
AcDbEntity
  8
0
100
AcDbLine
 10
63.0999755859375
 20
-457.9000244140625
 30
0.0
 11
69.0999755859375
 21
-457.9000244140625
 31
0.0
  0
LINE
  5
105
330
17
100
AcDbEntity
  8
0
100
AcDbLine
 10
63.0999755859375
 20
-454.9000244140625
 30
0.0
 11
63.0999755859375
 21
-457.9000244140625
 31
0.0
  0
LINE
  5
106
330
17
100
AcDbEntity
  8
0
100
AcDbLine
 10
69.0999755859375
 20
-457.9000244140625
 30
0.0
 11
69.0999755859375
 21
-454.9000244140625
 31
0.0
  0
LINE
  5
107
330
17
100
AcDbEntity
  8
0
100
AcDbLine
 10
69.0999755859375
 20
-444.9000244140625
 30
0.0
 11
73.0999755859375
 21
-444.9000244140625
 31
0.0
  0
LINE
  5
108
330
17
100
AcDbEntity
  8
0
100
AcDbLine
 10
73.0999755859375
 20
-444.9000244140625
 30
0.0
 11
73.0999755859375
 21
-441.9000244140625
 31
0.0
  0
LINE
  5
109
330
17
100
AcDbEntity
  8
0
100
AcDbLine
 10
60.0999755859375
 20
-441.9000244140625
 30
0.0
 11
60.0999755859375
 21
-444.9000244140625
 31
0.0
  0
LINE
  5
10A
330
17
100
AcDbEntity
  8
0
100
AcDbLine
 10
60.0999755859375
 20
-444.9000244140625
 30
0.0
 11
63.0999755859375
 21
-444.9000244140625
 31
0.0
  0
LINE
  5
10B
330
17
100
AcDbEntity
  8
0
100
AcDbLine
 10
60.0999755859375
 20
-441.9000244140625
 30
0.0
 11
73.0999755859375
 21
-441.9000244140625
 31
0.0
  0
LINE
  5
10C
330
17
100
AcDbEntity
  8
0
100
AcDbLine
 10
63.0999755859375
 20
-447.9000244140625
 30
0.0
 11
69.0999755859375
 21
-447.9000244140625
 31
0.0
  0
LINE
  5
10D
330
17
100
AcDbEntity
  8
0
100
AcDbLine
 10
63.0999755859375
 20
-444.9000244140625
 30
0.0
 11
63.0999755859375
 21
-447.9000244140625
 31
0.0
  0
LINE
  5
10E
330
17
100
AcDbEntity
  8
0
100
AcDbLine
 10
69.0999755859375
 20
-447.9000244140625
 30
0.0
 11
69.0999755859375
 21
-444.9000244140625
 31
0.0
  0
LINE
  5
10F
330
17
100
AcDbEntity
  8
0
100
AcDbLine
 10
84.0999755859375
 20
-454.9000244140625
 30
0.0
 11
88.0999755859375
 21
-454.9000244140625
 31
0.0
  0
LINE
  5
110
330
17
100
AcDbEntity
  8
0
100
AcDbLine
 10
88.0999755859375
 20
-454.9000244140625
 30
0.0
 11
88.0999755859375
 21
-451.9000244140625
 31
0.0
  0
LINE
  5
111
330
17
100
AcDbEntity
  8
0
100
AcDbLine
 10
75.0999755859375
 20
-451.9000244140625
 30
0.0
 11
75.0999755859375
 21
-454.9000244140625
 31
0.0
  0
LINE
  5
112
330
17
100
AcDbEntity
  8
0
100
AcDbLine
 10
75.0999755859375
 20
-454.9000244140625
 30
0.0
 11
78.0999755859375
 21
-454.9000244140625
 31
0.0
  0
LINE
  5
113
330
17
100
AcDbEntity
  8
0
100
AcDbLine
 10
75.0999755859375
 20
-451.9000244140625
 30
0.0
 11
88.0999755859375
 21
-451.9000244140625
 31
0.0
  0
LINE
  5
114
330
17
100
AcDbEntity
  8
0
100
AcDbLine
 10
78.0999755859375
 20
-457.9000244140625
 30
0.0
 11
84.0999755859375
 21
-457.9000244140625
 31
0.0
  0
LINE
  5
115
330
17
100
AcDbEntity
  8
0
100
AcDbLine
 10
78.0999755859375
 20
-454.9000244140625
 30
0.0
 11
78.0999755859375
 21
-457.9000244140625
 31
0.0
  0
LINE
  5
116
330
17
100
AcDbEntity
  8
0
100
AcDbLine
 10
84.0999755859375
 20
-457.9000244140625
 30
0.0
 11
84.0999755859375
 21
-454.9000244140625
 31
0.0
  0
LINE
  5
117
330
17
100
AcDbEntity
  8
0
100
AcDbLine
 10
84.0999755859375
 20
-444.9000244140625
 30
0.0
 11
88.0999755859375
 21
-444.9000244140625
 31
0.0
  0
LINE
  5
118
330
17
100
AcDbEntity
  8
0
100
AcDbLine
 10
88.0999755859375
 20
-444.9000244140625
 30
0.0
 11
88.0999755859375
 21
-441.9000244140625
 31
0.0
  0
LINE
  5
119
330
17
100
AcDbEntity
  8
0
100
AcDbLine
 10
75.0999755859375
 20
-441.9000244140625
 30
0.0
 11
75.0999755859375
 21
-444.9000244140625
 31
0.0
  0
LINE
  5
11A
330
17
100
AcDbEntity
  8
0
100
AcDbLine
 10
75.0999755859375
 20
-444.9000244140625
 30
0.0
 11
78.0999755859375
 21
-444.9000244140625
 31
0.0
  0
LINE
  5
11B
330
17
100
AcDbEntity
  8
0
100
AcDbLine
 10
75.0999755859375
 20
-441.9000244140625
 30
0.0
 11
88.0999755859375
 21
-441.9000244140625
 31
0.0
  0
LINE
  5
11C
330
17
100
AcDbEntity
  8
0
100
AcDbLine
 10
78.0999755859375
 20
-447.9000244140625
 30
0.0
 11
84.0999755859375
 21
-447.9000244140625
 31
0.0
  0
LINE
  5
11D
330
17
100
AcDbEntity
  8
0
100
AcDbLine
 10
78.0999755859375
 20
-444.9000244140625
 30
0.0
 11
78.0999755859375
 21
-447.9000244140625
 31
0.0
  0
LINE
  5
11E
330
17
100
AcDbEntity
  8
0
100
AcDbLine
 10
84.0999755859375
 20
-447.9000244140625
 30
0.0
 11
84.0999755859375
 21
-444.9000244140625
 31
0.0
  0
LINE
  5
11F
330
17
100
AcDbEntity
  8
0
100
AcDbLine
 10
99.0999755859375
 20
-454.9000244140625
 30
0.0
 11
103.0999755859375
 21
-454.9000244140625
 31
0.0
  0
LINE
  5
120
330
17
100
AcDbEntity
  8
0
100
AcDbLine
 10
103.0999755859375
 20
-454.9000244140625
 30
0.0
 11
103.0999755859375
 21
-451.9000244140625
 31
0.0
  0
LINE
  5
121
330
17
100
AcDbEntity
  8
0
100
AcDbLine
 10
90.0999755859375
 20
-451.9000244140625
 30
0.0
 11
90.0999755859375
 21
-454.9000244140625
 31
0.0
  0
LINE
  5
122
330
17
100
AcDbEntity
  8
0
100
AcDbLine
 10
90.0999755859375
 20
-454.9000244140625
 30
0.0
 11
93.0999755859375
 21
-454.9000244140625
 31
0.0
  0
LINE
  5
123
330
17
100
AcDbEntity
  8
0
100
AcDbLine
 10
90.0999755859375
 20
-451.9000244140625
 30
0.0
 11
103.0999755859375
 21
-451.9000244140625
 31
0.0
  0
LINE
  5
124
330
17
100
AcDbEntity
  8
0
100
AcDbLine
 10
93.0999755859375
 20
-457.9000244140625
 30
0.0
 11
99.0999755859375
 21
-457.9000244140625
 31
0.0
  0
LINE
  5
125
330
17
100
AcDbEntity
  8
0
100
AcDbLine
 10
93.0999755859375
 20
-454.9000244140625
 30
0.0
 11
93.0999755859375
 21
-457.9000244140625
 31
0.0
  0
LINE
  5
126
330
17
100
AcDbEntity
  8
0
100
AcDbLine
 10
99.0999755859375
 20
-457.9000244140625
 30
0.0
 11
99.0999755859375
 21
-454.9000244140625
 31
0.0
  0
LINE
  5
127
330
17
100
AcDbEntity
  8
0
100
AcDbLine
 10
99.0999755859375
 20
-444.9000244140625
 30
0.0
 11
103.0999755859375
 21
-444.9000244140625
 31
0.0
  0
LINE
  5
128
330
17
100
AcDbEntity
  8
0
100
AcDbLine
 10
103.0999755859375
 20
-444.9000244140625
 30
0.0
 11
103.0999755859375
 21
-441.9000244140625
 31
0.0
  0
LINE
  5
129
330
17
100
AcDbEntity
  8
0
100
AcDbLine
 10
90.0999755859375
 20
-441.9000244140625
 30
0.0
 11
90.0999755859375
 21
-444.9000244140625
 31
0.0
  0
LINE
  5
12A
330
17
100
AcDbEntity
  8
0
100
AcDbLine
 10
90.0999755859375
 20
-444.9000244140625
 30
0.0
 11
93.0999755859375
 21
-444.9000244140625
 31
0.0
  0
LINE
  5
12B
330
17
100
AcDbEntity
  8
0
100
AcDbLine
 10
90.0999755859375
 20
-441.9000244140625
 30
0.0
 11
103.0999755859375
 21
-441.9000244140625
 31
0.0
  0
LINE
  5
12C
330
17
100
AcDbEntity
  8
0
100
AcDbLine
 10
93.0999755859375
 20
-447.9000244140625
 30
0.0
 11
99.0999755859375
 21
-447.9000244140625
 31
0.0
  0
LINE
  5
12D
330
17
100
AcDbEntity
  8
0
100
AcDbLine
 10
93.0999755859375
 20
-444.9000244140625
 30
0.0
 11
93.0999755859375
 21
-447.9000244140625
 31
0.0
  0
LINE
  5
12E
330
17
100
AcDbEntity
  8
0
100
AcDbLine
 10
99.0999755859375
 20
-447.9000244140625
 30
0.0
 11
99.0999755859375
 21
-444.9000244140625
 31
0.0
  0
LINE
  5
12F
330
17
100
AcDbEntity
  8
0
100
AcDbLine
 10
114.0999755859375
 20
-454.9000244140625
 30
0.0
 11
118.0999755859375
 21
-454.9000244140625
 31
0.0
  0
LINE
  5
130
330
17
100
AcDbEntity
  8
0
100
AcDbLine
 10
118.0999755859375
 20
-454.9000244140625
 30
0.0
 11
118.0999755859375
 21
-451.9000244140625
 31
0.0
  0
LINE
  5
131
330
17
100
AcDbEntity
  8
0
100
AcDbLine
 10
105.0999755859375
 20
-451.9000244140625
 30
0.0
 11
105.0999755859375
 21
-454.9000244140625
 31
0.0
  0
LINE
  5
132
330
17
100
AcDbEntity
  8
0
100
AcDbLine
 10
105.0999755859375
 20
-454.9000244140625
 30
0.0
 11
108.0999755859375
 21
-454.9000244140625
 31
0.0
  0
LINE
  5
133
330
17
100
AcDbEntity
  8
0
100
AcDbLine
 10
105.0999755859375
 20
-451.9000244140625
 30
0.0
 11
118.0999755859375
 21
-451.9000244140625
 31
0.0
  0
LINE
  5
134
330
17
100
AcDbEntity
  8
0
100
AcDbLine
 10
108.0999755859375
 20
-457.9000244140625
 30
0.0
 11
114.0999755859375
 21
-457.9000244140625
 31
0.0
  0
LINE
  5
135
330
17
100
AcDbEntity
  8
0
100
AcDbLine
 10
108.0999755859375
 20
-454.9000244140625
 30
0.0
 11
108.0999755859375
 21
-457.9000244140625
 31
0.0
  0
LINE
  5
136
330
17
100
AcDbEntity
  8
0
100
AcDbLine
 10
114.0999755859375
 20
-457.9000244140625
 30
0.0
 11
114.0999755859375
 21
-454.9000244140625
 31
0.0
  0
LINE
  5
137
330
17
100
AcDbEntity
  8
0
100
AcDbLine
 10
114.0999755859375
 20
-444.9000244140625
 30
0.0
 11
118.0999755859375
 21
-444.9000244140625
 31
0.0
  0
LINE
  5
138
330
17
100
AcDbEntity
  8
0
100
AcDbLine
 10
118.0999755859375
 20
-444.9000244140625
 30
0.0
 11
118.0999755859375
 21
-441.9000244140625
 31
0.0
  0
LINE
  5
139
330
17
100
AcDbEntity
  8
0
100
AcDbLine
 10
105.0999755859375
 20
-441.9000244140625
 30
0.0
 11
105.0999755859375
 21
-444.9000244140625
 31
0.0
  0
LINE
  5
13A
330
17
100
AcDbEntity
  8
0
100
AcDbLine
 10
105.0999755859375
 20
-444.9000244140625
 30
0.0
 11
108.0999755859375
 21
-444.9000244140625
 31
0.0
  0
LINE
  5
13B
330
17
100
AcDbEntity
  8
0
100
AcDbLine
 10
105.0999755859375
 20
-441.9000244140625
 30
0.0
 11
118.0999755859375
 21
-441.9000244140625
 31
0.0
  0
LINE
  5
13C
330
17
100
AcDbEntity
  8
0
100
AcDbLine
 10
108.0999755859375
 20
-447.9000244140625
 30
0.0
 11
114.0999755859375
 21
-447.9000244140625
 31
0.0
  0
LINE
  5
13D
330
17
100
AcDbEntity
  8
0
100
AcDbLine
 10
108.0999755859375
 20
-444.9000244140625
 30
0.0
 11
108.0999755859375
 21
-447.9000244140625
 31
0.0
  0
LINE
  5
13E
330
17
100
AcDbEntity
  8
0
100
AcDbLine
 10
114.0999755859375
 20
-447.9000244140625
 30
0.0
 11
114.0999755859375
 21
-444.9000244140625
 31
0.0
  0
LINE
  5
13F
330
17
100
AcDbEntity
  8
0
100
AcDbLine
 10
129.0999755859375
 20
-454.9000244140625
 30
0.0
 11
133.0999755859375
 21
-454.9000244140625
 31
0.0
  0
LINE
  5
140
330
17
100
AcDbEntity
  8
0
100
AcDbLine
 10
133.0999755859375
 20
-454.9000244140625
 30
0.0
 11
133.0999755859375
 21
-451.9000244140625
 31
0.0
  0
LINE
  5
141
330
17
100
AcDbEntity
  8
0
100
AcDbLine
 10
120.0999755859375
 20
-451.9000244140625
 30
0.0
 11
120.0999755859375
 21
-454.9000244140625
 31
0.0
  0
LINE
  5
142
330
17
100
AcDbEntity
  8
0
100
AcDbLine
 10
120.0999755859375
 20
-454.9000244140625
 30
0.0
 11
123.0999755859375
 21
-454.9000244140625
 31
0.0
  0
LINE
  5
143
330
17
100
AcDbEntity
  8
0
100
AcDbLine
 10
120.0999755859375
 20
-451.9000244140625
 30
0.0
 11
133.0999755859375
 21
-451.9000244140625
 31
0.0
  0
LINE
  5
144
330
17
100
AcDbEntity
  8
0
100
AcDbLine
 10
123.0999755859375
 20
-457.9000244140625
 30
0.0
 11
129.0999755859375
 21
-457.9000244140625
 31
0.0
  0
LINE
  5
145
330
17
100
AcDbEntity
  8
0
100
AcDbLine
 10
123.0999755859375
 20
-454.9000244140625
 30
0.0
 11
123.0999755859375
 21
-457.9000244140625
 31
0.0
  0
LINE
  5
146
330
17
100
AcDbEntity
  8
0
100
AcDbLine
 10
129.0999755859375
 20
-457.9000244140625
 30
0.0
 11
129.0999755859375
 21
-454.9000244140625
 31
0.0
  0
LINE
  5
147
330
17
100
AcDbEntity
  8
0
100
AcDbLine
 10
129.0999755859375
 20
-444.9000244140625
 30
0.0
 11
133.0999755859375
 21
-444.9000244140625
 31
0.0
  0
LINE
  5
148
330
17
100
AcDbEntity
  8
0
100
AcDbLine
 10
133.0999755859375
 20
-444.9000244140625
 30
0.0
 11
133.0999755859375
 21
-441.9000244140625
 31
0.0
  0
LINE
  5
149
330
17
100
AcDbEntity
  8
0
100
AcDbLine
 10
120.0999755859375
 20
-441.9000244140625
 30
0.0
 11
120.0999755859375
 21
-444.9000244140625
 31
0.0
  0
LINE
  5
14A
330
17
100
AcDbEntity
  8
0
100
AcDbLine
 10
120.0999755859375
 20
-444.9000244140625
 30
0.0
 11
123.0999755859375
 21
-444.9000244140625
 31
0.0
  0
LINE
  5
14B
330
17
100
AcDbEntity
  8
0
100
AcDbLine
 10
120.0999755859375
 20
-441.9000244140625
 30
0.0
 11
133.0999755859375
 21
-441.9000244140625
 31
0.0
  0
LINE
  5
14C
330
17
100
AcDbEntity
  8
0
100
AcDbLine
 10
123.0999755859375
 20
-447.9000244140625
 30
0.0
 11
129.0999755859375
 21
-447.9000244140625
 31
0.0
  0
LINE
  5
14D
330
17
100
AcDbEntity
  8
0
100
AcDbLine
 10
123.0999755859375
 20
-444.9000244140625
 30
0.0
 11
123.0999755859375
 21
-447.9000244140625
 31
0.0
  0
LINE
  5
14E
330
17
100
AcDbEntity
  8
0
100
AcDbLine
 10
129.0999755859375
 20
-447.9000244140625
 30
0.0
 11
129.0999755859375
 21
-444.9000244140625
 31
0.0
  0
LINE
  5
14F
330
17
100
AcDbEntity
  8
0
100
AcDbLine
 10
154.0020751953125
 20
-542.37548828125
 30
0.0
 11
153.906005859375
 21
-541.4000244140625
 31
0.0
  0
LINE
  5
150
330
17
100
AcDbEntity
  8
0
100
AcDbLine
 10
154.28656005859375
 20
-543.3134155273438
 30
0.0
 11
154.0020751953125
 21
-542.37548828125
 31
0.0
  0
LINE
  5
151
330
17
100
AcDbEntity
  8
0
100
AcDbLine
 10
154.7486572265625
 20
-544.1778564453125
 30
0.0
 11
154.28656005859375
 21
-543.3134155273438
 31
0.0
  0
LINE
  5
152
330
17
100
AcDbEntity
  8
0
100
AcDbLine
 10
155.37042236328125
 20
-544.935546875
 30
0.0
 11
154.7486572265625
 21
-544.1778564453125
 31
0.0
  0
LINE
  5
153
330
17
100
AcDbEntity
  8
0
100
AcDbLine
 10
156.12811279296875
 20
-545.557373046875
 30
0.0
 11
155.37042236328125
 21
-544.935546875
 31
0.0
  0
LINE
  5
154
330
17
100
AcDbEntity
  8
0
100
AcDbLine
 10
156.9925537109375
 20
-546.0194091796875
 30
0.0
 11
156.12811279296875
 21
-545.557373046875
 31
0.0
  0
LINE
  5
155
330
17
100
AcDbEntity
  8
0
100
AcDbLine
 10
157.906005859375
 20
-546.303955078125
 30
0.0
 11
156.9925537109375
 21
-546.0194091796875
 31
0.0
  0
LINE
  5
156
330
17
100
AcDbEntity
  8
0
100
AcDbLine
 10
160.81939697265625
 20
-546.0194091796875
 30
0.0
 11
159.906005859375
 21
-546.303955078125
 31
0.0
  0
LINE
  5
157
330
17
100
AcDbEntity
  8
0
100
AcDbLine
 10
161.683837890625
 20
-545.557373046875
 30
0.0
 11
160.81939697265625
 21
-546.0194091796875
 31
0.0
  0
LINE
  5
158
330
17
100
AcDbEntity
  8
0
100
AcDbLine
 10
162.4415283203125
 20
-544.935546875
 30
0.0
 11
161.683837890625
 21
-545.557373046875
 31
0.0
  0
LINE
  5
159
330
17
100
AcDbEntity
  8
0
100
AcDbLine
 10
163.0633544921875
 20
-544.1778564453125
 30
0.0
 11
162.4415283203125
 21
-544.935546875
 31
0.0
  0
LINE
  5
15A
330
17
100
AcDbEntity
  8
0
100
AcDbLine
 10
163.525390625
 20
-543.3134155273438
 30
0.0
 11
163.0633544921875
 21
-544.1778564453125
 31
0.0
  0
LINE
  5
15B
330
17
100
AcDbEntity
  8
0
100
AcDbLine
 10
163.8099365234375
 20
-542.37548828125
 30
0.0
 11
163.525390625
 21
-543.3134155273438
 31
0.0
  0
LINE
  5
15C
330
17
100
AcDbEntity
  8
0
100
AcDbLine
 10
163.906005859375
 20
-541.4000244140625
 30
0.0
 11
163.8099365234375
 21
-542.37548828125
 31
0.0
  0
LINE
  5
15D
330
17
100
AcDbEntity
  8
0
100
AcDbLine
 10
163.8099365234375
 20
-540.424560546875
 30
0.0
 11
163.906005859375
 21
-541.4000244140625
 31
0.0
  0
LINE
  5
15E
330
17
100
AcDbEntity
  8
0
100
AcDbLine
 10
163.525390625
 20
-539.486572265625
 30
0.0
 11
163.8099365234375
 21
-540.424560546875
 31
0.0
  0
LINE
  5
15F
330
17
100
AcDbEntity
  8
0
100
AcDbLine
 10
163.0633544921875
 20
-538.6221923828125
 30
0.0
 11
163.525390625
 21
-539.486572265625
 31
0.0
  0
LINE
  5
160
330
17
100
AcDbEntity
  8
0
100
AcDbLine
 10
162.4415283203125
 20
-537.864501953125
 30
0.0
 11
163.0633544921875
 21
-538.6221923828125
 31
0.0
  0
LINE
  5
161
330
17
100
AcDbEntity
  8
0
100
AcDbLine
 10
161.683837890625
 20
-537.24267578125
 30
0.0
 11
162.4415283203125
 21
-537.864501953125
 31
0.0
  0
LINE
  5
162
330
17
100
AcDbEntity
  8
0
100
AcDbLine
 10
160.81939697265625
 20
-536.7806396484375
 30
0.0
 11
161.683837890625
 21
-537.24267578125
 31
0.0
  0
LINE
  5
163
330
17
100
AcDbEntity
  8
0
100
AcDbLine
 10
159.906005859375
 20
-536.49609375
 30
0.0
 11
160.81939697265625
 21
-536.7806396484375
 31
0.0
  0
LINE
  5
164
330
17
100
AcDbEntity
  8
0
100
AcDbLine
 10
156.9925537109375
 20
-536.7806396484375
 30
0.0
 11
157.906005859375
 21
-536.49609375
 31
0.0
  0
LINE
  5
165
330
17
100
AcDbEntity
  8
0
100
AcDbLine
 10
156.12811279296875
 20
-537.24267578125
 30
0.0
 11
156.9925537109375
 21
-536.7806396484375
 31
0.0
  0
LINE
  5
166
330
17
100
AcDbEntity
  8
0
100
AcDbLine
 10
155.37042236328125
 20
-537.864501953125
 30
0.0
 11
156.12811279296875
 21
-537.24267578125
 31
0.0
  0
LINE
  5
167
330
17
100
AcDbEntity
  8
0
100
AcDbLine
 10
154.7486572265625
 20
-538.6221923828125
 30
0.0
 11
155.37042236328125
 21
-537.864501953125
 31
0.0
  0
LINE
  5
168
330
17
100
AcDbEntity
  8
0
100
AcDbLine
 10
154.28656005859375
 20
-539.486572265625
 30
0.0
 11
154.7486572265625
 21
-538.6221923828125
 31
0.0
  0
LINE
  5
169
330
17
100
AcDbEntity
  8
0
100
AcDbLine
 10
154.0020751953125
 20
-540.424560546875
 30
0.0
 11
154.28656005859375
 21
-539.486572265625
 31
0.0
  0
LINE
  5
16A
330
17
100
AcDbEntity
  8
0
100
AcDbLine
 10
153.906005859375
 20
-541.4000244140625
 30
0.0
 11
154.0020751953125
 21
-540.424560546875
 31
0.0
  0
LINE
  5
16B
330
17
100
AcDbEntity
  8
0
100
AcDbLine
 10
157.906005859375
 20
-540.4000244140625
 30
0.0
 11
159.906005859375
 21
-540.4000244140625
 31
0.0
  0
LINE
  5
16C
330
17
100
AcDbEntity
  8
0
100
AcDbLine
 10
159.906005859375
 20
-542.4000244140625
 30
0.0
 11
157.906005859375
 21
-542.4000244140625
 31
0.0
  0
LINE
  5
16D
330
17
100
AcDbEntity
  8
0
100
AcDbLine
 10
157.906005859375
 20
-540.4000244140625
 30
0.0
 11
157.906005859375
 21
-536.49609375
 31
0.0
  0
LINE
  5
16E
330
17
100
AcDbEntity
  8
0
100
AcDbLine
 10
159.906005859375
 20
-536.49609375
 30
0.0
 11
159.906005859375
 21
-540.4000244140625
 31
0.0
  0
LINE
  5
16F
330
17
100
AcDbEntity
  8
0
100
AcDbLine
 10
157.906005859375
 20
-546.303955078125
 30
0.0
 11
157.906005859375
 21
-542.4000244140625
 31
0.0
  0
LINE
  5
170
330
17
100
AcDbEntity
  8
0
100
AcDbLine
 10
159.906005859375
 20
-546.303955078125
 30
0.0
 11
159.906005859375
 21
-542.4000244140625
 31
0.0
  0
LINE
  5
171
330
17
100
AcDbEntity
  8
0
100
AcDbLine
 10
154.0020751953125
 20
-530.37548828125
 30
0.0
 11
153.906005859375
 21
-529.4000244140625
 31
0.0
  0
LINE
  5
172
330
17
100
AcDbEntity
  8
0
100
AcDbLine
 10
154.28656005859375
 20
-531.3134155273438
 30
0.0
 11
154.0020751953125
 21
-530.37548828125
 31
0.0
  0
LINE
  5
173
330
17
100
AcDbEntity
  8
0
100
AcDbLine
 10
154.7486572265625
 20
-532.1778564453125
 30
0.0
 11
154.28656005859375
 21
-531.3134155273438
 31
0.0
  0
LINE
  5
174
330
17
100
AcDbEntity
  8
0
100
AcDbLine
 10
155.37042236328125
 20
-532.935546875
 30
0.0
 11
154.7486572265625
 21
-532.1778564453125
 31
0.0
  0
LINE
  5
175
330
17
100
AcDbEntity
  8
0
100
AcDbLine
 10
156.12811279296875
 20
-533.557373046875
 30
0.0
 11
155.37042236328125
 21
-532.935546875
 31
0.0
  0
LINE
  5
176
330
17
100
AcDbEntity
  8
0
100
AcDbLine
 10
156.9925537109375
 20
-534.0194091796875
 30
0.0
 11
156.12811279296875
 21
-533.557373046875
 31
0.0
  0
LINE
  5
177
330
17
100
AcDbEntity
  8
0
100
AcDbLine
 10
157.906005859375
 20
-534.303955078125
 30
0.0
 11
156.9925537109375
 21
-534.0194091796875
 31
0.0
  0
LINE
  5
178
330
17
100
AcDbEntity
  8
0
100
AcDbLine
 10
160.81939697265625
 20
-534.0194091796875
 30
0.0
 11
159.906005859375
 21
-534.303955078125
 31
0.0
  0
LINE
  5
179
330
17
100
AcDbEntity
  8
0
100
AcDbLine
 10
161.683837890625
 20
-533.557373046875
 30
0.0
 11
160.81939697265625
 21
-534.0194091796875
 31
0.0
  0
LINE
  5
17A
330
17
100
AcDbEntity
  8
0
100
AcDbLine
 10
162.4415283203125
 20
-532.935546875
 30
0.0
 11
161.683837890625
 21
-533.557373046875
 31
0.0
  0
LINE
  5
17B
330
17
100
AcDbEntity
  8
0
100
AcDbLine
 10
163.0633544921875
 20
-532.1778564453125
 30
0.0
 11
162.4415283203125
 21
-532.935546875
 31
0.0
  0
LINE
  5
17C
330
17
100
AcDbEntity
  8
0
100
AcDbLine
 10
163.525390625
 20
-531.3134155273438
 30
0.0
 11
163.0633544921875
 21
-532.1778564453125
 31
0.0
  0
LINE
  5
17D
330
17
100
AcDbEntity
  8
0
100
AcDbLine
 10
163.8099365234375
 20
-530.37548828125
 30
0.0
 11
163.525390625
 21
-531.3134155273438
 31
0.0
  0
LINE
  5
17E
330
17
100
AcDbEntity
  8
0
100
AcDbLine
 10
163.906005859375
 20
-529.4000244140625
 30
0.0
 11
163.8099365234375
 21
-530.37548828125
 31
0.0
  0
LINE
  5
17F
330
17
100
AcDbEntity
  8
0
100
AcDbLine
 10
163.8099365234375
 20
-528.424560546875
 30
0.0
 11
163.906005859375
 21
-529.4000244140625
 31
0.0
  0
LINE
  5
180
330
17
100
AcDbEntity
  8
0
100
AcDbLine
 10
163.525390625
 20
-527.486572265625
 30
0.0
 11
163.8099365234375
 21
-528.424560546875
 31
0.0
  0
LINE
  5
181
330
17
100
AcDbEntity
  8
0
100
AcDbLine
 10
163.0633544921875
 20
-526.6221923828125
 30
0.0
 11
163.525390625
 21
-527.486572265625
 31
0.0
  0
LINE
  5
182
330
17
100
AcDbEntity
  8
0
100
AcDbLine
 10
162.4415283203125
 20
-525.864501953125
 30
0.0
 11
163.0633544921875
 21
-526.6221923828125
 31
0.0
  0
LINE
  5
183
330
17
100
AcDbEntity
  8
0
100
AcDbLine
 10
161.683837890625
 20
-525.24267578125
 30
0.0
 11
162.4415283203125
 21
-525.864501953125
 31
0.0
  0
LINE
  5
184
330
17
100
AcDbEntity
  8
0
100
AcDbLine
 10
160.81939697265625
 20
-524.7806396484375
 30
0.0
 11
161.683837890625
 21
-525.24267578125
 31
0.0
  0
LINE
  5
185
330
17
100
AcDbEntity
  8
0
100
AcDbLine
 10
159.906005859375
 20
-524.49609375
 30
0.0
 11
160.81939697265625
 21
-524.7806396484375
 31
0.0
  0
LINE
  5
186
330
17
100
AcDbEntity
  8
0
100
AcDbLine
 10
156.9925537109375
 20
-524.7806396484375
 30
0.0
 11
157.906005859375
 21
-524.49609375
 31
0.0
  0
LINE
  5
187
330
17
100
AcDbEntity
  8
0
100
AcDbLine
 10
156.12811279296875
 20
-525.24267578125
 30
0.0
 11
156.9925537109375
 21
-524.7806396484375
 31
0.0
  0
LINE
  5
188
330
17
100
AcDbEntity
  8
0
100
AcDbLine
 10
155.37042236328125
 20
-525.864501953125
 30
0.0
 11
156.12811279296875
 21
-525.24267578125
 31
0.0
  0
LINE
  5
189
330
17
100
AcDbEntity
  8
0
100
AcDbLine
 10
154.7486572265625
 20
-526.6221923828125
 30
0.0
 11
155.37042236328125
 21
-525.864501953125
 31
0.0
  0
LINE
  5
18A
330
17
100
AcDbEntity
  8
0
100
AcDbLine
 10
154.28656005859375
 20
-527.486572265625
 30
0.0
 11
154.7486572265625
 21
-526.6221923828125
 31
0.0
  0
LINE
  5
18B
330
17
100
AcDbEntity
  8
0
100
AcDbLine
 10
154.0020751953125
 20
-528.424560546875
 30
0.0
 11
154.28656005859375
 21
-527.486572265625
 31
0.0
  0
LINE
  5
18C
330
17
100
AcDbEntity
  8
0
100
AcDbLine
 10
153.906005859375
 20
-529.4000244140625
 30
0.0
 11
154.0020751953125
 21
-528.424560546875
 31
0.0
  0
LINE
  5
18D
330
17
100
AcDbEntity
  8
0
100
AcDbLine
 10
157.906005859375
 20
-528.4000244140625
 30
0.0
 11
159.906005859375
 21
-528.4000244140625
 31
0.0
  0
LINE
  5
18E
330
17
100
AcDbEntity
  8
0
100
AcDbLine
 10
159.906005859375
 20
-530.4000244140625
 30
0.0
 11
157.906005859375
 21
-530.4000244140625
 31
0.0
  0
LINE
  5
18F
330
17
100
AcDbEntity
  8
0
100
AcDbLine
 10
157.906005859375
 20
-528.4000244140625
 30
0.0
 11
157.906005859375
 21
-524.49609375
 31
0.0
  0
LINE
  5
190
330
17
100
AcDbEntity
  8
0
100
AcDbLine
 10
159.906005859375
 20
-524.49609375
 30
0.0
 11
159.906005859375
 21
-528.4000244140625
 31
0.0
  0
LINE
  5
191
330
17
100
AcDbEntity
  8
0
100
AcDbLine
 10
157.906005859375
 20
-534.303955078125
 30
0.0
 11
157.906005859375
 21
-530.4000244140625
 31
0.0
  0
LINE
  5
192
330
17
100
AcDbEntity
  8
0
100
AcDbLine
 10
159.906005859375
 20
-534.303955078125
 30
0.0
 11
159.906005859375
 21
-530.4000244140625
 31
0.0
  0
LINE
  5
193
330
17
100
AcDbEntity
  8
0
100
AcDbLine
 10
154.0020751953125
 20
-495.37548828125
 30
0.0
 11
153.906005859375
 21
-494.4000244140625
 31
0.0
  0
LINE
  5
194
330
17
100
AcDbEntity
  8
0
100
AcDbLine
 10
154.28656005859375
 20
-496.31341552734375
 30
0.0
 11
154.0020751953125
 21
-495.37548828125
 31
0.0
  0
LINE
  5
195
330
17
100
AcDbEntity
  8
0
100
AcDbLine
 10
154.7486572265625
 20
-497.1778564453125
 30
0.0
 11
154.28656005859375
 21
-496.31341552734375
 31
0.0
  0
LINE
  5
196
330
17
100
AcDbEntity
  8
0
100
AcDbLine
 10
155.37042236328125
 20
-497.935546875
 30
0.0
 11
154.7486572265625
 21
-497.1778564453125
 31
0.0
  0
LINE
  5
197
330
17
100
AcDbEntity
  8
0
100
AcDbLine
 10
156.12811279296875
 20
-498.557373046875
 30
0.0
 11
155.37042236328125
 21
-497.935546875
 31
0.0
  0
LINE
  5
198
330
17
100
AcDbEntity
  8
0
100
AcDbLine
 10
156.9925537109375
 20
-499.0194091796875
 30
0.0
 11
156.12811279296875
 21
-498.557373046875
 31
0.0
  0
LINE
  5
199
330
17
100
AcDbEntity
  8
0
100
AcDbLine
 10
157.906005859375
 20
-499.303955078125
 30
0.0
 11
156.9925537109375
 21
-499.0194091796875
 31
0.0
  0
LINE
  5
19A
330
17
100
AcDbEntity
  8
0
100
AcDbLine
 10
160.81939697265625
 20
-499.0194091796875
 30
0.0
 11
159.906005859375
 21
-499.303955078125
 31
0.0
  0
LINE
  5
19B
330
17
100
AcDbEntity
  8
0
100
AcDbLine
 10
161.683837890625
 20
-498.557373046875
 30
0.0
 11
160.81939697265625
 21
-499.0194091796875
 31
0.0
  0
LINE
  5
19C
330
17
100
AcDbEntity
  8
0
100
AcDbLine
 10
162.4415283203125
 20
-497.935546875
 30
0.0
 11
161.683837890625
 21
-498.557373046875
 31
0.0
  0
LINE
  5
19D
330
17
100
AcDbEntity
  8
0
100
AcDbLine
 10
163.0633544921875
 20
-497.1778564453125
 30
0.0
 11
162.4415283203125
 21
-497.935546875
 31
0.0
  0
LINE
  5
19E
330
17
100
AcDbEntity
  8
0
100
AcDbLine
 10
163.525390625
 20
-496.31341552734375
 30
0.0
 11
163.0633544921875
 21
-497.1778564453125
 31
0.0
  0
LINE
  5
19F
330
17
100
AcDbEntity
  8
0
100
AcDbLine
 10
163.8099365234375
 20
-495.37548828125
 30
0.0
 11
163.525390625
 21
-496.31341552734375
 31
0.0
  0
LINE
  5
1A0
330
17
100
AcDbEntity
  8
0
100
AcDbLine
 10
163.906005859375
 20
-494.4000244140625
 30
0.0
 11
163.8099365234375
 21
-495.37548828125
 31
0.0
  0
LINE
  5
1A1
330
17
100
AcDbEntity
  8
0
100
AcDbLine
 10
163.8099365234375
 20
-493.424560546875
 30
0.0
 11
163.906005859375
 21
-494.4000244140625
 31
0.0
  0
LINE
  5
1A2
330
17
100
AcDbEntity
  8
0
100
AcDbLine
 10
163.525390625
 20
-492.486572265625
 30
0.0
 11
163.8099365234375
 21
-493.424560546875
 31
0.0
  0
LINE
  5
1A3
330
17
100
AcDbEntity
  8
0
100
AcDbLine
 10
163.0633544921875
 20
-491.6221923828125
 30
0.0
 11
163.525390625
 21
-492.486572265625
 31
0.0
  0
LINE
  5
1A4
330
17
100
AcDbEntity
  8
0
100
AcDbLine
 10
162.4415283203125
 20
-490.864501953125
 30
0.0
 11
163.0633544921875
 21
-491.6221923828125
 31
0.0
  0
LINE
  5
1A5
330
17
100
AcDbEntity
  8
0
100
AcDbLine
 10
161.683837890625
 20
-490.24267578125
 30
0.0
 11
162.4415283203125
 21
-490.864501953125
 31
0.0
  0
LINE
  5
1A6
330
17
100
AcDbEntity
  8
0
100
AcDbLine
 10
160.81939697265625
 20
-489.7806396484375
 30
0.0
 11
161.683837890625
 21
-490.24267578125
 31
0.0
  0
LINE
  5
1A7
330
17
100
AcDbEntity
  8
0
100
AcDbLine
 10
159.906005859375
 20
-489.49609375
 30
0.0
 11
160.81939697265625
 21
-489.7806396484375
 31
0.0
  0
LINE
  5
1A8
330
17
100
AcDbEntity
  8
0
100
AcDbLine
 10
156.9925537109375
 20
-489.7806396484375
 30
0.0
 11
157.906005859375
 21
-489.49609375
 31
0.0
  0
LINE
  5
1A9
330
17
100
AcDbEntity
  8
0
100
AcDbLine
 10
156.12811279296875
 20
-490.24267578125
 30
0.0
 11
156.9925537109375
 21
-489.7806396484375
 31
0.0
  0
LINE
  5
1AA
330
17
100
AcDbEntity
  8
0
100
AcDbLine
 10
155.37042236328125
 20
-490.864501953125
 30
0.0
 11
156.12811279296875
 21
-490.24267578125
 31
0.0
  0
LINE
  5
1AB
330
17
100
AcDbEntity
  8
0
100
AcDbLine
 10
154.7486572265625
 20
-491.6221923828125
 30
0.0
 11
155.37042236328125
 21
-490.864501953125
 31
0.0
  0
LINE
  5
1AC
330
17
100
AcDbEntity
  8
0
100
AcDbLine
 10
154.28656005859375
 20
-492.486572265625
 30
0.0
 11
154.7486572265625
 21
-491.6221923828125
 31
0.0
  0
LINE
  5
1AD
330
17
100
AcDbEntity
  8
0
100
AcDbLine
 10
154.0020751953125
 20
-493.424560546875
 30
0.0
 11
154.28656005859375
 21
-492.486572265625
 31
0.0
  0
LINE
  5
1AE
330
17
100
AcDbEntity
  8
0
100
AcDbLine
 10
153.906005859375
 20
-494.4000244140625
 30
0.0
 11
154.0020751953125
 21
-493.424560546875
 31
0.0
  0
LINE
  5
1AF
330
17
100
AcDbEntity
  8
0
100
AcDbLine
 10
157.906005859375
 20
-493.4000244140625
 30
0.0
 11
159.906005859375
 21
-493.4000244140625
 31
0.0
  0
LINE
  5
1B0
330
17
100
AcDbEntity
  8
0
100
AcDbLine
 10
159.906005859375
 20
-495.4000244140625
 30
0.0
 11
157.906005859375
 21
-495.4000244140625
 31
0.0
  0
LINE
  5
1B1
330
17
100
AcDbEntity
  8
0
100
AcDbLine
 10
157.906005859375
 20
-493.4000244140625
 30
0.0
 11
157.906005859375
 21
-489.49609375
 31
0.0
  0
LINE
  5
1B2
330
17
100
AcDbEntity
  8
0
100
AcDbLine
 10
159.906005859375
 20
-489.49609375
 30
0.0
 11
159.906005859375
 21
-493.4000244140625
 31
0.0
  0
LINE
  5
1B3
330
17
100
AcDbEntity
  8
0
100
AcDbLine
 10
157.906005859375
 20
-499.303955078125
 30
0.0
 11
157.906005859375
 21
-495.4000244140625
 31
0.0
  0
LINE
  5
1B4
330
17
100
AcDbEntity
  8
0
100
AcDbLine
 10
159.906005859375
 20
-499.303955078125
 30
0.0
 11
159.906005859375
 21
-495.4000244140625
 31
0.0
  0
LINE
  5
1B5
330
17
100
AcDbEntity
  8
0
100
AcDbLine
 10
154.0020751953125
 20
-483.37548828125
 30
0.0
 11
153.906005859375
 21
-482.4000244140625
 31
0.0
  0
LINE
  5
1B6
330
17
100
AcDbEntity
  8
0
100
AcDbLine
 10
154.28656005859375
 20
-484.31341552734375
 30
0.0
 11
154.0020751953125
 21
-483.37548828125
 31
0.0
  0
LINE
  5
1B7
330
17
100
AcDbEntity
  8
0
100
AcDbLine
 10
154.7486572265625
 20
-485.1778564453125
 30
0.0
 11
154.28656005859375
 21
-484.31341552734375
 31
0.0
  0
LINE
  5
1B8
330
17
100
AcDbEntity
  8
0
100
AcDbLine
 10
155.37042236328125
 20
-485.935546875
 30
0.0
 11
154.7486572265625
 21
-485.1778564453125
 31
0.0
  0
LINE
  5
1B9
330
17
100
AcDbEntity
  8
0
100
AcDbLine
 10
156.12811279296875
 20
-486.557373046875
 30
0.0
 11
155.37042236328125
 21
-485.935546875
 31
0.0
  0
LINE
  5
1BA
330
17
100
AcDbEntity
  8
0
100
AcDbLine
 10
156.9925537109375
 20
-487.0194091796875
 30
0.0
 11
156.12811279296875
 21
-486.557373046875
 31
0.0
  0
LINE
  5
1BB
330
17
100
AcDbEntity
  8
0
100
AcDbLine
 10
157.906005859375
 20
-487.303955078125
 30
0.0
 11
156.9925537109375
 21
-487.0194091796875
 31
0.0
  0
LINE
  5
1BC
330
17
100
AcDbEntity
  8
0
100
AcDbLine
 10
160.81939697265625
 20
-487.0194091796875
 30
0.0
 11
159.906005859375
 21
-487.303955078125
 31
0.0
  0
LINE
  5
1BD
330
17
100
AcDbEntity
  8
0
100
AcDbLine
 10
161.683837890625
 20
-486.557373046875
 30
0.0
 11
160.81939697265625
 21
-487.0194091796875
 31
0.0
  0
LINE
  5
1BE
330
17
100
AcDbEntity
  8
0
100
AcDbLine
 10
162.4415283203125
 20
-485.935546875
 30
0.0
 11
161.683837890625
 21
-486.557373046875
 31
0.0
  0
LINE
  5
1BF
330
17
100
AcDbEntity
  8
0
100
AcDbLine
 10
163.0633544921875
 20
-485.1778564453125
 30
0.0
 11
162.4415283203125
 21
-485.935546875
 31
0.0
  0
LINE
  5
1C0
330
17
100
AcDbEntity
  8
0
100
AcDbLine
 10
163.525390625
 20
-484.31341552734375
 30
0.0
 11
163.0633544921875
 21
-485.1778564453125
 31
0.0
  0
LINE
  5
1C1
330
17
100
AcDbEntity
  8
0
100
AcDbLine
 10
163.8099365234375
 20
-483.37548828125
 30
0.0
 11
163.525390625
 21
-484.31341552734375
 31
0.0
  0
LINE
  5
1C2
330
17
100
AcDbEntity
  8
0
100
AcDbLine
 10
163.906005859375
 20
-482.4000244140625
 30
0.0
 11
163.8099365234375
 21
-483.37548828125
 31
0.0
  0
LINE
  5
1C3
330
17
100
AcDbEntity
  8
0
100
AcDbLine
 10
163.8099365234375
 20
-481.424560546875
 30
0.0
 11
163.906005859375
 21
-482.4000244140625
 31
0.0
  0
LINE
  5
1C4
330
17
100
AcDbEntity
  8
0
100
AcDbLine
 10
163.525390625
 20
-480.486572265625
 30
0.0
 11
163.8099365234375
 21
-481.424560546875
 31
0.0
  0
LINE
  5
1C5
330
17
100
AcDbEntity
  8
0
100
AcDbLine
 10
163.0633544921875
 20
-479.6221923828125
 30
0.0
 11
163.525390625
 21
-480.486572265625
 31
0.0
  0
LINE
  5
1C6
330
17
100
AcDbEntity
  8
0
100
AcDbLine
 10
162.4415283203125
 20
-478.864501953125
 30
0.0
 11
163.0633544921875
 21
-479.6221923828125
 31
0.0
  0
LINE
  5
1C7
330
17
100
AcDbEntity
  8
0
100
AcDbLine
 10
161.683837890625
 20
-478.24267578125
 30
0.0
 11
162.4415283203125
 21
-478.864501953125
 31
0.0
  0
LINE
  5
1C8
330
17
100
AcDbEntity
  8
0
100
AcDbLine
 10
160.81939697265625
 20
-477.7806396484375
 30
0.0
 11
161.683837890625
 21
-478.24267578125
 31
0.0
  0
LINE
  5
1C9
330
17
100
AcDbEntity
  8
0
100
AcDbLine
 10
159.906005859375
 20
-477.49609375
 30
0.0
 11
160.81939697265625
 21
-477.7806396484375
 31
0.0
  0
LINE
  5
1CA
330
17
100
AcDbEntity
  8
0
100
AcDbLine
 10
156.9925537109375
 20
-477.7806396484375
 30
0.0
 11
157.906005859375
 21
-477.49609375
 31
0.0
  0
LINE
  5
1CB
330
17
100
AcDbEntity
  8
0
100
AcDbLine
 10
156.12811279296875
 20
-478.24267578125
 30
0.0
 11
156.9925537109375
 21
-477.7806396484375
 31
0.0
  0
LINE
  5
1CC
330
17
100
AcDbEntity
  8
0
100
AcDbLine
 10
155.37042236328125
 20
-478.864501953125
 30
0.0
 11
156.12811279296875
 21
-478.24267578125
 31
0.0
  0
LINE
  5
1CD
330
17
100
AcDbEntity
  8
0
100
AcDbLine
 10
154.7486572265625
 20
-479.6221923828125
 30
0.0
 11
155.37042236328125
 21
-478.864501953125
 31
0.0
  0
LINE
  5
1CE
330
17
100
AcDbEntity
  8
0
100
AcDbLine
 10
154.28656005859375
 20
-480.486572265625
 30
0.0
 11
154.7486572265625
 21
-479.6221923828125
 31
0.0
  0
LINE
  5
1CF
330
17
100
AcDbEntity
  8
0
100
AcDbLine
 10
154.0020751953125
 20
-481.424560546875
 30
0.0
 11
154.28656005859375
 21
-480.486572265625
 31
0.0
  0
LINE
  5
1D0
330
17
100
AcDbEntity
  8
0
100
AcDbLine
 10
153.906005859375
 20
-482.4000244140625
 30
0.0
 11
154.0020751953125
 21
-481.424560546875
 31
0.0
  0
LINE
  5
1D1
330
17
100
AcDbEntity
  8
0
100
AcDbLine
 10
157.906005859375
 20
-481.4000244140625
 30
0.0
 11
159.906005859375
 21
-481.4000244140625
 31
0.0
  0
LINE
  5
1D2
330
17
100
AcDbEntity
  8
0
100
AcDbLine
 10
159.906005859375
 20
-483.4000244140625
 30
0.0
 11
157.906005859375
 21
-483.4000244140625
 31
0.0
  0
LINE
  5
1D3
330
17
100
AcDbEntity
  8
0
100
AcDbLine
 10
157.906005859375
 20
-481.4000244140625
 30
0.0
 11
157.906005859375
 21
-477.49609375
 31
0.0
  0
LINE
  5
1D4
330
17
100
AcDbEntity
  8
0
100
AcDbLine
 10
159.906005859375
 20
-477.49609375
 30
0.0
 11
159.906005859375
 21
-481.4000244140625
 31
0.0
  0
LINE
  5
1D5
330
17
100
AcDbEntity
  8
0
100
AcDbLine
 10
157.906005859375
 20
-487.303955078125
 30
0.0
 11
157.906005859375
 21
-483.4000244140625
 31
0.0
  0
LINE
  5
1D6
330
17
100
AcDbEntity
  8
0
100
AcDbLine
 10
159.906005859375
 20
-487.303955078125
 30
0.0
 11
159.906005859375
 21
-483.4000244140625
 31
0.0
  0
LINE
  5
1D7
330
17
100
AcDbEntity
  8
0
100
AcDbLine
 10
154.0020751953125
 20
-471.37548828125
 30
0.0
 11
153.906005859375
 21
-470.4000244140625
 31
0.0
  0
LINE
  5
1D8
330
17
100
AcDbEntity
  8
0
100
AcDbLine
 10
154.28656005859375
 20
-472.31341552734375
 30
0.0
 11
154.0020751953125
 21
-471.37548828125
 31
0.0
  0
LINE
  5
1D9
330
17
100
AcDbEntity
  8
0
100
AcDbLine
 10
154.7486572265625
 20
-473.1778564453125
 30
0.0
 11
154.28656005859375
 21
-472.31341552734375
 31
0.0
  0
LINE
  5
1DA
330
17
100
AcDbEntity
  8
0
100
AcDbLine
 10
155.37042236328125
 20
-473.935546875
 30
0.0
 11
154.7486572265625
 21
-473.1778564453125
 31
0.0
  0
LINE
  5
1DB
330
17
100
AcDbEntity
  8
0
100
AcDbLine
 10
156.12811279296875
 20
-474.557373046875
 30
0.0
 11
155.37042236328125
 21
-473.935546875
 31
0.0
  0
LINE
  5
1DC
330
17
100
AcDbEntity
  8
0
100
AcDbLine
 10
156.9925537109375
 20
-475.0194091796875
 30
0.0
 11
156.12811279296875
 21
-474.557373046875
 31
0.0
  0
LINE
  5
1DD
330
17
100
AcDbEntity
  8
0
100
AcDbLine
 10
157.906005859375
 20
-475.303955078125
 30
0.0
 11
156.9925537109375
 21
-475.0194091796875
 31
0.0
  0
LINE
  5
1DE
330
17
100
AcDbEntity
  8
0
100
AcDbLine
 10
160.81939697265625
 20
-475.0194091796875
 30
0.0
 11
159.906005859375
 21
-475.303955078125
 31
0.0
  0
LINE
  5
1DF
330
17
100
AcDbEntity
  8
0
100
AcDbLine
 10
161.683837890625
 20
-474.557373046875
 30
0.0
 11
160.81939697265625
 21
-475.0194091796875
 31
0.0
  0
LINE
  5
1E0
330
17
100
AcDbEntity
  8
0
100
AcDbLine
 10
162.4415283203125
 20
-473.935546875
 30
0.0
 11
161.683837890625
 21
-474.557373046875
 31
0.0
  0
LINE
  5
1E1
330
17
100
AcDbEntity
  8
0
100
AcDbLine
 10
163.0633544921875
 20
-473.1778564453125
 30
0.0
 11
162.4415283203125
 21
-473.935546875
 31
0.0
  0
LINE
  5
1E2
330
17
100
AcDbEntity
  8
0
100
AcDbLine
 10
163.525390625
 20
-472.31341552734375
 30
0.0
 11
163.0633544921875
 21
-473.1778564453125
 31
0.0
  0
LINE
  5
1E3
330
17
100
AcDbEntity
  8
0
100
AcDbLine
 10
163.8099365234375
 20
-471.37548828125
 30
0.0
 11
163.525390625
 21
-472.31341552734375
 31
0.0
  0
LINE
  5
1E4
330
17
100
AcDbEntity
  8
0
100
AcDbLine
 10
163.906005859375
 20
-470.4000244140625
 30
0.0
 11
163.8099365234375
 21
-471.37548828125
 31
0.0
  0
LINE
  5
1E5
330
17
100
AcDbEntity
  8
0
100
AcDbLine
 10
163.8099365234375
 20
-469.424560546875
 30
0.0
 11
163.906005859375
 21
-470.4000244140625
 31
0.0
  0
LINE
  5
1E6
330
17
100
AcDbEntity
  8
0
100
AcDbLine
 10
163.525390625
 20
-468.486572265625
 30
0.0
 11
163.8099365234375
 21
-469.424560546875
 31
0.0
  0
LINE
  5
1E7
330
17
100
AcDbEntity
  8
0
100
AcDbLine
 10
163.0633544921875
 20
-467.6221923828125
 30
0.0
 11
163.525390625
 21
-468.486572265625
 31
0.0
  0
LINE
  5
1E8
330
17
100
AcDbEntity
  8
0
100
AcDbLine
 10
162.4415283203125
 20
-466.864501953125
 30
0.0
 11
163.0633544921875
 21
-467.6221923828125
 31
0.0
  0
LINE
  5
1E9
330
17
100
AcDbEntity
  8
0
100
AcDbLine
 10
161.683837890625
 20
-466.24267578125
 30
0.0
 11
162.4415283203125
 21
-466.864501953125
 31
0.0
  0
LINE
  5
1EA
330
17
100
AcDbEntity
  8
0
100
AcDbLine
 10
160.81939697265625
 20
-465.7806396484375
 30
0.0
 11
161.683837890625
 21
-466.24267578125
 31
0.0
  0
LINE
  5
1EB
330
17
100
AcDbEntity
  8
0
100
AcDbLine
 10
159.906005859375
 20
-465.49609375
 30
0.0
 11
160.81939697265625
 21
-465.7806396484375
 31
0.0
  0
LINE
  5
1EC
330
17
100
AcDbEntity
  8
0
100
AcDbLine
 10
156.9925537109375
 20
-465.7806396484375
 30
0.0
 11
157.906005859375
 21
-465.49609375
 31
0.0
  0
LINE
  5
1ED
330
17
100
AcDbEntity
  8
0
100
AcDbLine
 10
156.12811279296875
 20
-466.24267578125
 30
0.0
 11
156.9925537109375
 21
-465.7806396484375
 31
0.0
  0
LINE
  5
1EE
330
17
100
AcDbEntity
  8
0
100
AcDbLine
 10
155.37042236328125
 20
-466.864501953125
 30
0.0
 11
156.12811279296875
 21
-466.24267578125
 31
0.0
  0
LINE
  5
1EF
330
17
100
AcDbEntity
  8
0
100
AcDbLine
 10
154.7486572265625
 20
-467.6221923828125
 30
0.0
 11
155.37042236328125
 21
-466.864501953125
 31
0.0
  0
LINE
  5
1F0
330
17
100
AcDbEntity
  8
0
100
AcDbLine
 10
154.28656005859375
 20
-468.486572265625
 30
0.0
 11
154.7486572265625
 21
-467.6221923828125
 31
0.0
  0
LINE
  5
1F1
330
17
100
AcDbEntity
  8
0
100
AcDbLine
 10
154.0020751953125
 20
-469.424560546875
 30
0.0
 11
154.28656005859375
 21
-468.486572265625
 31
0.0
  0
LINE
  5
1F2
330
17
100
AcDbEntity
  8
0
100
AcDbLine
 10
153.906005859375
 20
-470.4000244140625
 30
0.0
 11
154.0020751953125
 21
-469.424560546875
 31
0.0
  0
LINE
  5
1F3
330
17
100
AcDbEntity
  8
0
100
AcDbLine
 10
157.906005859375
 20
-469.4000244140625
 30
0.0
 11
159.906005859375
 21
-469.4000244140625
 31
0.0
  0
LINE
  5
1F4
330
17
100
AcDbEntity
  8
0
100
AcDbLine
 10
159.906005859375
 20
-471.4000244140625
 30
0.0
 11
157.906005859375
 21
-471.4000244140625
 31
0.0
  0
LINE
  5
1F5
330
17
100
AcDbEntity
  8
0
100
AcDbLine
 10
157.906005859375
 20
-469.4000244140625
 30
0.0
 11
157.906005859375
 21
-465.49609375
 31
0.0
  0
LINE
  5
1F6
330
17
100
AcDbEntity
  8
0
100
AcDbLine
 10
159.906005859375
 20
-465.49609375
 30
0.0
 11
159.906005859375
 21
-469.4000244140625
 31
0.0
  0
LINE
  5
1F7
330
17
100
AcDbEntity
  8
0
100
AcDbLine
 10
157.906005859375
 20
-475.303955078125
 30
0.0
 11
157.906005859375
 21
-471.4000244140625
 31
0.0
  0
LINE
  5
1F8
330
17
100
AcDbEntity
  8
0
100
AcDbLine
 10
159.906005859375
 20
-475.303955078125
 30
0.0
 11
159.906005859375
 21
-471.4000244140625
 31
0.0
  0
LINE
  5
1F9
330
17
100
AcDbEntity
  8
0
100
AcDbLine
 10
154.0020751953125
 20
-459.37548828125
 30
0.0
 11
153.906005859375
 21
-458.4000244140625
 31
0.0
  0
LINE
  5
1FA
330
17
100
AcDbEntity
  8
0
100
AcDbLine
 10
154.28656005859375
 20
-460.31341552734375
 30
0.0
 11
154.0020751953125
 21
-459.37548828125
 31
0.0
  0
LINE
  5
1FB
330
17
100
AcDbEntity
  8
0
100
AcDbLine
 10
154.7486572265625
 20
-461.1778564453125
 30
0.0
 11
154.28656005859375
 21
-460.31341552734375
 31
0.0
  0
LINE
  5
1FC
330
17
100
AcDbEntity
  8
0
100
AcDbLine
 10
155.37042236328125
 20
-461.935546875
 30
0.0
 11
154.7486572265625
 21
-461.1778564453125
 31
0.0
  0
LINE
  5
1FD
330
17
100
AcDbEntity
  8
0
100
AcDbLine
 10
156.12811279296875
 20
-462.557373046875
 30
0.0
 11
155.37042236328125
 21
-461.935546875
 31
0.0
  0
LINE
  5
1FE
330
17
100
AcDbEntity
  8
0
100
AcDbLine
 10
156.9925537109375
 20
-463.0194091796875
 30
0.0
 11
156.12811279296875
 21
-462.557373046875
 31
0.0
  0
LINE
  5
1FF
330
17
100
AcDbEntity
  8
0
100
AcDbLine
 10
157.906005859375
 20
-463.303955078125
 30
0.0
 11
156.9925537109375
 21
-463.0194091796875
 31
0.0
  0
LINE
  5
200
330
17
100
AcDbEntity
  8
0
100
AcDbLine
 10
160.81939697265625
 20
-463.0194091796875
 30
0.0
 11
159.906005859375
 21
-463.303955078125
 31
0.0
  0
LINE
  5
201
330
17
100
AcDbEntity
  8
0
100
AcDbLine
 10
161.683837890625
 20
-462.557373046875
 30
0.0
 11
160.81939697265625
 21
-463.0194091796875
 31
0.0
  0
LINE
  5
202
330
17
100
AcDbEntity
  8
0
100
AcDbLine
 10
162.4415283203125
 20
-461.935546875
 30
0.0
 11
161.683837890625
 21
-462.557373046875
 31
0.0
  0
LINE
  5
203
330
17
100
AcDbEntity
  8
0
100
AcDbLine
 10
163.0633544921875
 20
-461.1778564453125
 30
0.0
 11
162.4415283203125
 21
-461.935546875
 31
0.0
  0
LINE
  5
204
330
17
100
AcDbEntity
  8
0
100
AcDbLine
 10
163.525390625
 20
-460.31341552734375
 30
0.0
 11
163.0633544921875
 21
-461.1778564453125
 31
0.0
  0
LINE
  5
205
330
17
100
AcDbEntity
  8
0
100
AcDbLine
 10
163.8099365234375
 20
-459.37548828125
 30
0.0
 11
163.525390625
 21
-460.31341552734375
 31
0.0
  0
LINE
  5
206
330
17
100
AcDbEntity
  8
0
100
AcDbLine
 10
163.906005859375
 20
-458.4000244140625
 30
0.0
 11
163.8099365234375
 21
-459.37548828125
 31
0.0
  0
LINE
  5
207
330
17
100
AcDbEntity
  8
0
100
AcDbLine
 10
163.8099365234375
 20
-457.424560546875
 30
0.0
 11
163.906005859375
 21
-458.4000244140625
 31
0.0
  0
LINE
  5
208
330
17
100
AcDbEntity
  8
0
100
AcDbLine
 10
163.525390625
 20
-456.486572265625
 30
0.0
 11
163.8099365234375
 21
-457.424560546875
 31
0.0
  0
LINE
  5
209
330
17
100
AcDbEntity
  8
0
100
AcDbLine
 10
163.0633544921875
 20
-455.6221923828125
 30
0.0
 11
163.525390625
 21
-456.486572265625
 31
0.0
  0
LINE
  5
20A
330
17
100
AcDbEntity
  8
0
100
AcDbLine
 10
162.4415283203125
 20
-454.864501953125
 30
0.0
 11
163.0633544921875
 21
-455.6221923828125
 31
0.0
  0
LINE
  5
20B
330
17
100
AcDbEntity
  8
0
100
AcDbLine
 10
161.683837890625
 20
-454.24267578125
 30
0.0
 11
162.4415283203125
 21
-454.864501953125
 31
0.0
  0
LINE
  5
20C
330
17
100
AcDbEntity
  8
0
100
AcDbLine
 10
160.81939697265625
 20
-453.7806396484375
 30
0.0
 11
161.683837890625
 21
-454.24267578125
 31
0.0
  0
LINE
  5
20D
330
17
100
AcDbEntity
  8
0
100
AcDbLine
 10
159.906005859375
 20
-453.49609375
 30
0.0
 11
160.81939697265625
 21
-453.7806396484375
 31
0.0
  0
LINE
  5
20E
330
17
100
AcDbEntity
  8
0
100
AcDbLine
 10
156.9925537109375
 20
-453.7806396484375
 30
0.0
 11
157.906005859375
 21
-453.49609375
 31
0.0
  0
LINE
  5
20F
330
17
100
AcDbEntity
  8
0
100
AcDbLine
 10
156.12811279296875
 20
-454.24267578125
 30
0.0
 11
156.9925537109375
 21
-453.7806396484375
 31
0.0
  0
LINE
  5
210
330
17
100
AcDbEntity
  8
0
100
AcDbLine
 10
155.37042236328125
 20
-454.864501953125
 30
0.0
 11
156.12811279296875
 21
-454.24267578125
 31
0.0
  0
LINE
  5
211
330
17
100
AcDbEntity
  8
0
100
AcDbLine
 10
154.7486572265625
 20
-455.6221923828125
 30
0.0
 11
155.37042236328125
 21
-454.864501953125
 31
0.0
  0
LINE
  5
212
330
17
100
AcDbEntity
  8
0
100
AcDbLine
 10
154.28656005859375
 20
-456.486572265625
 30
0.0
 11
154.7486572265625
 21
-455.6221923828125
 31
0.0
  0
LINE
  5
213
330
17
100
AcDbEntity
  8
0
100
AcDbLine
 10
154.0020751953125
 20
-457.424560546875
 30
0.0
 11
154.28656005859375
 21
-456.486572265625
 31
0.0
  0
LINE
  5
214
330
17
100
AcDbEntity
  8
0
100
AcDbLine
 10
153.906005859375
 20
-458.4000244140625
 30
0.0
 11
154.0020751953125
 21
-457.424560546875
 31
0.0
  0
LINE
  5
215
330
17
100
AcDbEntity
  8
0
100
AcDbLine
 10
157.906005859375
 20
-457.4000244140625
 30
0.0
 11
159.906005859375
 21
-457.4000244140625
 31
0.0
  0
LINE
  5
216
330
17
100
AcDbEntity
  8
0
100
AcDbLine
 10
159.906005859375
 20
-459.4000244140625
 30
0.0
 11
157.906005859375
 21
-459.4000244140625
 31
0.0
  0
LINE
  5
217
330
17
100
AcDbEntity
  8
0
100
AcDbLine
 10
157.906005859375
 20
-457.4000244140625
 30
0.0
 11
157.906005859375
 21
-453.49609375
 31
0.0
  0
LINE
  5
218
330
17
100
AcDbEntity
  8
0
100
AcDbLine
 10
159.906005859375
 20
-453.49609375
 30
0.0
 11
159.906005859375
 21
-457.4000244140625
 31
0.0
  0
LINE
  5
219
330
17
100
AcDbEntity
  8
0
100
AcDbLine
 10
157.906005859375
 20
-463.303955078125
 30
0.0
 11
157.906005859375
 21
-459.4000244140625
 31
0.0
  0
LINE
  5
21A
330
17
100
AcDbEntity
  8
0
100
AcDbLine
 10
159.906005859375
 20
-463.303955078125
 30
0.0
 11
159.906005859375
 21
-459.4000244140625
 31
0.0
  0
LINE
  5
21B
330
17
100
AcDbEntity
  8
0
100
AcDbLine
 10
146.0999755859375
 20
-569.9000244140625
 30
0.0
 11
146.0999755859375
 21
-552.9000244140625
 31
0.0
  0
LINE
  5
21C
330
17
100
AcDbEntity
  8
0
100
AcDbLine
 10
146.0999755859375
 20
-462.9000244140625
 30
0.0
 11
146.0999755859375
 21
-479.9000244140625
 31
0.0
  0
LINE
  5
21D
330
17
100
AcDbEntity
  8
0
100
AcDbLine
 10
146.0999755859375
 20
-552.9000244140625
 30
0.0
 11
149.0999755859375
 21
-552.9000244140625
 31
0.0
  0
LINE
  5
21E
330
17
100
AcDbEntity
  8
0
100
AcDbLine
 10
146.0999755859375
 20
-479.9000244140625
 30
0.0
 11
149.0999755859375
 21
-479.9000244140625
 31
0.0
  0
LINE
  5
21F
330
17
100
AcDbEntity
  8
0
100
AcDbLine
 10
149.0999755859375
 20
-552.9000244140625
 30
0.0
 11
149.0999755859375
 21
-479.9000244140625
 31
0.0
  0
LINE
  5
220
330
17
100
AcDbEntity
  8
0
100
AcDbLine
 10
139.0999755859375
 20
-569.9000244140625
 30
0.0
 11
146.0999755859375
 21
-569.9000244140625
 31
0.0
  0
LINE
  5
221
330
17
100
AcDbEntity
  8
0
100
AcDbLine
 10
139.0999755859375
 20
-572.9000244140625
 30
0.0
 11
139.0999755859375
 21
-569.9000244140625
 31
0.0
  0
LINE
  5
222
330
17
100
AcDbEntity
  8
0
100
AcDbLine
 10
119.0999984741211
 20
-572.9000244140625
 30
0.0
 11
139.0999755859375
 21
-572.9000244140625
 31
0.0
  0
LINE
  5
223
330
17
100
AcDbEntity
  8
0
100
AcDbLine
 10
119.0999755859375
 20
-569.9000244140625
 30
0.0
 11
119.0999984741211
 21
-572.9000244140625
 31
0.0
  0
LINE
  5
224
330
17
100
AcDbEntity
  8
0
100
AcDbLine
 10
112.0999755859375
 20
-569.9000244140625
 30
0.0
 11
119.0999755859375
 21
-569.9000244140625
 31
0.0
  0
LINE
  5
225
330
17
100
AcDbEntity
  8
0
100
AcDbLine
 10
112.0999984741211
 20
-552.9000244140625
 30
0.0
 11
112.0999755859375
 21
-569.9000244140625
 31
0.0
  0
LINE
  5
226
330
17
100
AcDbEntity
  8
0
100
AcDbLine
 10
109.0999755859375
 20
-552.9000244140625
 30
0.0
 11
112.0999984741211
 21
-552.9000244140625
 31
0.0
  0
LINE
  5
227
330
17
100
AcDbEntity
  8
0
100
AcDbLine
 10
109.0999755859375
 20
-479.9000244140625
 30
0.0
 11
109.0999755859375
 21
-552.9000244140625
 31
0.0
  0
LINE
  5
228
330
17
100
AcDbEntity
  8
0
100
AcDbLine
 10
112.0999984741211
 20
-479.9000244140625
 30
0.0
 11
109.0999755859375
 21
-479.9000244140625
 31
0.0
  0
LINE
  5
229
330
17
100
AcDbEntity
  8
0
100
AcDbLine
 10
112.0999984741211
 20
-462.9000244140625
 30
0.0
 11
112.0999984741211
 21
-479.9000244140625
 31
0.0
  0
LINE
  5
22A
330
17
100
AcDbEntity
  8
0
100
AcDbLine
 10
119.0999984741211
 20
-462.9000244140625
 30
0.0
 11
112.0999984741211
 21
-462.9000244140625
 31
0.0
  0
LINE
  5
22B
330
17
100
AcDbEntity
  8
0
100
AcDbLine
 10
119.0999984741211
 20
-459.9000244140625
 30
0.0
 11
119.0999984741211
 21
-462.9000244140625
 31
0.0
  0
LINE
  5
22C
330
17
100
AcDbEntity
  8
0
100
AcDbLine
 10
139.0999755859375
 20
-462.9000244140625
 30
0.0
 11
146.0999755859375
 21
-462.9000244140625
 31
0.0
  0
LINE
  5
22D
330
17
100
AcDbEntity
  8
0
100
AcDbLine
 10
139.0999755859375
 20
-459.9000244140625
 30
0.0
 11
139.0999755859375
 21
-462.9000244140625
 31
0.0
  0
LINE
  5
22E
330
17
100
AcDbEntity
  8
0
100
AcDbLine
 10
119.0999984741211
 20
-459.9000244140625
 30
0.0
 11
139.0999755859375
 21
-459.9000244140625
 31
0.0
  0
LINE
  5
22F
330
17
100
AcDbEntity
  8
0
100
AcDbLine
 10
50.18994140625
 20
-573.4000244140625
 30
0.0
 11
30.18994140625
 21
-573.4000244140625
 31
0.0
  0
LINE
  5
230
330
17
100
AcDbEntity
  8
0
100
AcDbLine
 10
50.18994140625
 20
-570.4000244140625
 30
0.0
 11
50.18994140625
 21
-573.4000244140625
 31
0.0
  0
LINE
  5
231
330
17
100
AcDbEntity
  8
0
100
AcDbLine
 10
79.0999755859375
 20
-570.4000244140625
 30
0.0
 11
50.18994140625
 21
-570.4000244140625
 31
0.0
  0
LINE
  5
232
330
17
100
AcDbEntity
  8
0
100
AcDbLine
 10
79.0999755859375
 20
-573.4000244140625
 30
0.0
 11
79.0999755859375
 21
-570.4000244140625
 31
0.0
  0
LINE
  5
233
330
17
100
AcDbEntity
  8
0
100
AcDbLine
 10
99.0999755859375
 20
-573.4000244140625
 30
0.0
 11
79.0999755859375
 21
-573.4000244140625
 31
0.0
  0
LINE
  5
234
330
17
100
AcDbEntity
  8
0
100
AcDbLine
 10
99.0999755859375
 20
-553.4000244140625
 30
0.0
 11
99.0999755859375
 21
-573.4000244140625
 31
0.0
  0
LINE
  5
235
330
17
100
AcDbEntity
  8
0
100
AcDbLine
 10
96.0999755859375
 20
-553.4000244140625
 30
0.0
 11
99.0999755859375
 21
-553.4000244140625
 31
0.0
  0
LINE
  5
236
330
17
100
AcDbEntity
  8
0
100
AcDbLine
 10
30.18994140625
 20
-573.4000244140625
 30
0.0
 11
30.18994140625
 21
-553.4000244140625
 31
0.0
  0
LINE
  5
237
330
17
100
AcDbEntity
  8
0
100
AcDbLine
 10
30.18994140625
 20
-553.4000244140625
 30
0.0
 11
33.18994140625
 21
-553.4000244140625
 31
0.0
  0
LINE
  5
238
330
17
100
AcDbEntity
  8
0
100
AcDbLine
 10
50.18994140625
 20
-460.4000244140625
 30
0.0
 11
30.18994140625
 21
-460.4000244140625
 31
0.0
  0
LINE
  5
239
330
17
100
AcDbEntity
  8
0
100
AcDbLine
 10
50.18994140625
 20
-463.4000244140625
 30
0.0
 11
50.18994140625
 21
-460.4000244140625
 31
0.0
  0
LINE
  5
23A
330
17
100
AcDbEntity
  8
0
100
AcDbLine
 10
79.0999755859375
 20
-463.4000244140625
 30
0.0
 11
50.18994140625
 21
-463.4000244140625
 31
0.0
  0
LINE
  5
23B
330
17
100
AcDbEntity
  8
0
100
AcDbLine
 10
79.0999755859375
 20
-460.4000244140625
 30
0.0
 11
79.0999755859375
 21
-463.4000244140625
 31
0.0
  0
LINE
  5
23C
330
17
100
AcDbEntity
  8
0
100
AcDbLine
 10
99.0999755859375
 20
-460.4000244140625
 30
0.0
 11
79.0999755859375
 21
-460.4000244140625
 31
0.0
  0
LINE
  5
23D
330
17
100
AcDbEntity
  8
0
100
AcDbLine
 10
99.0999755859375
 20
-480.4000244140625
 30
0.0
 11
99.0999755859375
 21
-460.4000244140625
 31
0.0
  0
LINE
  5
23E
330
17
100
AcDbEntity
  8
0
100
AcDbLine
 10
96.0999755859375
 20
-480.4000244140625
 30
0.0
 11
99.0999755859375
 21
-480.4000244140625
 31
0.0
  0
LINE
  5
23F
330
17
100
AcDbEntity
  8
0
100
AcDbLine
 10
30.18994140625
 20
-460.4000244140625
 30
0.0
 11
30.18994140625
 21
-480.4000244140625
 31
0.0
  0
LINE
  5
240
330
17
100
AcDbEntity
  8
0
100
AcDbLine
 10
30.18994140625
 20
-480.4000244140625
 30
0.0
 11
33.18994140625
 21
-480.4000244140625
 31
0.0
  0
LINE
  5
241
330
17
100
AcDbEntity
  8
0
100
AcDbLine
 10
33.18994140625
 20
-553.4000244140625
 30
0.0
 11
33.18994140625
 21
-480.4000244140625
 31
0.0
  0
LINE
  5
242
330
17
100
AcDbEntity
  8
0
100
AcDbLine
 10
96.0999755859375
 20
-553.4000244140625
 30
0.0
 11
96.0999755859375
 21
-480.4000244140625
 31
0.0
  0
LINE
  5
243
330
17
100
AcDbEntity
  8
0
100
AcDbLine
 10
211.0899658203125
 20
-584.9000244140625
 30
0.0
 11
191.0899658203125
 21
-584.9000244140625
 31
0.0
  0
LINE
  5
244
330
17
100
AcDbEntity
  8
0
100
AcDbLine
 10
260.0
 20
-584.9000244140625
 30
0.0
 11
240.0
 21
-584.9000244140625
 31
0.0
  0
LINE
  5
245
330
17
100
AcDbEntity
  8
0
100
AcDbLine
 10
211.0899658203125
 20
-581.9000244140625
 30
0.0
 11
211.0899658203125
 21
-584.9000244140625
 31
0.0
  0
LINE
  5
246
330
17
100
AcDbEntity
  8
0
100
AcDbLine
 10
240.0
 20
-584.9000244140625
 30
0.0
 11
240.0
 21
-581.9000244140625
 31
0.0
  0
LINE
  5
247
330
17
100
AcDbEntity
  8
0
100
AcDbLine
 10
211.0899658203125
 20
-581.9000244140625
 30
0.0
 11
240.0
 21
-581.9000244140625
 31
0.0
  0
LINE
  5
248
330
17
100
AcDbEntity
  8
0
100
AcDbLine
 10
260.0
 20
-591.9000244140625
 30
0.0
 11
260.0
 21
-584.9000244140625
 31
0.0
  0
LINE
  5
249
330
17
100
AcDbEntity
  8
0
100
AcDbLine
 10
257.0
 20
-591.9000244140625
 30
0.0
 11
260.0
 21
-591.9000244140625
 31
0.0
  0
LINE
  5
24A
330
17
100
AcDbEntity
  8
0
100
AcDbLine
 10
257.0
 20
-611.9000244140625
 30
0.0
 11
257.0
 21
-591.9000244140625
 31
0.0
  0
LINE
  5
24B
330
17
100
AcDbEntity
  8
0
100
AcDbLine
 10
260.0
 20
-611.9000244140625
 30
0.0
 11
257.0
 21
-611.9000244140625
 31
0.0
  0
LINE
  5
24C
330
17
100
AcDbEntity
  8
0
100
AcDbLine
 10
260.0
 20
-618.9000244140625
 30
0.0
 11
260.0
 21
-611.9000244140625
 31
0.0
  0
LINE
  5
24D
330
17
100
AcDbEntity
  8
0
100
AcDbLine
 10
240.0
 20
-618.9000244140625
 30
0.0
 11
260.0
 21
-618.9000244140625
 31
0.0
  0
LINE
  5
24E
330
17
100
AcDbEntity
  8
0
100
AcDbLine
 10
240.0
 20
-621.9000244140625
 30
0.0
 11
240.0
 21
-618.9000244140625
 31
0.0
  0
LINE
  5
24F
330
17
100
AcDbEntity
  8
0
100
AcDbLine
 10
211.0899658203125
 20
-621.9000244140625
 30
0.0
 11
240.0
 21
-621.9000244140625
 31
0.0
  0
LINE
  5
250
330
17
100
AcDbEntity
  8
0
100
AcDbLine
 10
211.0899658203125
 20
-618.9000244140625
 30
0.0
 11
211.0899658203125
 21
-621.9000244140625
 31
0.0
  0
LINE
  5
251
330
17
100
AcDbEntity
  8
0
100
AcDbLine
 10
191.0899658203125
 20
-618.9000244140625
 30
0.0
 11
211.0899658203125
 21
-618.9000244140625
 31
0.0
  0
LINE
  5
252
330
17
100
AcDbEntity
  8
0
100
AcDbLine
 10
191.0899658203125
 20
-591.9000244140625
 30
0.0
 11
191.0899658203125
 21
-611.9000244140625
 31
0.0
  0
LINE
  5
253
330
17
100
AcDbEntity
  8
0
100
AcDbLine
 10
194.0899658203125
 20
-591.9000244140625
 30
0.0
 11
194.0899658203125
 21
-611.9000244140625
 31
0.0
  0
LINE
  5
254
330
17
100
AcDbEntity
  8
0
100
AcDbLine
 10
191.0899658203125
 20
-611.9000244140625
 30
0.0
 11
194.0899658203125
 21
-611.9000244140625
 31
0.0
  0
LINE
  5
255
330
17
100
AcDbEntity
  8
0
100
AcDbLine
 10
194.0899658203125
 20
-591.9000244140625
 30
0.0
 11
191.0899658203125
 21
-591.9000244140625
 31
0.0
  0
LINE
  5
256
330
17
100
AcDbEntity
  8
0
100
AcDbLine
 10
191.0899658203125
 20
-621.9000244140625
 30
0.0
 11
191.0899658203125
 21
-618.9000244140625
 31
0.0
  0
LINE
  5
257
330
17
100
AcDbEntity
  8
0
100
AcDbLine
 10
-69.0
 20
-621.9000244140625
 30
0.0
 11
-65.9100341796875
 21
-621.9000244140625
 31
0.0
  0
LINE
  5
258
330
17
100
AcDbEntity
  8
0
100
AcDbLine
 10
191.0899658203125
 20
-584.9000244140625
 30
0.0
 11
191.0899658203125
 21
-581.9000244140625
 31
0.0
  0
LINE
  5
259
330
17
100
AcDbEntity
  8
0
100
AcDbLine
 10
37.0
 20
-581.9000244140625
 30
0.0
 11
34.0736083984375
 21
-581.61181640625
 31
0.0
  0
LINE
  5
25A
330
17
100
AcDbEntity
  8
0
100
AcDbLine
 10
34.0736083984375
 20
-581.61181640625
 30
0.0
 11
31.25970458984375
 21
-580.7582397460938
 31
0.0
  0
LINE
  5
25B
330
17
100
AcDbEntity
  8
0
100
AcDbLine
 10
31.25970458984375
 20
-580.7582397460938
 30
0.0
 11
28.6663818359375
 21
-579.3720703125
 31
0.0
  0
LINE
  5
25C
330
17
100
AcDbEntity
  8
0
100
AcDbLine
 10
28.6663818359375
 20
-579.3720703125
 30
0.0
 11
26.39337158203125
 21
-577.506591796875
 31
0.0
  0
LINE
  5
25D
330
17
100
AcDbEntity
  8
0
100
AcDbLine
 10
26.39337158203125
 20
-577.506591796875
 30
0.0
 11
24.5279541015625
 21
-575.2335815429688
 31
0.0
  0
LINE
  5
25E
330
17
100
AcDbEntity
  8
0
100
AcDbLine
 10
24.5279541015625
 20
-575.2335815429688
 30
0.0
 11
23.14178466796875
 21
-572.6402587890625
 31
0.0
  0
LINE
  5
25F
330
17
100
AcDbEntity
  8
0
100
AcDbLine
 10
23.14178466796875
 20
-572.6402587890625
 30
0.0
 11
22.2882080078125
 21
-569.826416015625
 31
0.0
  0
LINE
  5
260
330
17
100
AcDbEntity
  8
0
100
AcDbLine
 10
22.2882080078125
 20
-569.826416015625
 30
0.0
 11
22.0
 21
-566.9000244140625
 31
0.0
  0
LINE
  5
261
330
17
100
AcDbEntity
  8
0
100
AcDbLine
 10
37.0
 20
-581.9000244140625
 30
0.0
 11
191.0899658203125
 21
-581.9000244140625
 31
0.0
  0
LINE
  5
262
330
17
100
AcDbEntity
  8
0
100
AcDbLine
 10
19.0
 20
-441.9000244140625
 30
0.0
 11
19.77642822265625
 21
-442.00225830078125
 31
0.0
  0
LINE
  5
263
330
17
100
AcDbEntity
  8
0
100
AcDbLine
 10
19.77642822265625
 20
-442.00225830078125
 30
0.0
 11
20.5
 21
-442.30194091796875
 31
0.0
  0
LINE
  5
264
330
17
100
AcDbEntity
  8
0
100
AcDbLine
 10
20.5
 20
-442.30194091796875
 30
0.0
 11
21.12127685546875
 21
-442.7786865234375
 31
0.0
  0
LINE
  5
265
330
17
100
AcDbEntity
  8
0
100
AcDbLine
 10
21.12127685546875
 20
-442.7786865234375
 30
0.0
 11
21.5980224609375
 21
-443.4000244140625
 31
0.0
  0
LINE
  5
266
330
17
100
AcDbEntity
  8
0
100
AcDbLine
 10
21.5980224609375
 20
-443.4000244140625
 30
0.0
 11
21.89776611328125
 21
-444.12353515625
 31
0.0
  0
LINE
  5
267
330
17
100
AcDbEntity
  8
0
100
AcDbLine
 10
21.89776611328125
 20
-444.12353515625
 30
0.0
 11
22.0
 21
-444.9000244140625
 31
0.0
  0
LINE
  5
268
330
17
100
AcDbEntity
  8
0
100
AcDbLine
 10
22.0
 20
-444.9000244140625
 30
0.0
 11
22.0
 21
-566.9000244140625
 31
0.0
  0
LINE
  5
269
330
17
100
AcDbEntity
  8
0
100
AcDbLine
 10
-38.50921630859375
 20
-444.85650634765625
 30
0.0
 11
-38.275146484375
 21
-444.09130859375
 31
0.0
  0
LINE
  5
26A
330
17
100
AcDbEntity
  8
0
100
AcDbLine
 10
-38.275146484375
 20
-444.09130859375
 30
0.0
 11
-37.8526611328125
 21
-443.37823486328125
 31
0.0
  0
LINE
  5
26B
330
17
100
AcDbEntity
  8
0
100
AcDbLine
 10
-37.8526611328125
 20
-443.37823486328125
 30
0.0
 11
-37.27044677734375
 21
-442.76593017578125
 31
0.0
  0
LINE
  5
26C
330
17
100
AcDbEntity
  8
0
100
AcDbLine
 10
-37.27044677734375
 20
-442.76593017578125
 30
0.0
 11
-36.5682373046875
 21
-442.29608154296875
 31
0.0
  0
LINE
  5
26D
330
17
100
AcDbEntity
  8
0
100
AcDbLine
 10
-36.5682373046875
 20
-442.29608154296875
 30
0.0
 11
-35.7938232421875
 21
-442.000732421875
 31
0.0
  0
LINE
  5
26E
330
17
100
AcDbEntity
  8
0
100
AcDbLine
 10
-35.7938232421875
 20
-442.000732421875
 30
0.0
 11
-35.0
 21
-441.9000244140625
 31
0.0
  0
LINE
  5
26F
330
17
100
AcDbEntity
  8
0
100
AcDbLine
 10
-69.0
 20
-621.9000244140625
 30
0.0
 11
-66.16998291015625
 21
-604.86474609375
 31
0.0
  0
LINE
  5
270
330
17
100
AcDbEntity
  8
0
100
AcDbLine
 10
-35.0
 20
-441.9000244140625
 30
0.0
 11
19.0
 21
-441.9000244140625
 31
0.0
  0
LINE
  5
271
330
17
100
AcDbEntity
  8
0
100
AcDbLine
 10
173.525634765625
 20
-593.8941650390625
 30
0.0
 11
173.5
 21
-594.4000244140625
 31
0.0
  0
LINE
  5
272
330
17
100
AcDbEntity
  8
0
100
AcDbLine
 10
173.60235595703125
 20
-593.3935546875
 30
0.0
 11
173.525634765625
 21
-593.8941650390625
 31
0.0
  0
LINE
  5
273
330
17
100
AcDbEntity
  8
0
100
AcDbLine
 10
173.72930908203125
 20
-592.9031982421875
 30
0.0
 11
173.60235595703125
 21
-593.3935546875
 31
0.0
  0
LINE
  5
274
330
17
100
AcDbEntity
  8
0
100
AcDbLine
 10
173.90521240234375
 20
-592.42822265625
 30
0.0
 11
173.72930908203125
 21
-592.9031982421875
 31
0.0
  0
LINE
  5
275
330
17
100
AcDbEntity
  8
0
100
AcDbLine
 10
174.12823486328125
 20
-591.9735107421875
 30
0.0
 11
173.90521240234375
 21
-592.42822265625
 31
0.0
  0
LINE
  5
276
330
17
100
AcDbEntity
  8
0
100
AcDbLine
 10
174.39617919921875
 20
-591.543701171875
 30
0.0
 11
174.12823486328125
 21
-591.9735107421875
 31
0.0
  0
LINE
  5
277
330
17
100
AcDbEntity
  8
0
100
AcDbLine
 10
174.7061767578125
 20
-591.1431274414062
 30
0.0
 11
174.39617919921875
 21
-591.543701171875
 31
0.0
  0
LINE
  5
278
330
17
100
AcDbEntity
  8
0
100
AcDbLine
 10
175.05511474609375
 20
-590.7760620117188
 30
0.0
 11
174.7061767578125
 21
-591.1431274414062
 31
0.0
  0
LINE
  5
279
330
17
100
AcDbEntity
  8
0
100
AcDbLine
 10
175.439453125
 20
-590.4461669921875
 30
0.0
 11
175.05511474609375
 21
-590.7760620117188
 31
0.0
  0
LINE
  5
27A
330
17
100
AcDbEntity
  8
0
100
AcDbLine
 10
175.85516357421875
 20
-590.1567993164062
 30
0.0
 11
175.439453125
 21
-590.4461669921875
 31
0.0
  0
LINE
  5
27B
330
17
100
AcDbEntity
  8
0
100
AcDbLine
 10
176.29803466796875
 20
-589.9110107421875
 30
0.0
 11
175.85516357421875
 21
-590.1567993164062
 31
0.0
  0
LINE
  5
27C
330
17
100
AcDbEntity
  8
0
100
AcDbLine
 10
176.763427734375
 20
-589.7112426757812
 30
0.0
 11
176.29803466796875
 21
-589.9110107421875
 31
0.0
  0
LINE
  5
27D
330
17
100
AcDbEntity
  8
0
100
AcDbLine
 10
177.2467041015625
 20
-589.5596313476562
 30
0.0
 11
176.763427734375
 21
-589.7112426757812
 31
0.0
  0
LINE
  5
27E
330
17
100
AcDbEntity
  8
0
100
AcDbLine
 10
177.74285888671875
 20
-589.4576416015625
 30
0.0
 11
177.2467041015625
 21
-589.5596313476562
 31
0.0
  0
LINE
  5
27F
330
17
100
AcDbEntity
  8
0
100
AcDbLine
 10
178.2467041015625
 20
-589.4064331054688
 30
0.0
 11
177.74285888671875
 21
-589.4576416015625
 31
0.0
  0
LINE
  5
280
330
17
100
AcDbEntity
  8
0
100
AcDbLine
 10
178.75323486328125
 20
-589.4064331054688
 30
0.0
 11
178.2467041015625
 21
-589.4064331054688
 31
0.0
  0
LINE
  5
281
330
17
100
AcDbEntity
  8
0
100
AcDbLine
 10
179.25714111328125
 20
-589.4576416015625
 30
0.0
 11
178.75323486328125
 21
-589.4064331054688
 31
0.0
  0
LINE
  5
282
330
17
100
AcDbEntity
  8
0
100
AcDbLine
 10
179.75323486328125
 20
-589.5596313476562
 30
0.0
 11
179.25714111328125
 21
-589.4576416015625
 31
0.0
  0
LINE
  5
283
330
17
100
AcDbEntity
  8
0
100
AcDbLine
 10
180.23651123046875
 20
-589.7112426757812
 30
0.0
 11
179.75323486328125
 21
-589.5596313476562
 31
0.0
  0
LINE
  5
284
330
17
100
AcDbEntity
  8
0
100
AcDbLine
 10
180.70196533203125
 20
-589.9110107421875
 30
0.0
 11
180.23651123046875
 21
-589.7112426757812
 31
0.0
  0
LINE
  5
285
330
17
100
AcDbEntity
  8
0
100
AcDbLine
 10
181.144775390625
 20
-590.1567993164062
 30
0.0
 11
180.70196533203125
 21
-589.9110107421875
 31
0.0
  0
LINE
  5
286
330
17
100
AcDbEntity
  8
0
100
AcDbLine
 10
181.56048583984375
 20
-590.4461669921875
 30
0.0
 11
181.144775390625
 21
-590.1567993164062
 31
0.0
  0
LINE
  5
287
330
17
100
AcDbEntity
  8
0
100
AcDbLine
 10
181.94482421875
 20
-590.7760620117188
 30
0.0
 11
181.56048583984375
 21
-590.4461669921875
 31
0.0
  0
LINE
  5
288
330
17
100
AcDbEntity
  8
0
100
AcDbLine
 10
182.29376220703125
 20
-591.1431274414062
 30
0.0
 11
181.94482421875
 21
-590.7760620117188
 31
0.0
  0
LINE
  5
289
330
17
100
AcDbEntity
  8
0
100
AcDbLine
 10
182.60382080078125
 20
-591.543701171875
 30
0.0
 11
182.29376220703125
 21
-591.1431274414062
 31
0.0
  0
LINE
  5
28A
330
17
100
AcDbEntity
  8
0
100
AcDbLine
 10
182.8717041015625
 20
-591.9735107421875
 30
0.0
 11
182.60382080078125
 21
-591.543701171875
 31
0.0
  0
LINE
  5
28B
330
17
100
AcDbEntity
  8
0
100
AcDbLine
 10
183.09478759765625
 20
-592.42822265625
 30
0.0
 11
182.8717041015625
 21
-591.9735107421875
 31
0.0
  0
LINE
  5
28C
330
17
100
AcDbEntity
  8
0
100
AcDbLine
 10
183.27069091796875
 20
-592.9031982421875
 30
0.0
 11
183.09478759765625
 21
-592.42822265625
 31
0.0
  0
LINE
  5
28D
330
17
100
AcDbEntity
  8
0
100
AcDbLine
 10
183.39764404296875
 20
-593.3935546875
 30
0.0
 11
183.27069091796875
 21
-592.9031982421875
 31
0.0
  0
LINE
  5
28E
330
17
100
AcDbEntity
  8
0
100
AcDbLine
 10
183.47430419921875
 20
-593.8941650390625
 30
0.0
 11
183.39764404296875
 21
-593.3935546875
 31
0.0
  0
LINE
  5
28F
330
17
100
AcDbEntity
  8
0
100
AcDbLine
 10
183.5
 20
-594.4000244140625
 30
0.0
 11
183.47430419921875
 21
-593.8941650390625
 31
0.0
  0
LINE
  5
290
330
17
100
AcDbEntity
  8
0
100
AcDbLine
 10
183.47430419921875
 20
-594.9058837890625
 30
0.0
 11
183.5
 21
-594.4000244140625
 31
0.0
  0
LINE
  5
291
330
17
100
AcDbEntity
  8
0
100
AcDbLine
 10
183.39764404296875
 20
-595.406494140625
 30
0.0
 11
183.47430419921875
 21
-594.9058837890625
 31
0.0
  0
LINE
  5
292
330
17
100
AcDbEntity
  8
0
100
AcDbLine
 10
183.27069091796875
 20
-595.8968505859375
 30
0.0
 11
183.39764404296875
 21
-595.406494140625
 31
0.0
  0
LINE
  5
293
330
17
100
AcDbEntity
  8
0
100
AcDbLine
 10
183.09478759765625
 20
-596.371826171875
 30
0.0
 11
183.27069091796875
 21
-595.8968505859375
 31
0.0
  0
LINE
  5
294
330
17
100
AcDbEntity
  8
0
100
AcDbLine
 10
182.8717041015625
 20
-596.8265380859375
 30
0.0
 11
183.09478759765625
 21
-596.371826171875
 31
0.0
  0
LINE
  5
295
330
17
100
AcDbEntity
  8
0
100
AcDbLine
 10
182.60382080078125
 20
-597.25634765625
 30
0.0
 11
182.8717041015625
 21
-596.8265380859375
 31
0.0
  0
LINE
  5
296
330
17
100
AcDbEntity
  8
0
100
AcDbLine
 10
182.29376220703125
 20
-597.6568603515625
 30
0.0
 11
182.60382080078125
 21
-597.25634765625
 31
0.0
  0
LINE
  5
297
330
17
100
AcDbEntity
  8
0
100
AcDbLine
 10
181.94482421875
 20
-598.0239868164062
 30
0.0
 11
182.29376220703125
 21
-597.6568603515625
 31
0.0
  0
LINE
  5
298
330
17
100
AcDbEntity
  8
0
100
AcDbLine
 10
181.56048583984375
 20
-598.3538818359375
 30
0.0
 11
181.94482421875
 21
-598.0239868164062
 31
0.0
  0
LINE
  5
299
330
17
100
AcDbEntity
  8
0
100
AcDbLine
 10
181.144775390625
 20
-598.6432495117188
 30
0.0
 11
181.56048583984375
 21
-598.3538818359375
 31
0.0
  0
LINE
  5
29A
330
17
100
AcDbEntity
  8
0
100
AcDbLine
 10
180.70196533203125
 20
-598.8890380859375
 30
0.0
 11
181.144775390625
 21
-598.6432495117188
 31
0.0
  0
LINE
  5
29B
330
17
100
AcDbEntity
  8
0
100
AcDbLine
 10
180.23651123046875
 20
-599.0887451171875
 30
0.0
 11
180.70196533203125
 21
-598.8890380859375
 31
0.0
  0
LINE
  5
29C
330
17
100
AcDbEntity
  8
0
100
AcDbLine
 10
179.75323486328125
 20
-599.2404174804688
 30
0.0
 11
180.23651123046875
 21
-599.0887451171875
 31
0.0
  0
LINE
  5
29D
330
17
100
AcDbEntity
  8
0
100
AcDbLine
 10
179.25714111328125
 20
-599.3423461914062
 30
0.0
 11
179.75323486328125
 21
-599.2404174804688
 31
0.0
  0
LINE
  5
29E
330
17
100
AcDbEntity
  8
0
100
AcDbLine
 10
178.75323486328125
 20
-599.3936157226562
 30
0.0
 11
179.25714111328125
 21
-599.3423461914062
 31
0.0
  0
LINE
  5
29F
330
17
100
AcDbEntity
  8
0
100
AcDbLine
 10
178.2467041015625
 20
-599.3936157226562
 30
0.0
 11
178.75323486328125
 21
-599.3936157226562
 31
0.0
  0
LINE
  5
2A0
330
17
100
AcDbEntity
  8
0
100
AcDbLine
 10
177.74285888671875
 20
-599.3423461914062
 30
0.0
 11
178.2467041015625
 21
-599.3936157226562
 31
0.0
  0
LINE
  5
2A1
330
17
100
AcDbEntity
  8
0
100
AcDbLine
 10
177.2467041015625
 20
-599.2404174804688
 30
0.0
 11
177.74285888671875
 21
-599.3423461914062
 31
0.0
  0
LINE
  5
2A2
330
17
100
AcDbEntity
  8
0
100
AcDbLine
 10
176.763427734375
 20
-599.0887451171875
 30
0.0
 11
177.2467041015625
 21
-599.2404174804688
 31
0.0
  0
LINE
  5
2A3
330
17
100
AcDbEntity
  8
0
100
AcDbLine
 10
176.29803466796875
 20
-598.8890380859375
 30
0.0
 11
176.763427734375
 21
-599.0887451171875
 31
0.0
  0
LINE
  5
2A4
330
17
100
AcDbEntity
  8
0
100
AcDbLine
 10
175.85516357421875
 20
-598.6432495117188
 30
0.0
 11
176.29803466796875
 21
-598.8890380859375
 31
0.0
  0
LINE
  5
2A5
330
17
100
AcDbEntity
  8
0
100
AcDbLine
 10
175.439453125
 20
-598.3538818359375
 30
0.0
 11
175.85516357421875
 21
-598.6432495117188
 31
0.0
  0
LINE
  5
2A6
330
17
100
AcDbEntity
  8
0
100
AcDbLine
 10
175.05511474609375
 20
-598.0239868164062
 30
0.0
 11
175.439453125
 21
-598.3538818359375
 31
0.0
  0
LINE
  5
2A7
330
17
100
AcDbEntity
  8
0
100
AcDbLine
 10
174.7061767578125
 20
-597.6568603515625
 30
0.0
 11
175.05511474609375
 21
-598.0239868164062
 31
0.0
  0
LINE
  5
2A8
330
17
100
AcDbEntity
  8
0
100
AcDbLine
 10
174.39617919921875
 20
-597.25634765625
 30
0.0
 11
174.7061767578125
 21
-597.6568603515625
 31
0.0
  0
LINE
  5
2A9
330
17
100
AcDbEntity
  8
0
100
AcDbLine
 10
174.12823486328125
 20
-596.8265380859375
 30
0.0
 11
174.39617919921875
 21
-597.25634765625
 31
0.0
  0
LINE
  5
2AA
330
17
100
AcDbEntity
  8
0
100
AcDbLine
 10
173.90521240234375
 20
-596.371826171875
 30
0.0
 11
174.12823486328125
 21
-596.8265380859375
 31
0.0
  0
LINE
  5
2AB
330
17
100
AcDbEntity
  8
0
100
AcDbLine
 10
173.72930908203125
 20
-595.8968505859375
 30
0.0
 11
173.90521240234375
 21
-596.371826171875
 31
0.0
  0
LINE
  5
2AC
330
17
100
AcDbEntity
  8
0
100
AcDbLine
 10
173.60235595703125
 20
-595.406494140625
 30
0.0
 11
173.72930908203125
 21
-595.8968505859375
 31
0.0
  0
LINE
  5
2AD
330
17
100
AcDbEntity
  8
0
100
AcDbLine
 10
173.525634765625
 20
-594.9058837890625
 30
0.0
 11
173.60235595703125
 21
-595.406494140625
 31
0.0
  0
LINE
  5
2AE
330
17
100
AcDbEntity
  8
0
100
AcDbLine
 10
173.5
 20
-594.4000244140625
 30
0.0
 11
173.525634765625
 21
-594.9058837890625
 31
0.0
  0
LINE
  5
2AF
330
17
100
AcDbEntity
  8
0
100
AcDbLine
 10
-30.0
 20
-446.9000244140625
 30
0.0
 11
-20.0
 21
-446.9000244140625
 31
0.0
  0
LINE
  5
2B0
330
17
100
AcDbEntity
  8
0
100
AcDbLine
 10
10.0
 20
-446.9000244140625
 30
0.0
 11
0.0
 21
-446.9000244140625
 31
0.0
  0
LINE
  5
2B1
330
17
100
AcDbEntity
  8
0
100
AcDbLine
 10
-30.0
 20
-449.9000244140625
 30
0.0
 11
-20.0
 21
-449.9000244140625
 31
0.0
  0
LINE
  5
2B2
330
17
100
AcDbEntity
  8
0
100
AcDbLine
 10
10.0
 20
-449.9000244140625
 30
0.0
 11
0.0
 21
-449.9000244140625
 31
0.0
  0
LINE
  5
2B3
330
17
100
AcDbEntity
  8
0
100
AcDbLine
 10
0.0
 20
-446.9000244140625
 30
0.0
 11
0.0
 21
-449.9000244140625
 31
0.0
  0
LINE
  5
2B4
330
17
100
AcDbEntity
  8
0
100
AcDbLine
 10
10.0
 20
-449.9000244140625
 30
0.0
 11
10.0
 21
-446.9000244140625
 31
0.0
  0
LINE
  5
2B5
330
17
100
AcDbEntity
  8
0
100
AcDbLine
 10
-20.0
 20
-446.9000244140625
 30
0.0
 11
-20.0
 21
-449.9000244140625
 31
0.0
  0
LINE
  5
2B6
330
17
100
AcDbEntity
  8
0
100
AcDbLine
 10
-30.0
 20
-449.9000244140625
 30
0.0
 11
-30.0
 21
-446.9000244140625
 31
0.0
  0
LINE
  5
2B7
330
17
100
AcDbEntity
  8
0
100
AcDbLine
 10
-38.50921630859375
 20
-444.85650634765625
 30
0.0
 11
-60.99658203125
 21
-575.3141479492188
 31
0.0
  0
LINE
  5
2B8
330
17
100
AcDbEntity
  8
0
100
AcDbLine
 10
-60.99658203125
 20
-575.3141479492188
 30
0.0
 11
-58.04156494140625
 21
-575.8314819335938
 31
0.0
  0
LINE
  5
2B9
330
17
100
AcDbEntity
  8
0
100
AcDbLine
 10
-58.04156494140625
 20
-575.8314819335938
 30
0.0
 11
-63.21490478515625
 21
-605.382080078125
 31
0.0
  0
LINE
  5
2BA
330
17
100
AcDbEntity
  8
0
100
AcDbLine
 10
-66.16998291015625
 20
-604.86474609375
 30
0.0
 11
-63.21490478515625
 21
-605.382080078125
 31
0.0
  0
LINE
  5
2BB
330
17
100
AcDbEntity
  8
0
100
AcDbLine
 10
191.0899658203125
 20
-621.9000244140625
 30
0.0
 11
-35.9100341796875
 21
-621.9000244140625
 31
0.0
  0
LINE
  5
2BC
330
17
100
AcDbEntity
  8
0
100
AcDbLine
 10
-65.9100341796875
 20
-618.9000244140625
 30
0.0
 11
-35.9100341796875
 21
-618.9000244140625
 31
0.0
  0
LINE
  5
2BD
330
17
100
AcDbEntity
  8
0
100
AcDbLine
 10
-35.9100341796875
 20
-621.9000244140625
 30
0.0
 11
-35.9100341796875
 21
-618.9000244140625
 31
0.0
  0
LINE
  5
2BE
330
17
100
AcDbEntity
  8
0
100
AcDbLine
 10
-65.9100341796875
 20
-618.9000244140625
 30
0.0
 11
-65.9100341796875
 21
-621.9000244140625
 31
0.0
  0
LINE
  5
2BF
330
17
100
AcDbEntity
  8
0
100
AcDbLine
 10
-56.317138671875
 20
-565.9813232421875
 30
0.0
 11
-56.83447265625
 21
-568.9363403320312
 31
0.0
  0
LINE
  5
2C0
330
17
100
AcDbEntity
  8
0
100
AcDbLine
 10
-56.317138671875
 20
-565.9813232421875
 30
0.0
 11
-7.066162109375
 21
-574.603515625
 31
0.0
  0
LINE
  5
2C1
330
17
100
AcDbEntity
  8
0
100
AcDbLine
 10
-56.83447265625
 20
-568.9363403320312
 30
0.0
 11
-7.58349609375
 21
-577.55859375
 31
0.0
  0
LINE
  5
2C2
330
17
100
AcDbEntity
  8
0
100
AcDbLine
 10
-7.066162109375
 20
-574.603515625
 30
0.0
 11
-7.58349609375
 21
-577.55859375
 31
0.0
  0
LINE
  5
2C3
330
17
100
AcDbEntity
  8
0
100
AcDbLine
 10
111.3331298828125
 20
-595.3314208984375
 30
0.0
 11
160.5841064453125
 21
-603.95361328125
 31
0.0
  0
LINE
  5
2C4
330
17
100
AcDbEntity
  8
0
100
AcDbLine
 10
110.8157958984375
 20
-598.2864379882812
 30
0.0
 11
160.0667724609375
 21
-606.90869140625
 31
0.0
  0
LINE
  5
2C5
330
17
100
AcDbEntity
  8
0
100
AcDbLine
 10
160.5841064453125
 20
-603.95361328125
 30
0.0
 11
160.0667724609375
 21
-606.90869140625
 31
0.0
  0
LINE
  5
2C6
330
17
100
AcDbEntity
  8
0
100
AcDbLine
 10
111.3331298828125
 20
-595.3314208984375
 30
0.0
 11
110.8157958984375
 21
-598.2864379882812
 31
0.0
  0
ENDSEC
  0
SECTION
  2
OBJECTS
  0
DICTIONARY
  5
A
330
0
100
AcDbDictionary
280
0
281
1
  3
ACAD_COLOR
350
B
  3
ACAD_GROUP
350
C
  3
ACAD_LAYOUT
350
D
  3
ACAD_MATERIAL
350
E
  3
ACAD_MLEADERSTYLE
350
F
  3
ACAD_MLINESTYLE
350
10
  3
ACAD_PLOTSETTINGS
350
11
  3
ACAD_PLOTSTYLENAME
350
12
  3
ACAD_SCALELIST
350
14
  3
ACAD_TABLESTYLE
350
15
  3
ACAD_VISUALSTYLE
350
16
  3
EZDXF_META
350
2D
  0
DICTIONARY
  5
B
330
A
100
AcDbDictionary
280
0
281
1
  0
DICTIONARY
  5
C
330
A
100
AcDbDictionary
280
0
281
1
  0
DICTIONARY
  5
D
330
A
100
AcDbDictionary
280
0
281
1
  3
Model
350
1A
  3
Layout1
350
1E
  0
DICTIONARY
  5
E
330
A
100
AcDbDictionary
280
0
281
1
  3
ByBlock
350
1F
  3
ByLayer
350
20
  3
Global
350
21
  0
DICTIONARY
  5
F
330
A
100
AcDbDictionary
280
0
281
1
  3
Standard
350
2C
  0
DICTIONARY
  5
10
330
A
100
AcDbDictionary
280
0
281
1
  3
Standard
350
22
  0
DICTIONARY
  5
11
330
A
100
AcDbDictionary
280
0
281
1
  0
ACDBDICTIONARYWDFLT
  5
12
330
A
100
AcDbDictionary
280
0
281
1
  3
Normal
350
13
100
AcDbDictionaryWithDefault
340
13
  0
ACDBPLACEHOLDER
  5
13
330
12
  0
DICTIONARY
  5
14
330
A
100
AcDbDictionary
280
0
281
1
  0
DICTIONARY
  5
15
330
A
100
AcDbDictionary
280
0
281
1
  0
DICTIONARY
  5
16
330
A
100
AcDbDictionary
280
0
281
1
  0
LAYOUT
  5
1A
330
D
100
AcDbPlotSettings
  1

  4
A3
  6

 40
7.5
 41
20.0
 42
7.5
 43
20.0
 44
420.0
 45
297.0
 46
0.0
 47
0.0
 48
0.0
 49
0.0
140
0.0
141
0.0
142
1.0
143
1.0
 70
1024
 72
1
 73
0
 74
5
  7

 75
16
 76
0
 77
2
 78
300
147
1.0
148
0.0
149
0.0
100
AcDbLayout
  1
Model
 70
1
 71
0
 10
0.0
 20
0.0
 11
420.0
 21
297.0
 12
0.0
 22
0.0
 32
0.0
 14
1e+20
 24
1e+20
 34
1e+20
 15
-1e+20
 25
-1e+20
 35
-1e+20
146
0.0
 13
0.0
 23
0.0
 33
0.0
 16
1.0
 26
0.0
 36
0.0
 17
0.0
 27
1.0
 37
0.0
 76
1
330
17
  0
LAYOUT
  5
1E
330
D
100
AcDbPlotSettings
  1

  4
A3
  6

 40
7.5
 41
20.0
 42
7.5
 43
20.0
 44
420.0
 45
297.0
 46
0.0
 47
0.0
 48
0.0
 49
0.0
140
0.0
141
0.0
142
1.0
143
1.0
 70
0
 72
1
 73
0
 74
5
  7

 75
16
 76
0
 77
2
 78
300
147
1.0
148
0.0
149
0.0
100
AcDbLayout
  1
Layout1
 70
1
 71
1
 10
0.0
 20
0.0
 11
420.0
 21
297.0
 12
0.0
 22
0.0
 32
0.0
 14
1e+20
 24
1e+20
 34
1e+20
 15
-1e+20
 25
-1e+20
 35
-1e+20
146
0.0
 13
0.0
 23
0.0
 33
0.0
 16
1.0
 26
0.0
 36
0.0
 17
0.0
 27
1.0
 37
0.0
 76
1
330
1B
  0
MATERIAL
  5
1F
102
{ACAD_REACTORS
330
E
102
}
330
E
100
AcDbMaterial
  1
ByBlock
  2

 70
0
 40
1.0
 71
1
 41
1.0
 91
-1023410177
 42
1.0
 72
1
  3

 73
1
 74
1
 75
1
 44
0.5
 73
0
 45
1.0
 46
1.0
 77
1
  4

 78
1
 79
1
170
1
 48
1.0
171
1
  6

172
1
173
1
174
1
140
1.0
141
1.0
175
1
  7

176
1
177
1
178
1
143
1.0
179
1
  8

270
1
271
1
272
1
145
1.0
146
1.0
273
1
  9

274
1
275
1
276
1
 42
1.0
 72
1
  3

 73
1
 74
1
 75
1
 94
63
  0
MATERIAL
  5
20
102
{ACAD_REACTORS
330
E
102
}
330
E
100
AcDbMaterial
  1
ByLayer
  2

 70
0
 40
1.0
 71
1
 41
1.0
 91
-1023410177
 42
1.0
 72
1
  3

 73
1
 74
1
 75
1
 44
0.5
 73
0
 45
1.0
 46
1.0
 77
1
  4

 78
1
 79
1
170
1
 48
1.0
171
1
  6

172
1
173
1
174
1
140
1.0
141
1.0
175
1
  7

176
1
177
1
178
1
143
1.0
179
1
  8

270
1
271
1
272
1
145
1.0
146
1.0
273
1
  9

274
1
275
1
276
1
 42
1.0
 72
1
  3

 73
1
 74
1
 75
1
 94
63
  0
MATERIAL
  5
21
102
{ACAD_REACTORS
330
E
102
}
330
E
100
AcDbMaterial
  1
Global
  2

 70
0
 40
1.0
 71
1
 41
1.0
 91
-1023410177
 42
1.0
 72
1
  3

 73
1
 74
1
 75
1
 44
0.5
 73
0
 45
1.0
 46
1.0
 77
1
  4

 78
1
 79
1
170
1
 48
1.0
171
1
  6

172
1
173
1
174
1
140
1.0
141
1.0
175
1
  7

176
1
177
1
178
1
143
1.0
179
1
  8

270
1
271
1
272
1
145
1.0
146
1.0
273
1
  9

274
1
275
1
276
1
 42
1.0
 72
1
  3

 73
1
 74
1
 75
1
 94
63
  0
MLINESTYLE
  5
22
102
{ACAD_REACTORS
330
10
102
}
330
10
100
AcDbMlineStyle
  2
Standard
 70
0
  3

 62
256
 51
90.0
 52
90.0
 71
2
 49
0.5
 62
256
  6
BYLAYER
 49
-0.5
 62
256
  6
BYLAYER
  0
MLEADERSTYLE
  5
2C
102
{ACAD_REACTORS
330
F
102
}
330
F
100
AcDbMLeaderStyle
179
2
170
2
171
1
172
0
 90
2
 40
0.0
 41
0.0
173
1
 91
-1056964608
 92
-2
290
1
 42
2.0
291
1
 43
8.0
  3
Standard
 44
4.0
300

342
29
174
1
175
1
176
0
178
1
 93
-1056964608
 45
4.0
292
0
297
0
 46
4.0
 94
-1056964608
 47
1.0
 49
1.0
140
1.0
294
1
141
0.0
177
0
142
1.0
295
0
296
0
143
3.75
271
0
272
9
273
9
  0
DICTIONARY
  5
2D
330
A
100
AcDbDictionary
281
1
  3
CREATED_BY_EZDXF
350
2E
  3
WRITTEN_BY_EZDXF
350
2C9
  0
DICTIONARYVAR
  5
2E
330
2D
100
DictionaryVariables
280
0
  1
1.4.1 @ 2025-06-04T14:02:58.771922+00:00
  0
DICTIONARYVAR
  5
2C9
330
2D
100
DictionaryVariables
280
0
  1
1.4.1 @ 2025-06-04T14:02:58.779377+00:00
  0
ENDSEC
  0
EOF
